<?xml version="1.0" encoding="UTF-8" standalone="no"?>
<!-- Created with Inkscape (http://www.inkscape.org/) -->

<svg
   version="1.1"
   id="svg1"
   width="400"
   height="400"
   viewBox="0 0 400 400"
   sodipodi:docname="cake_wallet.svg"
   inkscape:version="1.4.3 (0d15f75, 2025-12-25)"
   xmlns:inkscape="http://www.inkscape.org/namespaces/inkscape"
   xmlns:sodipodi="http://sodipodi.sourceforge.net/DTD/sodipodi-0.dtd"
   xmlns="http://www.w3.org/2000/svg"
   xmlns:svg="http://www.w3.org/2000/svg">
  <defs
     id="defs1" />
  <sodipodi:namedview
     id="namedview1"
     pagecolor="#505050"
     bordercolor="#eeeeee"
     borderopacity="1"
     inkscape:showpageshadow="0"
     inkscape:pageopacity="0"
     inkscape:pagecheckerboard="0"
     inkscape:deskcolor="#505050"
     inkscape:zoom="2.1725"
     inkscape:cx="200.23015"
     inkscape:cy="286.53625"
     inkscape:window-width="1916"
     inkscape:window-height="1052"
     inkscape:window-x="0"
     inkscape:window-y="24"
     inkscape:window-maximized="1"
     inkscape:current-layer="g1" />
  <g
     inkscape:groupmode="layer"
     inkscape:label="Image"
     id="g1">
    <g
       id="g2"
       transform="matrix(1.5118846,0,0,1.2462439,-101.87606,-47.637748)">
      <path
         style="fill:#d3e8f8"
         d="m 135.09396,301.61819 c -22.73141,-22.76 -41.719873,-41.9975 -42.196585,-42.75 -0.476712,-0.7525 -0.87364,-34.18861 -0.882062,-74.30247 -0.01485,-70.73708 0.04449,-73.05675 1.969851,-77 1.09184,-2.23614 3.502367,-5.09205 5.356727,-6.34645 C 102.79092,98.886139 102.47839,98.957943 220,73.497452 243.925,68.314216 270.68451,62.481874 279.46557,60.536693 288.24663,58.591512 296.36913,57 297.51557,57 300.15326,57 302,58.818086 302,61.414838 c 0,1.329227 -19.63803,21.670999 -57.71123,59.779332 -31.74117,31.77048 -58.40367,59.0113 -59.25,60.53517 -1.3357,2.40501 -1.60788,13.19639 -2.06242,81.77066 -0.28801,43.45 -0.62551,79.1125 -0.75,79.25 -0.12449,0.1375 -1.481,0.25 -3.01445,0.25 -2.34006,0 -9.42977,-6.65001 -44.11794,-41.38181 z M 191.30902,332.75 c -1.29191,-1.99611 -1.62436,-51.68264 -0.37399,-55.89433 0.77017,-2.59421 4.15017,-6.62837 11.72979,-14 5.85632,-5.69562 12.94001,-12.77763 15.74152,-15.7378 2.80151,-2.96017 8.00448,-7.85935 11.56214,-10.88707 l 6.46848,-5.50495 10.6378,0.6461 c 13.29386,0.80741 16.63717,-0.31788 20.49314,-6.8976 2.76497,-4.71807 3.66479,-7.85944 5.88091,-20.53104 1.97903,-11.31591 4.86567,-15.94232 18.5271,-29.69331 6.69362,-6.7375 12.47484,-12.24311 12.84716,-12.23469 2.80617,0.0635 3.05216,2.27905 3.22022,29.00368 0.11595,18.4383 -0.19852,28.42501 -0.95567,30.34986 C 305.45205,225.5268 196.66687,334 194.13253,334 c -1.10797,0 -2.37855,-0.5625 -2.82351,-1.25 z m 0.77768,-72.67525 c -2.08716,-1.32119 -1.87547,-26.67595 0.25636,-30.7038 1.78844,-3.37907 108.35159,-109.72734 110.878,-110.65442 3.84608,-1.41134 4.77992,1.6486 4.76233,15.6049 L 307.96678,147.5 293.8855,162 c -19.36505,19.94089 -21.85072,24.4147 -26.84283,48.31292 -1.41487,6.77325 -5.51781,12.13211 -9.97065,13.02268 -1.6186,0.32372 -5.46892,-0.0694 -8.55626,-0.87351 -7.00817,-1.8254 -9.39309,-1.83245 -13.64364,-0.0403 -1.94976,0.82206 -11.06175,9.25803 -21.6027,20 -10.02681,10.21804 -18.57681,18.57136 -19,18.56294 -0.42318,-0.008 -1.4054,-0.4179 -2.18272,-0.90994 z m -0.42003,-44.74142 C 191.3,214.96667 191,208.50446 191,200.97288 c 0,-12.68079 0.17156,-13.94453 2.31909,-17.08333 1.2755,-1.86425 26.1621,-27.35205 55.30356,-56.63955 C 284.6275,91.064713 302.27176,74 303.68111,74 c 3.91522,0 4.79634,2.59576 5.02151,14.793178 0.12426,6.731256 -0.23682,12.369872 -0.87104,13.602102 -0.5958,1.1576 -3.16414,4.18461 -5.70743,6.7267 -2.54328,2.54209 -6.32614,6.36709 -8.40635,8.5 -2.08021,2.13291 -5.56607,5.43091 -7.74636,7.32889 -2.1803,1.89798 -4.22113,4.26048 -4.53519,5.25 -0.31407,0.98952 -0.97295,1.79913 -1.46418,1.79913 -0.49124,0 -19.834,18.9 -42.98392,42 -23.14991,23.1 -42.66767,42 -43.37278,42 -0.70512,0 -1.58204,-0.3 -1.9487,-0.66667 z"
         id="path32" />
      <path
         style="fill:#f3e6d2"
         d="m 135.35006,301.75 c -22.6275,-22.6875 -41.637971,-42.23292 -42.245486,-43.43426 -0.776193,-1.5349 -1.098045,-23.53448 -1.082612,-74 0.02072,-67.74712 0.126907,-72.04681 1.874369,-75.89434 2.079935,-4.57956 5.681515,-7.80795 10.416149,-9.336837 1.75314,-0.566114 20.06252,-4.6733 40.68752,-9.12708 20.625,-4.45378 40.2,-8.686561 43.5,-9.40618 101.66138,-22.168916 110.54703,-23.932841 112.20553,-22.274346 1.18731,1.187313 1.38439,2.180538 0.71625,3.609638 C 300.9148,62.970978 274.625,89.982465 243,121.91212 c -31.625,31.92966 -58.0422,59.29906 -58.7049,60.8209 -0.90439,2.07689 -1.21614,22.10819 -1.25,80.31698 -0.0343,58.93241 -0.33319,77.83809 -1.2451,78.75 -0.66,0.66 -2.12453,1.2 -3.25452,1.2 -1.37458,0 -15.66995,-13.65153 -43.19542,-41.25 z m 55.95896,31 c -1.29191,-1.99611 -1.62436,-51.68264 -0.37399,-55.89433 0.77017,-2.59421 4.15017,-6.62837 11.72979,-14 5.85632,-5.69562 12.94001,-12.77763 15.74152,-15.7378 2.80151,-2.96017 8.00448,-7.85935 11.56214,-10.88707 l 6.46848,-5.50495 10.6378,0.6461 c 13.29386,0.80741 16.63717,-0.31788 20.49314,-6.8976 2.76497,-4.71807 3.66479,-7.85944 5.88091,-20.53104 1.97903,-11.31591 4.86567,-15.94232 18.5271,-29.69331 6.69362,-6.7375 12.47484,-12.24311 12.84716,-12.23469 2.80617,0.0635 3.05216,2.27905 3.22022,29.00368 0.11595,18.4383 -0.19852,28.42501 -0.95567,30.34986 C 305.45205,225.5268 196.66687,334 194.13253,334 c -1.10797,0 -2.37855,-0.5625 -2.82351,-1.25 z M 192,245.95034 c 0,-9.25497 0.40878,-13.84014 1.40575,-15.76807 0.77316,-1.49513 24.58358,-25.66028 52.91205,-53.70034 64.30131,-63.64667 57.28218,-57.05881 59.14604,-55.51194 1.22168,1.0139 1.52177,3.55295 1.46587,12.40245 -0.0387,6.12016 -0.37615,11.85149 -0.75,12.7363 -0.37384,0.88481 -6.7017,7.85981 -14.0619,15.5 -18.70826,19.41993 -21.36791,23.92518 -25.09261,42.50507 -1.13529,5.6632 -2.73667,11.32309 -3.55861,12.57753 -2.64619,4.0386 -6.01044,5.58262 -10.7033,4.91231 -12.54523,-1.79194 -15.45408,-1.81522 -18.85295,-0.15089 -1.87569,0.91847 -11.2941,9.74233 -20.92982,19.60859 C 203.34481,250.92761 194.68231,259 193.73052,259 192.17823,259 192,257.65597 192,245.95034 Z m -0.33333,-30.61701 C 191.3,214.96667 191,208.50446 191,200.97288 c 0,-12.68079 0.17156,-13.94453 2.31909,-17.08333 1.2755,-1.86425 26.1621,-27.35205 55.30356,-56.63955 C 284.6275,91.064713 302.27176,74 303.68111,74 c 3.91522,0 4.79634,2.59576 5.02151,14.793178 0.12426,6.731256 -0.23682,12.369872 -0.87104,13.602102 -0.5958,1.1576 -3.16414,4.18461 -5.70743,6.7267 -2.54328,2.54209 -6.32614,6.36709 -8.40635,8.5 -2.08021,2.13291 -5.56607,5.43091 -7.74636,7.32889 -2.1803,1.89798 -4.22113,4.26048 -4.53519,5.25 -0.31407,0.98952 -0.97295,1.79913 -1.46418,1.79913 -0.49124,0 -19.834,18.9 -42.98392,42 -23.14991,23.1 -42.66767,42 -43.37278,42 -0.70512,0 -1.58204,-0.3 -1.9487,-0.66667 z"
         id="path31" />
      <path
         style="fill:#f3d7cc"
         d="m 135.35006,301.75 c -22.6275,-22.6875 -41.637971,-42.23292 -42.245486,-43.43426 -0.776193,-1.5349 -1.098045,-23.53448 -1.082612,-74 0.02072,-67.74712 0.126907,-72.04681 1.874369,-75.89434 2.079935,-4.57956 5.681515,-7.80795 10.416149,-9.336837 1.75314,-0.566114 20.06252,-4.6733 40.68752,-9.12708 20.625,-4.45378 40.2,-8.686561 43.5,-9.40618 101.66138,-22.168916 110.54703,-23.932841 112.20553,-22.274346 1.18435,1.184347 1.38273,2.176971 0.71625,3.583866 C 300.9148,62.931032 274.625,89.933266 243,121.86579 c -31.625,31.93252 -58.0422,59.31353 -58.7049,60.84667 -0.9042,2.09189 -1.21615,22.14059 -1.25,80.33754 -0.0343,58.93241 -0.33319,77.83809 -1.2451,78.75 -0.66,0.66 -2.12453,1.2 -3.25452,1.2 -1.37458,0 -15.66995,-13.65153 -43.19542,-41.25 z M 192.2,332.8 c -0.87583,-0.87583 -1.20252,-8.77747 -1.20932,-29.25 l -0.009,-28.05 21.25932,-21.05364 c 12.45088,-12.33042 22.65834,-21.62132 24.63587,-22.42374 2.78126,-1.12855 4.66573,-1.15347 10.68899,-0.14139 15.82611,2.65926 22.23128,-3.44706 25.90759,-24.69878 2.48734,-14.37857 4.53902,-17.93528 18.4202,-31.93245 6.68166,-6.7375 12.76593,-12.25 13.52059,-12.25 0.75465,0 1.64525,0.7118 1.97909,1.58179 0.33385,0.86998 0.59711,13.13248 0.58503,27.25 -0.0197,22.96845 -0.21895,26.08893 -1.89482,29.66821 -1.2637,2.69898 -19.55907,21.64502 -56.24949,58.25 -29.90747,29.8375 -54.8398,54.25 -55.4055,54.25 -0.5657,0 -1.56855,-0.54 -2.22855,-1.2 z M 192,245.95034 c 0,-9.25497 0.40878,-13.84014 1.40575,-15.76807 0.77316,-1.49513 24.58358,-25.66028 52.91205,-53.70034 64.30131,-63.64667 57.28218,-57.05881 59.14604,-55.51194 1.22168,1.0139 1.52177,3.55295 1.46587,12.40245 -0.0387,6.12016 -0.37615,11.85149 -0.75,12.7363 -0.37384,0.88481 -6.7017,7.85981 -14.0619,15.5 -18.70826,19.41993 -21.36791,23.92518 -25.09261,42.50507 -1.13529,5.6632 -2.73667,11.32309 -3.55861,12.57753 -2.64619,4.0386 -6.01044,5.58262 -10.7033,4.91231 -12.54523,-1.79194 -15.45408,-1.81522 -18.85295,-0.15089 -1.87569,0.91847 -11.2941,9.74233 -20.92982,19.60859 C 203.34481,250.92761 194.68231,259 193.73052,259 192.17823,259 192,257.65597 192,245.95034 Z M 191.93639,214.25 c -0.83128,-9.80186 -0.97243,-17.01229 -0.43554,-22.25 l 0.66627,-6.5 55.16644,-55.2814 c 40.838,-40.923107 55.6859,-55.208318 57.16644,-55.000004 1.87067,0.263208 2.01813,1.151045 2.28041,13.730273 l 0.28041,13.448871 -56.26842,56.30113 C 219.84477,189.66449 193.95608,215 193.26199,215 c -0.69409,0 -1.29061,-0.3375 -1.3256,-0.75 z"
         id="path30" />
      <path
         style="fill:#f3d0a6"
         d="m 135.35006,301.75 c -22.6275,-22.6875 -41.637971,-42.23292 -42.245486,-43.43426 -0.776193,-1.5349 -1.098045,-23.53448 -1.082612,-74 0.02072,-67.74712 0.126907,-72.04681 1.874369,-75.89434 2.079935,-4.57956 5.681515,-7.80795 10.416149,-9.336837 1.75314,-0.566114 20.06252,-4.6733 40.68752,-9.12708 20.625,-4.45378 40.2,-8.686561 43.5,-9.40618 101.66138,-22.168916 110.54703,-23.932841 112.20553,-22.274346 1.18435,1.184347 1.38273,2.176971 0.71625,3.583866 C 300.9148,62.931032 274.625,89.933266 243,121.86579 c -31.625,31.93252 -58.0422,59.31353 -58.7049,60.84667 -0.9042,2.09189 -1.21615,22.14059 -1.25,80.33754 -0.0343,58.93241 -0.33319,77.83809 -1.2451,78.75 -0.66,0.66 -2.12453,1.2 -3.25452,1.2 -1.37458,0 -15.66995,-13.65153 -43.19542,-41.25 z m 57.31661,30.58333 C 192.3,331.96667 192,318.99716 192,303.5122 v -28.15447 l 20.75,-20.52143 c 11.4125,-11.28679 21.80803,-21.08248 23.10118,-21.7682 1.70534,-0.9043 5.1636,-1.05507 12.58978,-0.5489 8.21321,0.55981 10.81431,0.39846 13.14882,-0.81566 6.58395,-3.42411 9.64697,-8.89464 11.91379,-21.27788 2.96011,-16.17055 4.24613,-19.0697 12.26212,-27.64326 11.75857,-12.57644 18.44975,-18.87722 19.62976,-18.48442 1.21763,0.40533 2.16384,48.4529 1.07725,54.70202 -0.52005,2.99092 -8.63315,11.53624 -55.77843,58.75 -30.34343,30.3875 -55.66286,55.25 -56.2654,55.25 -0.60255,0 -1.39554,-0.3 -1.7622,-0.66667 z M 192,245.95034 c 0,-9.25497 0.40878,-13.84014 1.40575,-15.76807 0.77316,-1.49513 24.58358,-25.66028 52.91205,-53.70034 64.30131,-63.64667 57.28218,-57.05881 59.14604,-55.51194 1.22168,1.0139 1.52177,3.55295 1.46587,12.40245 -0.0387,6.12016 -0.37615,11.85149 -0.75,12.7363 -0.37384,0.88481 -6.7017,7.85981 -14.0619,15.5 -18.70826,19.41993 -21.36791,23.92518 -25.09261,42.50507 -1.13529,5.6632 -2.73667,11.32309 -3.55861,12.57753 -2.64619,4.0386 -6.01044,5.58262 -10.7033,4.91231 -12.54523,-1.79194 -15.45408,-1.81522 -18.85295,-0.15089 -1.87569,0.91847 -11.2941,9.74233 -20.92982,19.60859 C 203.34481,250.92761 194.68231,259 193.73052,259 192.17823,259 192,257.65597 192,245.95034 Z m 0.66667,-32.61701 c -0.36667,-0.36666 -0.66499,-6.10416 -0.66293,-12.75 0.003,-10.34415 0.29341,-12.55844 2.01628,-15.38428 2.20099,-3.61003 105.35051,-107.775976 108.2939,-109.361023 3.83046,-2.062738 4.68509,0.489404 4.69969,14.034418 L 307.02722,102.5 250.76475,158.25 C 219.8204,188.9125 194.23927,214 193.91781,214 c -0.32146,0 -0.88448,-0.3 -1.25114,-0.66667 z"
         id="path29" />
      <path
         style="fill:#a1d2f3"
         d="m 135.35006,301.75 c -22.6275,-22.6875 -41.637971,-42.23292 -42.245486,-43.43426 -0.776193,-1.5349 -1.098045,-23.53448 -1.082612,-74 0.02072,-67.74712 0.126907,-72.04681 1.874369,-75.89434 2.079935,-4.57956 5.681515,-7.80795 10.416149,-9.336837 1.75314,-0.566114 20.06252,-4.6733 40.68752,-9.12708 20.625,-4.45378 40.2,-8.686561 43.5,-9.40618 101.66138,-22.168916 110.54703,-23.932841 112.20553,-22.274346 1.18435,1.184347 1.38273,2.176971 0.71625,3.583866 C 300.9148,62.931032 274.625,89.933266 243,121.86579 c -31.625,31.93252 -58.0422,59.31353 -58.7049,60.84667 -0.9042,2.09189 -1.21615,22.14059 -1.25,80.33754 -0.0343,58.93241 -0.33319,77.83809 -1.2451,78.75 -0.66,0.66 -2.12453,1.2 -3.25452,1.2 -1.37458,0 -15.66995,-13.65153 -43.19542,-41.25 z m 57.87869,30.07875 C 192.3184,330.9184 192,323.67656 192,303.88179 c 0,-14.69502 0.25863,-27.39221 0.57474,-28.21597 0.95868,-2.49827 42.35207,-41.68749 45.15966,-42.75494 1.76419,-0.67074 4.97813,-0.63658 9.86981,0.10492 11.54139,1.74948 18.31081,-1.00858 22.46592,-9.15327 1.10789,-2.17163 3.07179,-9.25188 4.36424,-15.73388 1.29245,-6.48201 3.35574,-13.77518 4.58509,-16.20706 C 281.43619,187.14088 302.55203,165 304.69468,165 305.73762,165 306,170.67486 306,193.2314 v 28.2314 l -55.77125,55.79735 c -44.10255,44.12318 -56.02834,55.54026 -57,54.5686 z M 192,245.95034 c 0,-9.25497 0.40878,-13.84014 1.40575,-15.76807 0.77316,-1.49513 24.58358,-25.66028 52.91205,-53.70034 64.30131,-63.64667 57.28218,-57.05881 59.14604,-55.51194 1.22168,1.0139 1.52177,3.55295 1.46587,12.40245 -0.0387,6.12016 -0.37615,11.85149 -0.75,12.7363 -0.37384,0.88481 -6.7017,7.85981 -14.0619,15.5 -18.70826,19.41993 -21.36791,23.92518 -25.09261,42.50507 -1.13529,5.6632 -2.73667,11.32309 -3.55861,12.57753 -2.64619,4.0386 -6.01044,5.58262 -10.7033,4.91231 -12.54523,-1.79194 -15.45408,-1.81522 -18.85295,-0.15089 -1.87569,0.91847 -11.2941,9.74233 -20.92982,19.60859 C 203.34481,250.92761 194.68231,259 193.73052,259 192.17823,259 192,257.65597 192,245.95034 Z m 1,-45.90985 v -13.12617 l 4.41338,-4.70716 C 210.64118,168.09883 303.24124,76.5 304.27597,76.5 c 0.88597,0 1.29714,3.452308 1.48875,12.5 l 0.26472,12.5 -55.46996,55.48508 c -30.50848,30.5168 -55.94011,55.6418 -56.51472,55.83333 C 193.35379,213.04874 193,208.7217 193,200.04049 Z"
         id="path28" />
      <path
         style="fill:#cac9d2"
         d="m 135.35006,301.75 c -22.6275,-22.6875 -41.637971,-42.23292 -42.245486,-43.43426 -0.776193,-1.5349 -1.098045,-23.53448 -1.082612,-74 0.02072,-67.74712 0.126907,-72.04681 1.874369,-75.89434 2.079935,-4.57956 5.681515,-7.80795 10.416149,-9.336837 1.75314,-0.566114 20.06252,-4.6733 40.68752,-9.12708 20.625,-4.45378 40.2,-8.686561 43.5,-9.40618 101.66138,-22.168916 110.54703,-23.932841 112.20553,-22.274346 1.18435,1.184347 1.38273,2.176971 0.71625,3.583866 C 300.9148,62.931032 274.625,89.933266 243,121.86579 c -31.625,31.93252 -58.0422,59.31353 -58.7049,60.84667 -0.9042,2.09189 -1.21615,22.14059 -1.25,80.33754 -0.0343,58.93241 -0.33319,77.83809 -1.2451,78.75 -0.66,0.66 -2.12453,1.2 -3.25452,1.2 -1.37458,0 -15.66995,-13.65153 -43.19542,-41.25 z m 57.87869,30.07875 C 192.3184,330.9184 192,323.67656 192,303.88179 c 0,-14.69502 0.25863,-27.39221 0.57474,-28.21597 0.95868,-2.49827 42.35207,-41.68749 45.15966,-42.75494 1.76419,-0.67074 4.97813,-0.63658 9.86981,0.10492 11.54139,1.74948 18.31081,-1.00858 22.46592,-9.15327 1.10789,-2.17163 3.07179,-9.25188 4.36424,-15.73388 1.29245,-6.48201 3.35574,-13.77518 4.58509,-16.20706 C 281.43619,187.14088 302.55203,165 304.69468,165 305.73762,165 306,170.67486 306,193.2314 v 28.2314 l -55.77125,55.79735 c -44.10255,44.12318 -56.02834,55.54026 -57,54.5686 z m -0.0582,-87.98519 0.32947,-13.15644 55,-54.32389 c 30.25,-29.87814 55.3375,-54.33274 55.75,-54.34356 0.4125,-0.0108 0.75,5.40448 0.75,12.034 v 12.05366 l -12.68278,13.19634 c -20.31427,21.13684 -22.9534,25.64149 -26.75093,45.66046 -2.8638,15.09675 -5.89311,17.53434 -18.03368,14.51112 -11.24757,-2.80084 -12.3914,-2.14482 -34.02219,19.51283 C 203.61615,248.89464 194.91789,257 194.18095,257 c -1.06865,0 -1.27319,-2.6633 -1.01042,-13.15644 z M 193,200.04049 v -13.12617 l 4.41338,-4.70716 C 210.64118,168.09883 303.24124,76.5 304.27597,76.5 c 0.88597,0 1.29714,3.452308 1.48875,12.5 l 0.26472,12.5 -55.46996,55.48508 c -30.50848,30.5168 -55.94011,55.6418 -56.51472,55.83333 C 193.35379,213.04874 193,208.7217 193,200.04049 Z"
         id="path27" />
      <path
         style="fill:#efb093"
         d="M 135.85459,301.27965 C 113.49962,278.85084 94.712122,259.51708 94.104595,258.31574 93.328983,256.78202 93,234.73117 93,184.27763 v -71.85385 l 2.25,-4.43901 c 1.255542,-2.47705 3.666159,-5.25143 5.45411,-6.27715 1.80805,-1.03723 24.24724,-6.390769 51.5,-12.286856 C 178.76685,83.673963 203.425,78.337422 207,77.561784 290.23086,59.503876 298.19002,57.91281 299.56865,59.05697 300.35589,59.710326 301,60.739559 301,61.344155 c 0,0.604596 -26.04876,27.211996 -57.88613,59.127555 -31.83738,31.91556 -58.49988,59.15329 -59.25,60.52829 -1.10674,2.02868 -1.45813,17.39379 -1.86387,81.5 l -0.5,79 -2.5,0.27965 c -2.10306,0.23524 -8.95351,-6.19518 -43.14541,-40.5 z m 57.37416,30.5491 C 192.3184,330.9184 192,323.67656 192,303.88179 c 0,-14.69502 0.25863,-27.39221 0.57474,-28.21597 0.95868,-2.49827 42.35207,-41.68749 45.15966,-42.75494 1.76419,-0.67074 4.97813,-0.63658 9.86981,0.10492 11.54139,1.74948 18.31081,-1.00858 22.46592,-9.15327 1.10789,-2.17163 3.07179,-9.25188 4.36424,-15.73388 1.29245,-6.48201 3.35574,-13.77518 4.58509,-16.20706 C 281.43619,187.14088 302.55203,165 304.69468,165 305.73762,165 306,170.67486 306,193.2314 v 28.2314 l -55.77125,55.79735 c -44.10255,44.12318 -56.02834,55.54026 -57,54.5686 z m -0.0582,-87.98519 0.32947,-13.15644 55,-54.32389 c 30.25,-29.87814 55.3375,-54.33274 55.75,-54.34356 0.4125,-0.0108 0.75,5.40448 0.75,12.034 v 12.05366 l -12.68278,13.19634 c -20.31427,21.13684 -22.9534,25.64149 -26.75093,45.66046 -2.8638,15.09675 -5.89311,17.53434 -18.03368,14.51112 -11.24757,-2.80084 -12.3914,-2.14482 -34.02219,19.51283 C 203.61615,248.89464 194.91789,257 194.18095,257 c -1.06865,0 -1.27319,-2.6633 -1.01042,-13.15644 z M 193,200.04049 v -13.12617 l 4.41338,-4.70716 C 210.64118,168.09883 303.24124,76.5 304.27597,76.5 c 0.88597,0 1.29714,3.452308 1.48875,12.5 l 0.26472,12.5 -55.46996,55.48508 c -30.50848,30.5168 -55.94011,55.6418 -56.51472,55.83333 C 193.35379,213.04874 193,208.7217 193,200.04049 Z"
         id="path26" />
      <path
         style="fill:#66c3f8"
         d="M 135.85459,301.27965 C 113.49962,278.85084 94.712122,259.51708 94.104595,258.31574 93.328983,256.78202 93,234.73117 93,184.27763 v -71.85385 l 2.25,-4.43901 c 1.255542,-2.47705 3.666159,-5.25143 5.45411,-6.27715 1.80805,-1.03723 24.24724,-6.390769 51.5,-12.286856 C 178.76685,83.673963 203.425,78.337422 207,77.561784 290.23086,59.503876 298.19002,57.91281 299.56865,59.05697 300.35589,59.710326 301,60.739559 301,61.344155 c 0,0.604596 -26.04876,27.211996 -57.88613,59.127555 -31.83738,31.91556 -58.49988,59.15329 -59.25,60.52829 -1.10674,2.02868 -1.45813,17.39379 -1.86387,81.5 l -0.5,79 -2.5,0.27965 c -2.10306,0.23524 -8.95351,-6.19518 -43.14541,-40.5 z m 57.85205,30.09366 C 193.31799,330.98466 193,318.28324 193,303.14795 v -27.51872 l 19.60941,-19.03867 c 10.78518,-10.47127 20.99382,-20.06006 22.68587,-21.30841 2.89988,-2.13946 3.71147,-2.23509 14.14059,-1.66611 10.51841,0.57385 11.23523,0.48629 14.53301,-1.77507 5.24984,-3.59994 8.70485,-10.12713 10.50233,-19.84097 2.29035,-12.37732 4.41152,-19.06198 7.24266,-22.82449 1.37585,-1.82847 6.97447,-7.89542 12.44138,-13.4821 7.91042,-8.08374 10.13116,-9.85501 10.87697,-8.67551 1.24689,1.97194 1.22736,47.51411 -0.0223,51.9821 -0.76651,2.74056 -12.87151,15.3885 -55.78779,58.28997 -30.14487,30.13449 -55.12686,54.47199 -55.51551,54.08334 z m -0.53611,-87.52975 0.32947,-13.15644 55,-54.32389 c 30.25,-29.87814 55.3375,-54.33274 55.75,-54.34356 0.4125,-0.0108 0.75,5.40448 0.75,12.034 v 12.05366 l -12.68278,13.19634 c -20.31427,21.13684 -22.9534,25.64149 -26.75093,45.66046 -2.8638,15.09675 -5.89311,17.53434 -18.03368,14.51112 -11.24757,-2.80084 -12.3914,-2.14482 -34.02219,19.51283 C 203.61615,248.89464 194.91789,257 194.18095,257 c -1.06865,0 -1.27319,-2.6633 -1.01042,-13.15644 z M 194,199.11671 v -12.04995 l 4.6552,-5.28338 c 4.29288,-4.87217 73.70039,-74.97995 95.15341,-96.113422 5.11973,-5.043477 9.84473,-9.169958 10.5,-9.169958 0.84426,0 1.27268,3.681069 1.4704,12.634028 l 0.27901,12.634032 -55.03606,54.36597 C 220.75212,186.03531 195.53906,210.65 194.99294,210.83333 194.37218,211.04173 194,206.65007 194,199.11671 Z"
         id="path25" />
      <path
         style="fill:#5dc3fb"
         d="M 135.85459,301.27965 C 113.49962,278.85084 94.712122,259.51708 94.104595,258.31574 93.328983,256.78202 93,234.73117 93,184.27763 v -71.85385 l 2.25,-4.43901 c 1.255542,-2.47705 3.666159,-5.25143 5.45411,-6.27715 1.80805,-1.03723 24.24724,-6.390769 51.5,-12.286856 C 178.76685,83.673963 203.425,78.337422 207,77.561784 290.23086,59.503876 298.19002,57.91281 299.56865,59.05697 300.35589,59.710326 301,60.739559 301,61.344155 c 0,0.604596 -26.04876,27.211996 -57.88613,59.127555 -31.83738,31.91556 -58.49988,59.15329 -59.25,60.52829 -1.10674,2.02868 -1.45813,17.39379 -1.86387,81.5 l -0.5,79 -2.5,0.27965 c -2.10306,0.23524 -8.95351,-6.19518 -43.14541,-40.5 z m 57.85205,30.09366 C 193.31799,330.98466 193,318.28324 193,303.14795 v -27.51872 l 19.60941,-19.03867 c 10.78518,-10.47127 20.99382,-20.06006 22.68587,-21.30841 2.89988,-2.13946 3.71147,-2.23509 14.14059,-1.66611 10.51841,0.57385 11.23523,0.48629 14.53301,-1.77507 5.24984,-3.59994 8.70485,-10.12713 10.50233,-19.84097 2.29035,-12.37732 4.41152,-19.06198 7.24266,-22.82449 1.37585,-1.82847 6.97447,-7.89542 12.44138,-13.4821 7.91042,-8.08374 10.13116,-9.85501 10.87697,-8.67551 1.24689,1.97194 1.22736,47.51411 -0.0223,51.9821 -0.76651,2.74056 -12.87151,15.3885 -55.78779,58.28997 -30.14487,30.13449 -55.12686,54.47199 -55.51551,54.08334 z M 194,244.91055 c 0,-11.46973 0.19003,-12.76941 2.26136,-15.46627 1.80019,-2.34385 33.6953,-33.89003 38.36398,-37.94428 0.63335,-0.55 6.07838,-5.725 12.10007,-11.5 13.30186,-12.75693 17.00948,-16 18.29187,-16 0.5405,0 0.98272,-0.57598 0.98272,-1.27995 0,-2.1963 6.6687,-7.72005 9.32025,-7.72005 1.91794,0 2.38281,-0.41951 2.01661,-1.81986 -0.57626,-2.2036 2.05495,-4.6275 4.15041,-3.8234 1.06873,0.41011 1.51586,-0.0707 1.52338,-1.63812 0.0134,-2.79366 6.00341,-8.71862 8.81433,-8.71862 1.37843,0 1.92947,-0.47632 1.58612,-1.37106 -0.68234,-1.77815 2.43969,-4.90018 4.21784,-4.21784 0.96939,0.37199 1.37106,-0.33326 1.37106,-2.4073 0,-1.84595 0.69587,-3.30585 1.87708,-3.93802 1.65966,-0.88822 1.95296,-0.53013 2.53207,3.09141 0.46295,2.89519 0.20908,4.77652 -0.86597,6.41726 -0.93867,1.43259 -1.14237,2.55523 -0.53206,2.93242 1.22325,0.75601 1.31585,4.49313 0.11132,4.49313 -0.48265,0 -1.43364,-0.67005 -2.1133,-1.48899 -1.46958,-1.77073 -3.1573,-1.06069 -2.36799,0.99623 0.32697,0.85207 -0.91971,2.83291 -3.04367,4.83605 -4.7292,4.46021 -4.65155,6.67117 0.0968,2.75716 2.03187,-1.67484 3.84246,-2.89701 4.02354,-2.71594 0.90318,0.90319 -1.35301,3.7824 -6.33312,8.08191 l -5.51418,4.7606 -2.32978,-2.18872 c -2.98237,-2.80179 -4.14427,-1.07524 -1.52082,2.25993 l 1.99269,2.5333 -2.75632,3.28285 c -1.51598,1.80557 -3.6929,4.2221 -4.83761,5.37007 -5.8774,5.89415 -10.08928,16.91741 -13.57014,35.51555 -0.88132,4.70884 -1.97135,7.2578 -3.95564,9.25 -3.18875,3.20146 -4.80776,3.33812 -12.89822,1.08877 -10.27423,-2.85648 -11.48175,-2.1418 -33.74471,19.9724 L 194,257.43254 Z M 279.2,164.8 c -0.64167,-0.64167 -1.49863,-0.8347 -1.90437,-0.42896 -0.40574,0.40574 -0.0888,1.13877 0.70437,1.62896 1.86759,1.15423 2.71091,0.31091 1.2,-1.2 z m 9.25216,-10.21132 c -1.06156,-0.77623 -2.27991,-1.19514 -2.70744,-0.93091 -1.34132,0.82898 0.27737,2.34223 2.50543,2.34223 2.08072,0 2.08559,-0.034 0.20201,-1.41132 z M 194,199.11671 v -12.04995 l 4.6552,-5.28338 c 4.29288,-4.87217 73.70039,-74.97995 95.15341,-96.113422 5.11973,-5.043477 9.84473,-9.169958 10.5,-9.169958 0.84426,0 1.27268,3.681069 1.4704,12.634028 l 0.27901,12.634032 -55.03606,54.36597 C 220.75212,186.03531 195.53906,210.65 194.99294,210.83333 194.37218,211.04173 194,206.65007 194,199.11671 Z"
         id="path24" />
      <path
         style="fill:#f4c75e"
         d="M 135.85459,301.27965 C 113.49962,278.85084 94.712122,259.51708 94.104595,258.31574 93.328983,256.78202 93,234.73117 93,184.27763 v -71.85385 l 2.25,-4.43901 c 1.255542,-2.47705 3.666159,-5.25143 5.45411,-6.27715 1.80805,-1.03723 24.24724,-6.390769 51.5,-12.286856 C 178.76685,83.673963 203.425,78.337422 207,77.561784 290.23086,59.503876 298.19002,57.91281 299.56865,59.05697 300.35589,59.710326 301,60.739559 301,61.344155 c 0,0.604596 -26.04876,27.211996 -57.88613,59.127555 -31.83738,31.91556 -58.49988,59.15329 -59.25,60.52829 -1.10674,2.02868 -1.45813,17.39379 -1.86387,81.5 l -0.5,79 -2.5,0.27965 c -2.10306,0.23524 -8.95351,-6.19518 -43.14541,-40.5 z m 57.85205,30.09366 C 193.31799,330.98466 193,318.28324 193,303.14795 v -27.51872 l 19.60941,-19.03867 c 10.78518,-10.47127 20.99382,-20.06006 22.68587,-21.30841 2.89988,-2.13946 3.71147,-2.23509 14.14059,-1.66611 10.51841,0.57385 11.23523,0.48629 14.53301,-1.77507 5.24984,-3.59994 8.70485,-10.12713 10.50233,-19.84097 2.29035,-12.37732 4.41152,-19.06198 7.24266,-22.82449 1.37585,-1.82847 6.97447,-7.89542 12.44138,-13.4821 7.91042,-8.08374 10.13116,-9.85501 10.87697,-8.67551 1.24689,1.97194 1.22736,47.51411 -0.0223,51.9821 -0.76651,2.74056 -12.87151,15.3885 -55.78779,58.28997 -30.14487,30.13449 -55.12686,54.47199 -55.51551,54.08334 z M 194,244.91055 c 0,-11.46973 0.19003,-12.76941 2.26136,-15.46627 3.37953,-4.40015 45.09339,-44.80966 55.04946,-53.32812 5.36532,-4.5906 6.22959,-4.99444 4.74268,-2.21612 -0.77994,1.45732 -0.65061,2.04059 0.55506,2.50324 0.86456,0.33177 2.01126,0.33169 2.54822,-1.7e-4 1.24514,-0.76955 3.77234,2.61802 3.15442,4.22831 -0.41098,1.07098 3.37875,3.94689 4.6888,3.55819 1.77122,-0.52554 -3.30916,27.99965 -5.62907,31.60593 -2.68066,4.16706 -5.6607,4.7742 -13.47952,2.74626 -11.47354,-2.97585 -12.10727,-2.61419 -34.64141,19.76937 L 194,257.43254 Z m 0,-45.79384 v -12.04995 l 4.6552,-5.28338 c 4.29288,-4.87217 73.70039,-74.97995 95.15341,-96.113422 5.11973,-5.043477 9.84473,-9.169958 10.5,-9.169958 0.84426,0 1.27268,3.681069 1.4704,12.634028 l 0.27901,12.634032 -55.03606,54.36597 C 220.75212,186.03531 195.53906,210.65 194.99294,210.83333 194.37218,211.04173 194,206.65007 194,199.11671 Z"
         id="path23" />
      <path
         style="fill:#51b1f7"
         d="M 135.85459,301.27965 C 113.49962,278.85084 94.712122,259.51708 94.104595,258.31574 93.328983,256.78202 93,234.73117 93,184.27763 v -71.85385 l 2.25,-4.43901 c 1.255542,-2.47705 3.666159,-5.25143 5.45411,-6.27715 1.80805,-1.03723 24.24724,-6.390769 51.5,-12.286856 C 178.76685,83.673963 203.425,78.337422 207,77.561784 290.23086,59.503876 298.19002,57.91281 299.56865,59.05697 300.35589,59.710326 301,60.739559 301,61.344155 c 0,0.604596 -26.04876,27.211996 -57.88613,59.127555 -31.83738,31.91556 -58.49988,59.15329 -59.25,60.52829 -1.10674,2.02868 -1.45813,17.39379 -1.86387,81.5 l -0.5,79 -2.5,0.27965 c -2.10306,0.23524 -8.95351,-6.19518 -43.14541,-40.5 z m 57.85205,30.09366 C 193.31799,330.98466 193,318.28324 193,303.14795 v -27.51872 l 19.60941,-19.03867 c 10.78518,-10.47127 20.99382,-20.06006 22.68587,-21.30841 2.89988,-2.13946 3.71147,-2.23509 14.14059,-1.66611 10.51841,0.57385 11.23523,0.48629 14.53301,-1.77507 5.24984,-3.59994 8.70485,-10.12713 10.50233,-19.84097 2.29035,-12.37732 4.41152,-19.06198 7.24266,-22.82449 1.37585,-1.82847 6.97447,-7.89542 12.44138,-13.4821 7.91042,-8.08374 10.13116,-9.85501 10.87697,-8.67551 1.24689,1.97194 1.22736,47.51411 -0.0223,51.9821 -0.76651,2.74056 -12.87151,15.3885 -55.78779,58.28997 -30.14487,30.13449 -55.12686,54.47199 -55.51551,54.08334 z M 194,244.91055 c 0,-11.46973 0.19003,-12.76941 2.26136,-15.46627 3.37953,-4.40015 45.09339,-44.80966 55.04946,-53.32812 5.36532,-4.5906 6.22959,-4.99444 4.74268,-2.21612 -0.77994,1.45732 -0.65061,2.04059 0.55506,2.50324 0.86456,0.33177 2.01126,0.33169 2.54822,-1.7e-4 1.24514,-0.76955 3.77234,2.61802 3.15442,4.22831 -0.41098,1.07098 3.37875,3.94689 4.6888,3.55819 1.77122,-0.52554 -3.30916,27.99965 -5.62907,31.60593 -2.68066,4.16706 -5.6607,4.7742 -13.47952,2.74626 -11.47354,-2.97585 -12.10727,-2.61419 -34.64141,19.76937 L 194,257.43254 Z M 193.997,198.75 193.994,186.5 248.74238,132.34275 C 278.85435,102.55626 303.83062,78.395317 304.24556,78.651765 304.6605,78.908213 305,83.898363 305,89.740988 v 10.622952 l -30.24707,30.56803 C 258.11705,147.74439 233.49846,172.6375 220.04496,186.25 206.59146,199.8625 195.22764,211 194.79202,211 c -0.43561,0 -0.79329,-5.5125 -0.79484,-12.25 z"
         id="path22" />
      <path
         style="fill:#f39c57"
         d="M 135.85459,301.27965 C 113.49962,278.85084 94.712122,259.51708 94.104595,258.31574 93.328983,256.78202 93,234.73117 93,184.27763 v -71.85385 l 2.25,-4.43901 c 1.255542,-2.47705 3.666159,-5.25143 5.45411,-6.27715 1.80805,-1.03723 24.24724,-6.390769 51.5,-12.286856 C 178.76685,83.673963 203.425,78.337422 207,77.561784 290.23086,59.503876 298.19002,57.91281 299.56865,59.05697 300.35589,59.710326 301,60.739559 301,61.344155 c 0,0.604596 -26.04876,27.211996 -57.88613,59.127555 -31.83738,31.91556 -58.49988,59.15329 -59.25,60.52829 -1.10674,2.02868 -1.45813,17.39379 -1.86387,81.5 l -0.5,79 -2.5,0.27965 c -2.10306,0.23524 -8.95351,-6.19518 -43.14541,-40.5 z m 57.85205,30.09366 C 193.31799,330.98466 193,318.28324 193,303.14795 v -27.51872 l 19.60941,-19.03867 c 10.78518,-10.47127 20.99382,-20.06006 22.68587,-21.30841 2.89988,-2.13946 3.71147,-2.23509 14.14059,-1.66611 10.51841,0.57385 11.23523,0.48629 14.53301,-1.77507 5.24984,-3.59994 8.70485,-10.12713 10.50233,-19.84097 2.29035,-12.37732 4.41152,-19.06198 7.24266,-22.82449 1.37585,-1.82847 6.97447,-7.89542 12.44138,-13.4821 7.91042,-8.08374 10.13116,-9.85501 10.87697,-8.67551 1.24689,1.97194 1.22736,47.51411 -0.0223,51.9821 -0.76651,2.74056 -12.87151,15.3885 -55.78779,58.28997 -30.14487,30.13449 -55.12686,54.47199 -55.51551,54.08334 z m 0.55206,-88.12331 0.55591,-11.75 11.3427,-10.83815 c 13.40355,-12.80735 18.03974,-16.57069 18.54536,-15.05385 0.2019,0.60572 1.4764,0.88926 2.83222,0.63008 2.53864,-0.48529 2.57449,-0.4231 2.87859,4.99331 0.0843,1.50226 1.01925,3.36455 2.07758,4.13842 1.85175,1.35403 1.81155,1.47715 -1.06718,3.26861 -1.64528,1.02387 -4.9754,4.11158 -7.40025,6.86158 -7.42688,8.42272 -28.43787,29.5 -29.40723,29.5 -0.53118,0 -0.68091,-4.91839 -0.3577,-11.75 z m -0.26152,-44.5 -0.003,-12.25 54.74838,-54.15725 c 30.11179,-29.78649 55.08806,-53.947433 55.503,-53.690985 C 304.6605,78.908213 305,83.898363 305,89.740988 v 10.622952 l -30.24707,30.56803 C 258.11705,147.74439 233.49846,172.6375 220.04496,186.25 206.59146,199.8625 195.22764,211 194.79202,211 c -0.43561,0 -0.79329,-5.5125 -0.79484,-12.25 z"
         id="path21" />
      <path
         style="fill:#f8c11d"
         d="M 135.85459,301.27965 C 113.49962,278.85084 94.712122,259.51708 94.104595,258.31574 93.328983,256.78202 93,234.73117 93,184.27763 v -71.85385 l 2.25,-4.43901 c 1.255542,-2.47705 3.666159,-5.25143 5.45411,-6.27715 1.80805,-1.03723 24.24724,-6.390769 51.5,-12.286856 C 178.76685,83.673963 203.425,78.337422 207,77.561784 290.23086,59.503876 298.19002,57.91281 299.56865,59.05697 300.35589,59.710326 301,60.739559 301,61.344155 c 0,0.604596 -26.04876,27.211996 -57.88613,59.127555 -31.83738,31.91556 -58.49988,59.15329 -59.25,60.52829 -1.10674,2.02868 -1.45813,17.39379 -1.86387,81.5 l -0.5,79 -2.5,0.27965 c -2.10306,0.23524 -8.95351,-6.19518 -43.14541,-40.5 z M 193,303.92576 v -27.07423 l 5.75,-6.06078 c 3.1625,-3.33342 13.1067,-13.01531 22.09822,-21.51529 l 16.34822,-15.45453 10.29656,0.70181 c 12.28771,0.83754 16.07816,-0.13136 20.58211,-5.26107 4.21414,-4.79964 5.42088,-7.93663 7.95435,-20.67793 1.17337,-5.9011 2.82099,-12.38403 3.66137,-14.40651 C 281.11642,190.74639 302.40874,168 304.19468,168 c 1.35372,0 0.89237,49.11179 -0.48978,52.13877 C 302.18078,223.47664 196.07932,331 194.30971,331 193.26235,331 193,325.57675 193,303.92576 Z m 1.2587,-60.67576 0.55591,-11.75 11.3427,-10.83815 c 13.40355,-12.80735 18.03974,-16.57069 18.54536,-15.05385 0.2019,0.60572 1.4764,0.88926 2.83222,0.63008 2.53864,-0.48529 2.57449,-0.4231 2.87859,4.99331 0.0843,1.50226 1.01925,3.36455 2.07758,4.13842 1.85175,1.35403 1.81155,1.47715 -1.06718,3.26861 -1.64528,1.02387 -4.9754,4.11158 -7.40025,6.86158 -7.42688,8.42272 -28.43787,29.5 -29.40723,29.5 -0.53118,0 -0.68091,-4.91839 -0.3577,-11.75 z M 198,191.5 c 0,-0.825 0.3949,-1.5 0.87756,-1.5 0.48265,0 1.43775,0.675 2.12244,1.5 1.04007,1.2532 0.89568,1.5 -0.87756,1.5 C 198.90249,193 198,192.36218 198,191.5 Z m 5.15713,-6.05449 c -0.90815,-1.99316 -0.87387,-3.10804 0.15598,-5.07357 1.17429,-2.24122 1.46393,-2.34551 2.62583,-0.94551 0.71827,0.86546 2.1027,1.57357 3.07652,1.57357 2.23349,0 3.34501,-2.6477 1.4214,-3.38586 -2.10945,-0.80947 -1.75035,-3.2989 0.56314,-3.90389 1.1,-0.28766 2,-1.28126 2,-2.20801 0,-0.92675 3.4875,-5.31958 7.75,-9.76184 4.2625,-4.44227 9.55,-9.9741 11.75,-12.29295 17.10182,-18.02572 70.94623,-71.2897 71.63576,-70.863544 0.47533,0.293771 0.88012,5.34507 0.89953,11.225111 l 0.0353,10.690983 -40.145,39.75 C 242.84581,162.1125 224.15493,180 223.39028,180 222.62563,180 222,180.40241 222,180.89424 222,182.30903 216.33324,188 214.92448,188 c -0.77122,0 -0.41594,-0.91241 0.90121,-2.31445 C 217.02156,184.4126 218,182.8063 218,182.116 c 0,-2.10605 -4.4243,-0.78855 -5.48713,1.634 -0.59407,1.3541 -1.86465,2.25 -3.19098,2.25 -1.21212,0 -2.48197,0.45 -2.82189,1 -1.02108,1.65214 -2.11324,1.14427 -3.34287,-1.55449 z"
         id="path20" />
      <path
         style="fill:#f9ad2d"
         d="M 135.85459,301.27965 C 113.49962,278.85084 94.712122,259.51708 94.104595,258.31574 93.328983,256.78202 93,234.73117 93,184.27763 v -71.85385 l 2.25,-4.43901 c 1.255542,-2.47705 3.666159,-5.25143 5.45411,-6.27715 1.80805,-1.03723 24.24724,-6.390769 51.5,-12.286856 C 178.76685,83.673963 203.425,78.337422 207,77.561784 290.23086,59.503876 298.19002,57.91281 299.56865,59.05697 300.35589,59.710326 301,60.739559 301,61.344155 c 0,0.604596 -26.04876,27.211996 -57.88613,59.127555 -31.83738,31.91556 -58.49988,59.15329 -59.25,60.52829 -1.10674,2.02868 -1.45813,17.39379 -1.86387,81.5 l -0.5,79 -2.5,0.27965 c -2.10306,0.23524 -8.95351,-6.19518 -43.14541,-40.5 z M 193,303.92576 v -27.07423 l 5.75,-6.06078 c 3.1625,-3.33342 13.1067,-13.01531 22.09822,-21.51529 l 16.34822,-15.45453 10.29656,0.70181 c 12.28771,0.83754 16.07816,-0.13136 20.58211,-5.26107 4.21414,-4.79964 5.42088,-7.93663 7.95435,-20.67793 1.17337,-5.9011 2.82099,-12.38403 3.66137,-14.40651 C 281.11642,190.74639 302.40874,168 304.19468,168 c 1.35372,0 0.89237,49.11179 -0.48978,52.13877 C 302.18078,223.47664 196.07932,331 194.30971,331 193.26235,331 193,325.57675 193,303.92576 Z m 1.2587,-60.67576 0.55591,-11.75 11.3427,-10.83815 c 13.40355,-12.80735 18.03974,-16.57069 18.54536,-15.05385 0.2019,0.60572 1.4764,0.88926 2.83222,0.63008 2.53864,-0.48529 2.57449,-0.4231 2.87859,4.99331 0.0843,1.50226 1.01925,3.36455 2.07758,4.13842 1.85175,1.35403 1.81155,1.47715 -1.06718,3.26861 -1.64528,1.02387 -4.9754,4.11158 -7.40025,6.86158 -7.42688,8.42272 -28.43787,29.5 -29.40723,29.5 -0.53118,0 -0.68091,-4.91839 -0.3577,-11.75 z M 198,191.5 c 0,-0.825 0.3949,-1.5 0.87756,-1.5 0.48265,0 1.43775,0.675 2.12244,1.5 1.04007,1.2532 0.89568,1.5 -0.87756,1.5 C 198.90249,193 198,192.36218 198,191.5 Z m 5.15713,-6.05449 c -0.90815,-1.99316 -0.87387,-3.10804 0.15598,-5.07357 1.17429,-2.24122 1.46393,-2.34551 2.62583,-0.94551 0.71827,0.86546 2.1027,1.57357 3.07652,1.57357 2.23349,0 3.34501,-2.6477 1.4214,-3.38586 -2.10945,-0.80947 -1.75035,-3.2989 0.56314,-3.90389 1.1,-0.28766 2,-1.28126 2,-2.20801 0,-1.83224 4.54461,-6.71347 36.90847,-39.64224 11.77466,-11.98019 21.69614,-21.60436 22.04774,-21.38706 0.35161,0.2173 1.2928,-0.0677 2.09154,-0.63326 1.13127,-0.80106 1.01021,-0.88555 -0.54775,-0.38229 -1.11606,0.36051 0.86003,-2.24961 4.47111,-5.90567 C 281.53022,99.948273 284.52559,97 284.62749,97 c 0.1019,0 -0.0674,0.966308 -0.37627,2.147352 -0.50697,1.938638 -0.27918,2.076858 2.34362,1.422088 C 290.00192,99.718876 293,97.26188 293,95.320262 c 0,-0.75337 1.0125,-1.755725 2.25,-2.227456 1.2375,-0.471731 3.4875,-2.096956 5,-3.611613 2.1516,-2.154666 2.75,-2.387956 2.75,-1.072102 0,0.925 -1.10549,2.787309 -2.45665,4.138464 -2.91978,2.91978 -3.1701,3.894983 -2.13086,8.301285 0.53487,2.26778 0.39401,3.72045 -0.43633,4.5 -0.92733,0.87061 -1.33786,0.84653 -1.68449,-0.0988 -0.63766,-1.73906 -3.23328,-1.56575 -3.93493,0.26273 -0.91701,2.3897 1.55271,4.76011 3.52594,3.38415 0.88953,-0.62028 -14.76296,15.12417 -34.78331,34.98767 C 241.07903,163.74805 224.09153,180 223.34937,180 222.60722,180 222,180.40241 222,180.89424 222,182.30903 216.33324,188 214.92448,188 c -0.77122,0 -0.41594,-0.91241 0.90121,-2.31445 C 217.02156,184.4126 218,182.8063 218,182.116 c 0,-2.10605 -4.4243,-0.78855 -5.48713,1.634 -0.59407,1.3541 -1.86465,2.25 -3.19098,2.25 -1.21212,0 -2.48197,0.45 -2.82189,1 -1.02108,1.65214 -2.11324,1.14427 -3.34287,-1.55449 z m 81.40218,-67.34955 c -1.08984,-1.76339 -3.86595,-1.33744 -3.1663,0.48583 0.33385,0.86998 0.60699,2.09141 0.60699,2.71428 0,0.6432 0.69921,0.43329 1.61832,-0.48582 0.89008,-0.89008 1.31353,-2.11151 0.94099,-2.71429 z m 5.18124,-7.67935 C 288.58488,109.08748 287.56396,108 287.47184,108 c -0.0921,0 -0.20586,1.35 -0.25278,3 -0.0469,1.65 0.36117,3 0.90684,3 0.54567,0 0.66322,0.5625 0.26122,1.25 -0.402,0.6875 0.21084,0.42498 1.36187,-0.58339 l 2.09277,-1.83338 z M 284,103.25945 c 0,-1.85759 -0.57671,-1.55441 -2.43341,1.27926 -1.62435,2.47908 -1.61531,2.50866 0.38499,1.25945 C 283.07821,105.09457 284,103.95215 284,103.25945 Z m 17.07029,-3.950433 C 301.10894,98.864058 301.52731,97.6 302,96.5 c 0.82859,-1.928236 0.86195,-1.921383 0.92971,0.190983 C 302.96837,97.896024 302.55,99.160081 302,99.5 c -0.55,0.339919 -0.96837,0.253976 -0.92971,-0.190983 z"
         id="path19" />
      <path
         style="fill:#9a97a2"
         d="M 135.85459,301.27965 C 113.49962,278.85084 94.712122,259.51708 94.104595,258.31574 93.328983,256.78202 93,234.73117 93,184.27763 v -71.85385 l 2.25,-4.43901 c 1.255542,-2.47705 3.666159,-5.25143 5.45411,-6.27715 1.80805,-1.03723 24.24724,-6.390769 51.5,-12.286856 C 178.76685,83.673963 203.425,78.337422 207,77.561784 290.23086,59.503876 298.19002,57.91281 299.56865,59.05697 300.35589,59.710326 301,60.739559 301,61.344155 c 0,0.604596 -26.04876,27.211996 -57.88613,59.127555 -31.83738,31.91556 -58.49988,59.15329 -59.25,60.52829 -1.10674,2.02868 -1.45813,17.39379 -1.86387,81.5 l -0.5,79 -2.5,0.27965 c -2.10306,0.23524 -8.95351,-6.19518 -43.14541,-40.5 z M 193,303.92576 v -27.07423 l 5.75,-6.06078 c 3.1625,-3.33342 13.1067,-13.01531 22.09822,-21.51529 l 16.34822,-15.45453 10.29656,0.70181 c 12.28771,0.83754 16.07816,-0.13136 20.58211,-5.26107 4.21414,-4.79964 5.42088,-7.93663 7.95435,-20.67793 1.17337,-5.9011 2.82099,-12.38403 3.66137,-14.40651 C 281.11642,190.74639 302.40874,168 304.19468,168 c 1.35372,0 0.89237,49.11179 -0.48978,52.13877 C 302.18078,223.47664 196.07932,331 194.30971,331 193.26235,331 193,325.57675 193,303.92576 Z m 1.2587,-60.67576 0.55591,-11.75 11.3427,-10.83815 c 13.40355,-12.80735 18.03974,-16.57069 18.54536,-15.05385 0.2019,0.60572 1.4764,0.88926 2.83222,0.63008 2.53864,-0.48529 2.57449,-0.4231 2.87859,4.99331 0.0843,1.50226 1.01925,3.36455 2.07758,4.13842 1.85175,1.35403 1.81155,1.47715 -1.06718,3.26861 -1.64528,1.02387 -4.9754,4.11158 -7.40025,6.86158 -7.42688,8.42272 -28.43787,29.5 -29.40723,29.5 -0.53118,0 -0.68091,-4.91839 -0.3577,-11.75 z m 63.28401,-107.1809 c -0.31644,-0.512 -0.11799,-1.21356 0.44098,-1.55902 1.19337,-0.73755 3.01631,0.19857 3.01631,1.54894 0,1.2168 -2.70662,1.22469 -3.45729,0.0101 z M 265,131.5 c -0.69443,-0.83674 -0.80272,-1.5 -0.24489,-1.5 0.55,0 1.5602,0.675 2.24489,1.5 0.69443,0.83674 0.80272,1.5 0.24489,1.5 -0.55,0 -1.5602,-0.675 -2.24489,-1.5 z m 4.28975,-3.5 c -0.28766,-1.1 -1.31543,-2 -2.28394,-2 -3.09609,0 -4.51396,-2.68199 -2.95643,-5.59227 1.03559,-1.93502 1.8876,-2.38938 3.65074,-1.94686 1.95202,0.48993 2.29988,0.18935 2.29988,-1.98727 0,-2.53638 3.9337,-7.4736 5.95455,-7.4736 0.575,0 1.04545,-0.82156 1.04545,-1.82569 0,-2.8346 4.36317,-6.2655 8.45121,-6.64544 C 289.32722,100.16863 293,97.634442 293,95.320262 c 0,-0.75337 1.0125,-1.755725 2.25,-2.227456 1.2375,-0.471731 3.4875,-2.096956 5,-3.611613 2.1516,-2.154666 2.75,-2.387956 2.75,-1.072102 0,0.925 -1.10549,2.787309 -2.45665,4.138464 -2.91978,2.91978 -3.1701,3.894983 -2.13086,8.301285 0.88634,3.758 -0.78794,6.77974 -2.35321,4.24708 -0.47158,-0.76304 -1.57785,-1.1109 -2.45836,-0.77302 -1.78254,0.68402 -2.14754,3.22123 -0.60092,4.1771 1.47774,0.91329 1.21585,2.20319 -0.58783,2.89533 -0.97112,0.37266 -2.28196,-0.2479 -3.375,-1.59775 l -1.78717,-2.20707 -0.006,2.95475 c -0.004,1.62511 0.42349,3.22685 0.94889,3.55942 1.90611,1.20655 -2.22264,3.92586 -4.92925,3.24654 -2.14529,-0.53843 -2.48145,-0.36222 -1.95018,1.02224 0.53355,1.39042 0.31749,1.49919 -1.27988,0.6443 -1.05699,-0.56568 -2.19842,-1.4761 -2.53651,-2.02314 -0.33809,-0.54704 -1.15066,-0.98031 -1.8057,-0.96282 -0.65754,0.0176 -0.40716,0.62681 0.55902,1.36025 2.47341,1.87758 2.1718,5.36615 -0.80089,9.26356 -2.87675,3.77161 -5.38165,4.31835 -6.15936,1.34439 z M 284,103.25945 c 0,-1.85759 -0.57671,-1.55441 -2.43341,1.27926 -1.62435,2.47908 -1.61531,2.50866 0.38499,1.25945 C 283.07821,105.09457 284,103.95215 284,103.25945 Z m 17.07029,-3.950433 C 301.10894,98.864058 301.52731,97.6 302,96.5 c 0.82859,-1.928236 0.86195,-1.921383 0.92971,0.190983 C 302.96837,97.896024 302.55,99.160081 302,99.5 c -0.55,0.339919 -0.96837,0.253976 -0.92971,-0.190983 z"
         id="path18" />
      <path
         style="fill:#faba1a"
         d="M 135.76331,300.23669 94,258.47337 v -73.2688 c 0,-79.21157 -0.104104,-77.61772 5.349882,-81.90783 1.425738,-1.12148 5.417768,-2.73915 8.871178,-3.594829 19.4373,-4.816107 189.19475,-40.756327 190.3719,-40.304611 0.77387,0.296962 1.40704,1.103716 1.40704,1.792786 0,0.689071 -25.82736,27.140694 -57.39412,58.781384 -31.56677,31.64069 -58.22927,59.10353 -59.25,61.02853 -1.76177,3.32251 -1.85588,7.43008 -1.85588,81 0,42.625 -0.36406,78.0625 -0.80902,78.75 -0.44496,0.6875 -1.33897,1.25 -1.98668,1.25 -0.64772,0 -19.97116,-18.79349 -42.94099,-41.76331 z M 193,303.92576 v -27.07423 l 5.75,-6.06078 c 3.1625,-3.33342 13.1067,-13.01531 22.09822,-21.51529 l 16.34822,-15.45453 10.29656,0.70181 c 12.28771,0.83754 16.07816,-0.13136 20.58211,-5.26107 4.21414,-4.79964 5.42088,-7.93663 7.95435,-20.67793 1.17337,-5.9011 2.82099,-12.38403 3.66137,-14.40651 C 281.11642,190.74639 302.40874,168 304.19468,168 c 1.35372,0 0.89237,49.11179 -0.48978,52.13877 C 302.18078,223.47664 196.07932,331 194.30971,331 193.26235,331 193,325.57675 193,303.92576 Z m 1.2587,-60.67576 0.55591,-11.75 11.3427,-10.83815 c 13.40355,-12.80735 18.03974,-16.57069 18.54536,-15.05385 0.2019,0.60572 1.4764,0.88926 2.83222,0.63008 2.53864,-0.48529 2.57449,-0.4231 2.87859,4.99331 0.0843,1.50226 1.01925,3.36455 2.07758,4.13842 1.85175,1.35403 1.81155,1.47715 -1.06718,3.26861 -1.64528,1.02387 -4.9754,4.11158 -7.40025,6.86158 -7.42688,8.42272 -28.43787,29.5 -29.40723,29.5 -0.53118,0 -0.68091,-4.91839 -0.3577,-11.75 z m 63.28401,-107.1809 c -0.31644,-0.512 -0.11799,-1.21356 0.44098,-1.55902 1.19337,-0.73755 3.01631,0.19857 3.01631,1.54894 0,1.2168 -2.70662,1.22469 -3.45729,0.0101 z M 265,131.5 c -0.69443,-0.83674 -0.80272,-1.5 -0.24489,-1.5 0.55,0 1.5602,0.675 2.24489,1.5 0.69443,0.83674 0.80272,1.5 0.24489,1.5 -0.55,0 -1.5602,-0.675 -2.24489,-1.5 z m 4.28975,-3.5 c -0.28766,-1.1 -1.31543,-2 -2.28394,-2 -3.09609,0 -4.51396,-2.68199 -2.95643,-5.59227 1.03559,-1.93502 1.8876,-2.38938 3.65074,-1.94686 1.95202,0.48993 2.29988,0.18935 2.29988,-1.98727 0,-2.53638 3.9337,-7.4736 5.95455,-7.4736 0.575,0 1.04545,-0.82156 1.04545,-1.82569 0,-2.8346 4.36317,-6.2655 8.45121,-6.64544 C 289.32722,100.16863 293,97.634442 293,95.320262 c 0,-0.75337 1.0125,-1.755725 2.25,-2.227456 1.2375,-0.471731 3.4875,-2.096956 5,-3.611613 2.1516,-2.154666 2.75,-2.387956 2.75,-1.072102 0,0.925 -1.10549,2.787309 -2.45665,4.138464 -2.91978,2.91978 -3.1701,3.894983 -2.13086,8.301285 0.88634,3.758 -0.78794,6.77974 -2.35321,4.24708 -0.47158,-0.76304 -1.57785,-1.1109 -2.45836,-0.77302 -1.78254,0.68402 -2.14754,3.22123 -0.60092,4.1771 1.47774,0.91329 1.21585,2.20319 -0.58783,2.89533 -0.97112,0.37266 -2.28196,-0.2479 -3.375,-1.59775 l -1.78717,-2.20707 -0.006,2.95475 c -0.004,1.62511 0.42349,3.22685 0.94889,3.55942 1.90611,1.20655 -2.22264,3.92586 -4.92925,3.24654 -2.14529,-0.53843 -2.48145,-0.36222 -1.95018,1.02224 0.53355,1.39042 0.31749,1.49919 -1.27988,0.6443 -1.05699,-0.56568 -2.19842,-1.4761 -2.53651,-2.02314 -0.33809,-0.54704 -1.15066,-0.98031 -1.8057,-0.96282 -0.65754,0.0176 -0.40716,0.62681 0.55902,1.36025 2.47341,1.87758 2.1718,5.36615 -0.80089,9.26356 -2.87675,3.77161 -5.38165,4.31835 -6.15936,1.34439 z M 284,103.25945 c 0,-1.85759 -0.57671,-1.55441 -2.43341,1.27926 -1.62435,2.47908 -1.61531,2.50866 0.38499,1.25945 C 283.07821,105.09457 284,103.95215 284,103.25945 Z m 17.07029,-3.950433 C 301.10894,98.864058 301.52731,97.6 302,96.5 c 0.82859,-1.928236 0.86195,-1.921383 0.92971,0.190983 C 302.96837,97.896024 302.55,99.160081 302,99.5 c -0.55,0.339919 -0.96837,0.253976 -0.92971,-0.190983 z"
         id="path17" />
      <path
         style="fill:#379df6"
         d="M 135.76331,300.23669 94,258.47337 v -73.2688 c 0,-79.21157 -0.104104,-77.61772 5.349882,-81.90783 1.425738,-1.12148 5.417768,-2.73915 8.871178,-3.594829 19.4373,-4.816107 189.19475,-40.756327 190.3719,-40.304611 0.77387,0.296962 1.40704,1.103716 1.40704,1.792786 0,0.689071 -25.82736,27.140694 -57.39412,58.781384 -31.56677,31.64069 -58.22927,59.10353 -59.25,61.02853 -1.76177,3.32251 -1.85588,7.43008 -1.85588,81 0,42.625 -0.36406,78.0625 -0.80902,78.75 -0.44496,0.6875 -1.33897,1.25 -1.98668,1.25 -0.64772,0 -19.97116,-18.79349 -42.94099,-41.76331 z M 193,303.92576 v -27.07423 l 5.75,-6.06078 c 3.1625,-3.33342 13.1067,-13.01531 22.09822,-21.51529 l 16.34822,-15.45453 10.29656,0.70181 c 12.28771,0.83754 16.07816,-0.13136 20.58211,-5.26107 4.21414,-4.79964 5.42088,-7.93663 7.95435,-20.67793 1.17337,-5.9011 2.82099,-12.38403 3.66137,-14.40651 C 281.11642,190.74639 302.40874,168 304.19468,168 c 1.35372,0 0.89237,49.11179 -0.48978,52.13877 C 302.18078,223.47664 196.07932,331 194.30971,331 193.26235,331 193,325.57675 193,303.92576 Z m 1.2587,-60.67576 0.55591,-11.75 11.3427,-10.83815 c 13.40355,-12.80735 18.03974,-16.57069 18.54536,-15.05385 0.2019,0.60572 1.4764,0.88926 2.83222,0.63008 2.53864,-0.48529 2.57449,-0.4231 2.87859,4.99331 0.0843,1.50226 1.01925,3.36455 2.07758,4.13842 1.85175,1.35403 1.81155,1.47715 -1.06718,3.26861 -1.64528,1.02387 -4.9754,4.11158 -7.40025,6.86158 -7.42688,8.42272 -28.43787,29.5 -29.40723,29.5 -0.53118,0 -0.68091,-4.91839 -0.3577,-11.75 z"
         id="path16" />
      <path
         style="fill:#e77b4b"
         d="M 135.76331,300.23669 94,258.47337 v -73.2688 c 0,-79.21157 -0.104104,-77.61772 5.349882,-81.90783 1.425738,-1.12148 5.417768,-2.73915 8.871178,-3.594829 19.4373,-4.816107 189.19475,-40.756327 190.3719,-40.304611 0.77387,0.296962 1.40704,1.103716 1.40704,1.792786 0,0.689071 -25.82736,27.140694 -57.39412,58.781384 -31.56677,31.64069 -58.22927,59.10353 -59.25,61.02853 -1.76177,3.32251 -1.85588,7.43008 -1.85588,81 0,42.625 -0.36406,78.0625 -0.80902,78.75 -0.44496,0.6875 -1.33897,1.25 -1.98668,1.25 -0.64772,0 -19.97116,-18.79349 -42.94099,-41.76331 z M 193,303.92576 v -27.07423 l 5.75,-6.06078 c 3.1625,-3.33342 13.1067,-13.01531 22.09822,-21.51529 l 16.34822,-15.45453 10.29656,0.70181 c 12.28771,0.83754 16.07816,-0.13136 20.58211,-5.26107 4.21414,-4.79964 5.42088,-7.93663 7.95435,-20.67793 1.17337,-5.9011 2.82099,-12.38403 3.66137,-14.40651 C 281.11642,190.74639 302.40874,168 304.19468,168 c 1.35372,0 0.89237,49.11179 -0.48978,52.13877 C 302.18078,223.47664 196.07932,331 194.30971,331 193.26235,331 193,325.57675 193,303.92576 Z"
         id="path15" />
      <path
         style="fill:#f9742e"
         d="M 135.76331,300.23669 94,258.47337 v -73.2688 c 0,-79.21157 -0.104104,-77.61772 5.349882,-81.90783 1.425738,-1.12148 5.417768,-2.73915 8.871178,-3.594829 19.4373,-4.816107 189.19475,-40.756327 190.3719,-40.304611 0.77387,0.296962 1.40704,1.103716 1.40704,1.792786 0,0.689071 -25.82736,27.140694 -57.39412,58.781384 -31.56677,31.64069 -58.22927,59.10353 -59.25,61.02853 -1.76177,3.32251 -1.85588,7.43008 -1.85588,81 0,42.625 -0.36406,78.0625 -0.80902,78.75 -0.44496,0.6875 -1.33897,1.25 -1.98668,1.25 -0.64772,0 -19.97116,-18.79349 -42.94099,-41.76331 z m 58.21602,2.51331 -0.0207,-26.25 20.27068,-19.88604 c 11.14887,-10.93732 21.73767,-20.50773 23.53066,-21.26759 2.56961,-1.08898 4.63433,-1.16201 9.74966,-0.34483 3.56932,0.5702 7.72733,0.77489 9.24001,0.45485 1.51269,-0.32003 3.72816,-0.77851 4.92327,-1.01884 6.79828,-1.3671 12.53384,-10.84677 14.69829,-24.29317 2.18134,-13.55135 4.86946,-18.48194 16.43458,-30.14449 C 298.25979,174.49995 303.03819,170 303.42445,170 c 0.38627,0 0.56129,11.14958 0.38893,24.77685 -0.30587,24.18324 -0.36906,24.84759 -2.63757,27.72918 C 296.24076,228.77482 196.66074,329 195.36736,329 c -1.12123,0 -1.37108,-4.72515 -1.38803,-26.25 z"
         id="path14" />
      <path
         style="fill:#817c8a"
         d="M 135.76331,300.23669 94,258.47337 v -73.2688 c 0,-79.21157 -0.104104,-77.61772 5.349882,-81.90783 1.425738,-1.12148 5.417768,-2.73915 8.871178,-3.594829 19.4373,-4.816107 189.19475,-40.756327 190.3719,-40.304611 0.77387,0.296962 1.40704,1.103716 1.40704,1.792786 0,0.689071 -25.82736,27.140694 -57.39412,58.781384 -31.56677,31.64069 -58.22927,59.10353 -59.25,61.02853 -1.76177,3.32251 -1.85588,7.43008 -1.85588,81 0,42.625 -0.36406,78.0625 -0.80902,78.75 -0.44496,0.6875 -1.33897,1.25 -1.98668,1.25 -0.64772,0 -19.97116,-18.79349 -42.94099,-41.76331 z m 58.97685,28.17014 c -0.40709,-0.40709 -0.75265,-12.02766 -0.76791,-25.8235 L 193.9445,277.5 213.59124,258.3042 c 21.73941,-21.24045 25.61,-23.91576 32.03449,-22.14187 4.18259,1.15486 15.46367,0.39537 18.53395,-1.24779 2.57966,-1.38059 8.84032,-0.0904 8.84032,1.82175 0,1.14734 -0.72347,1.36902 -2.98906,0.9159 -3.46771,-0.69354 -6.01094,0.0485 -6.01094,1.75391 0,1.43352 6.5685,3.97862 7.99417,3.0975 0.57098,-0.35288 1.00583,0.44867 1.00583,1.85405 0,1.36163 0.3375,2.66443 0.75,2.89512 0.4125,0.23069 0.1875,0.28232 -0.5,0.11472 -0.6875,-0.1676 -1.25,0.30801 -1.25,1.05691 0,0.74889 -0.65147,1.61162 -1.44771,1.91716 -0.79625,0.30555 -2.20391,2.04119 -3.12814,3.85699 -1.87849,3.69057 -6.30795,8.37832 -44.93399,47.55415 -14.85541,15.06686 -27.34291,27.06122 -27.75,26.65413 z M 274,240 c 0,-0.55 0.42344,-1 0.94098,-1 0.51754,0 1.2191,0.45 1.55902,1 0.33992,0.55 -0.0835,1 -0.94098,1 C 274.70156,241 274,240.55 274,240 Z"
         id="path13" />
      <path
         style="fill:#fb6516"
         d="M 135.25,299.73248 94,258.3976 v -73.23864 c 0,-70.85 0.06414,-73.36436 1.966554,-77.0934 1.356045,-2.65807 3.296336,-4.48015 6.249996,-5.86925 3.51036,-1.6509 185.5504,-41.511187 193.74246,-42.422701 1.57895,-0.175686 2.57644,0.285408 2.78711,1.288348 0.2028,0.965432 -21.3594,23.451705 -56.45901,58.878643 C 211.0542,151.46478 184.6,178.65694 183.5,180.36762 c -1.94522,3.02512 -2.0137,5.26092 -2.5,81.62135 -0.49393,77.55864 -0.52426,78.51447 -2.5,78.79471 -1.47561,0.2093 -12.81546,-10.55404 -43.25,-41.0512 z m 59.49016,28.67435 c -0.40709,-0.40709 -0.75265,-12.02766 -0.76791,-25.8235 L 193.9445,277.5 213.59124,258.3042 c 21.73941,-21.24045 25.61,-23.91576 32.03449,-22.14187 4.18259,1.15486 15.46367,0.39537 18.53395,-1.24779 2.57966,-1.38059 8.84032,-0.0904 8.84032,1.82175 0,1.14734 -0.72347,1.36902 -2.98906,0.9159 -3.46771,-0.69354 -6.01094,0.0485 -6.01094,1.75391 0,1.43352 6.5685,3.97862 7.99417,3.0975 0.57098,-0.35288 1.00583,0.44867 1.00583,1.85405 0,1.36163 0.3375,2.66443 0.75,2.89512 0.4125,0.23069 0.1875,0.28232 -0.5,0.11472 -0.6875,-0.1676 -1.25,0.30801 -1.25,1.05691 0,0.74889 -0.65147,1.61162 -1.44771,1.91716 -0.79625,0.30555 -2.20391,2.04119 -3.12814,3.85699 -1.87849,3.69057 -6.30795,8.37832 -44.93399,47.55415 -14.85541,15.06686 -27.34291,27.06122 -27.75,26.65413 z M 274,240 c 0,-0.55 0.42344,-1 0.94098,-1 0.51754,0 1.2191,0.45 1.55902,1 0.33992,0.55 -0.0835,1 -0.94098,1 C 274.70156,241 274,240.55 274,240 Z"
         id="path12" />
      <path
         style="fill:#7b7684"
         d="M 135.25,299.73248 94,258.3976 v -73.23864 c 0,-70.85 0.06414,-73.36436 1.966554,-77.0934 1.356045,-2.65807 3.296336,-4.48015 6.249996,-5.86925 3.51036,-1.6509 185.5504,-41.511187 193.74246,-42.422701 1.57895,-0.175686 2.57644,0.285408 2.78711,1.288348 0.2028,0.965432 -21.3594,23.451705 -56.45901,58.878643 C 211.0542,151.46478 184.6,178.65694 183.5,180.36762 c -1.94522,3.02512 -2.0137,5.26092 -2.5,81.62135 -0.49393,77.55864 -0.52426,78.51447 -2.5,78.79471 -1.47561,0.2093 -12.81546,-10.55404 -43.25,-41.0512 z m 59.3297,28.39649 c -0.44039,-0.71257 -0.47152,-12.70838 -0.0692,-26.65735 l 0.73154,-25.36176 6.94188,-6.30493 c 3.81803,-3.46771 7.81357,-6.7112 8.87897,-7.20774 1.0654,-0.49655 1.93709,-1.28405 1.93709,-1.75 0,-1.98483 3.13328,-0.62684 4.03679,1.74958 0.54301,1.42822 1.88187,2.8307 2.97525,3.11663 1.9731,0.51598 2.35644,1.32577 2.06853,4.36972 -0.0989,1.04529 0.6241,1.55488 2.12808,1.5 1.86857,-0.0682 2.55312,0.78298 3.81,4.73739 0.84269,2.65128 1.85823,4.78878 2.25676,4.75 3.03463,-0.29529 3.41141,0.16663 3.47326,4.25823 0.0649,4.29047 -0.1045,4.50458 -19.15141,24.21228 -13.50563,13.97418 -19.45481,19.49848 -20.01756,18.58795 z"
         id="path11" />
      <path
         style="fill:#f15308"
         d="M 136,299.51395 94.5,257.99164 94.23109,185.74582 93.96218,113.5 l 2.26891,-4.47712 c 1.2479,-2.46242 3.620223,-5.25141 5.27183,-6.19775 C 104.46442,101.12823 293.06904,60 297.88911,60 298.5001,60 299,60.520084 299,61.155743 c 0,0.635658 -25.81372,27.073158 -57.36382,58.749997 -31.55009,31.67684 -57.98759,58.71926 -58.75,60.09426 -1.13643,2.04957 -1.47627,16.73119 -1.88618,81.48651 -0.43775,69.15321 -0.68674,79.02157 -2,79.26813 -0.86116,0.16167 -19.17465,-17.40254 -43,-41.24069 z m 58.5797,28.61502 c -0.44039,-0.71257 -0.47152,-12.70838 -0.0692,-26.65735 l 0.73154,-25.36176 6.94188,-6.30493 c 3.81803,-3.46771 7.81357,-6.7112 8.87897,-7.20774 1.0654,-0.49655 1.93709,-1.28405 1.93709,-1.75 0,-1.98483 3.13328,-0.62684 4.03679,1.74958 0.54301,1.42822 1.88187,2.8307 2.97525,3.11663 1.9731,0.51598 2.35644,1.32577 2.06853,4.36972 -0.0989,1.04529 0.6241,1.55488 2.12808,1.5 1.86857,-0.0682 2.55312,0.78298 3.81,4.73739 0.84269,2.65128 1.85823,4.78878 2.25676,4.75 3.03463,-0.29529 3.41141,0.16663 3.47326,4.25823 0.0649,4.29047 -0.1045,4.50458 -19.15141,24.21228 -13.50563,13.97418 -19.45481,19.49848 -20.01756,18.58795 z"
         id="path10" />
      <path
         style="fill:#56505e"
         d="M 136,299.51395 94.5,257.99164 94.23109,185.74582 93.96218,113.5 l 2.26891,-4.47712 c 1.2479,-2.46242 3.620223,-5.25141 5.27183,-6.19775 C 104.46442,101.12823 293.06904,60 297.88911,60 298.5001,60 299,60.520084 299,61.155743 c 0,0.635658 -25.81372,27.073158 -57.36382,58.749997 -31.55009,31.67684 -57.98759,58.71926 -58.75,60.09426 -1.13643,2.04957 -1.47627,16.73119 -1.88618,81.48651 -0.43775,69.15321 -0.68674,79.02157 -2,79.26813 -0.86116,0.16167 -19.17465,-17.40254 -43,-41.24069 z"
         id="path9" />
      <path
         style="fill:#433a4c"
         d="M 136.61071,299.24391 95.010731,257.5 95.00692,185 c -0.0035,-67.0535 0.127539,-72.75759 1.744634,-75.92892 0.961645,-1.8859 2.884222,-4.26031 4.272396,-5.27647 2.51186,-1.83872 21.70301,-6.180939 95.97605,-21.715696 63.52041,-13.285764 72.42,-14.957088 73.76233,-13.852405 0.92701,0.762894 0.97055,1.39042 0.16391,2.362365 -1.47271,1.77451 -0.19451,3.631047 2.01673,2.929225 1.00952,-0.320407 2.35951,0.141436 3.13113,1.071185 0.74606,0.898942 2.23571,1.959694 3.31034,2.357227 2.20435,0.81544 -5.89928,9.520112 -65.03293,69.856389 -26.37126,26.90758 -32.34544,33.51167 -33.24443,36.7497 -0.7502,2.70216 -1.09769,27.98255 -1.1015,80.13838 -0.003,43.72744 -0.38677,76.42658 -0.90023,76.74391 -0.49206,0.30411 -19.61465,-18.23183 -42.49464,-41.19098 z"
         id="path8" />
      <path
         style="fill:#3b3243"
         d="m 136.20835,298.69652 -41.259175,-41.30348 0.275412,-72.94652 c 0.255013,-67.54336 0.40629,-73.18599 2.04234,-76.17959 C 100.2388,102.82908 99.26827,103.12727 145.5,93.447475 175.7197,87.120208 197.1452,83 199.82794,83 c 1.60994,0 3.48737,0.675 4.17206,1.5 0.68469,0.825 2.44826,1.5 3.91905,1.5 1.47079,0 3.55319,0.66954 4.62756,1.487866 5.36075,4.083193 19.5052,13.153974 23.70339,15.200894 3.8581,1.8811 4.75,2.80504 4.75,4.92059 0,1.83678 0.4178,2.4443 1.41724,2.06078 2.10877,-0.80921 2.76474,2.08045 1.16755,5.14322 -0.77059,1.47766 -14.73744,16.29215 -31.03745,32.92109 -17.89675,18.2579 -30.21294,31.61431 -31.09187,33.71788 C 180.22398,184.39971 180,196.86683 180,262.46788 180,324.35706 179.74452,340 178.73377,340 c -0.69643,0 -19.83287,-18.58657 -42.52542,-41.30348 z"
         id="path7" />
      <path
         style="fill:#332b3a"
         d="m 136.7968,299.25 c -28.87163,-28.92819 -40.880818,-41.61009 -41.395877,-43.71476 -0.399048,-1.63062 -0.427535,-34.66399 -0.0633,-73.40749 0.612028,-65.10185 0.797609,-70.67452 2.447695,-73.49986 C 101.06964,103.00434 103.03767,102.41643 150,93.029776 l 13.5,-2.698331 2.69363,2.834278 C 167.67513,94.724575 169.60936,96 170.49194,96 c 0.88257,0 3.49543,0.95422 5.80637,2.12049 2.31093,1.166269 6.22669,3.14174 8.70169,4.38994 2.475,1.2482 5.69666,3.61925 7.15925,5.269 1.54651,1.74442 4.89404,3.7389 8,4.76647 4.93899,1.63399 19.00214,10.19222 21.36568,13.00223 0.56372,0.67019 1.86933,1.38353 2.90136,1.5852 1.03692,0.20262 2.03226,1.39075 2.22474,2.65564 0.27313,1.79489 -2.42075,5.14061 -12.48017,15.5 -26.14713,26.92683 -30.71151,31.8685 -32.46583,35.1495 -1.68433,3.15008 -1.79094,8.17154 -1.72953,81.45928 C 180.0283,324.94123 179.79282,340 178.75405,340 c -0.7078,0 -19.58856,-18.3375 -41.95725,-40.75 z"
         id="path6" />
      <path
         style="fill:#2c2533"
         d="M 153.11369,315.37971 C 139.55204,301.69587 121.06876,282.9508 112.03974,273.724 l -16.416412,-16.776 0.259351,-72.224 c 0.284267,-79.16252 -0.01333,-75.30909 6.172021,-79.91891 2.81574,-2.09851 16.28872,-5.095895 22.22192,-4.943788 4.49719,0.115293 7.72338,1.649938 7.72338,3.673878 0,0.96091 1.03203,1.46482 3,1.46482 2.53333,0 3,0.38889 3,2.5 0,1.7971 0.53889,2.5 1.91667,2.5 1.05416,0 2.10653,-0.5625 2.33859,-1.25 0.62604,-1.85471 7.40358,1.59975 8.22667,4.19307 0.50839,1.60178 1.49595,2.05693 4.46301,2.05693 4.70833,0 7.01676,2.23042 5.2449,5.06763 -1.74329,2.79144 -1.59489,2.93237 3.08765,2.93237 4.55537,0 8.72251,2.17695 8.72251,4.5567 0,1.65196 1.57987,1.9321 2.5,0.4433 0.33992,-0.55 1.44333,-1 2.45203,-1 1.92789,0 3.04797,1.86748 3.04797,5.08179 0,1.05501 0.45,1.91821 1,1.91821 0.55,0 1,-0.45 1,-1 0,-1.94979 2.97331,-0.95868 6,2 1.68793,1.65 3.84094,3.01497 4.78448,3.03327 2.55788,0.0496 6.21552,3.49683 6.21552,5.85797 0,2.81031 4.04447,3.73193 7.91149,1.8028 2.26005,-1.12746 3.2445,-1.21101 3.96991,-0.33694 0.67612,0.81468 -3.59682,5.97508 -14.28687,17.25416 -12.74641,13.44875 -15.46533,16.85562 -16.55338,20.74178 -1.04737,3.74082 -1.15664,19.38543 -0.5589,80.01982 0.5828,59.11976 0.47844,75.5334 -0.48402,76.12823 -0.80504,0.49755 -9.70655,-7.79762 -25.88454,-24.12138 z"
         id="path5" />
      <path
         style="fill:#27212d"
         d="M 137.20608,298.70612 96,257.49107 v -58.94553 c 0,-45.84653 0.266667,-58.67887 1.2,-57.74554 0.66,0.66 2.148992,1.2 3.30887,1.2 1.15988,0 2.98238,0.66069 4.05,1.4682 1.06762,0.8075 2.91683,1.4825 4.10934,1.5 3.51815,0.0516 5.33179,1.11928 5.33179,3.13879 0,1.22634 0.70435,1.89301 2,1.89301 1.1,0 2,-0.45 2,-1 0,-1.28876 2.07931,-1.2579 4,0.0594 1.283,0.87993 1.1745,1.25702 -0.75,2.60666 -3.34865,2.34839 -2.74833,3.33397 2.03076,3.33397 3.85178,0 4.3959,0.30502 5.42966,3.04377 1.12585,2.98273 1.25059,3.03029 6.21924,2.37117 3.49656,-0.46383 5.07034,-0.32223 5.07034,0.45623 0,0.62086 -0.45,1.12883 -1,1.12883 -0.55,0 -1,0.9 -1,2 0,1.66667 0.66667,2 4,2 2.74336,0 4,0.43558 4,1.3865 0,1.30018 1.76811,1.89225 9.77493,3.27327 3.66538,0.63221 6.12106,3.84424 4.31771,5.64759 C 158.01518,178.38482 159.02212,179 164.5,179 c 4.22222,0 5.5,0.34848 5.5,1.5 0,0.83333 0.88889,1.5 2,1.5 1.36719,0 2,-0.66667 2,-2.10699 0,-1.51045 0.44784,-1.93514 1.58179,-1.5 0.86998,0.33385 1.76998,0.60699 2,0.60699 0.23001,0 0.41821,0.49814 0.41821,1.10699 0,0.60884 -0.675,0.84797 -1.5,0.53138 -0.825,-0.31658 -1.5,-0.0976 -1.5,0.48663 0,0.58423 0.86601,1.28871 1.92447,1.5655 1.57484,0.41183 1.90313,1.34862 1.807,5.15638 -0.0646,2.55922 -0.008,37.6681 0.12558,78.01973 0.13368,40.35164 0.0883,73.5214 -0.10092,73.71059 -0.18918,0.18919 -18.88671,-18.2028 -41.55005,-40.87108 z M 177.12756,186.25 c 1.24387,-1.58606 1.2085,-1.62143 -0.37756,-0.37756 -1.66575,1.30637 -2.19548,2.12756 -1.37244,2.12756 0.20765,0 0.99515,-0.7875 1.75,-1.75 z"
         id="path4" />
      <path
         style="fill:#221c27"
         d="M 136.73357,298.22163 96,257.44325 96.070285,213.97163 C 96.11102,188.77725 96.50191,171.34088 97,172.5 c 0.472686,1.1 0.891058,4.3625 0.929715,7.25 0.0686,5.12388 0.140735,5.25 3.002895,5.25 2.08054,0 3.12213,-0.5971 3.58486,-2.05505 0.35874,-1.13027 1.17656,-1.88253 1.81739,-1.67167 1.49435,0.4917 2.15261,4.72672 0.73469,4.72672 -0.58825,0 -1.06955,0.9 -1.06955,2 0,1.53043 0.66667,2 2.83948,2 2.05837,0 3.15284,0.68773 3.97857,2.5 0.94014,2.06339 1.8414,2.5 5.16051,2.5 3.8016,0 4.02144,0.164 4.02144,3 0,2.83333 0.22222,3 4,3 3.6,0 4,0.25 4,2.5 0,2.01852 0.49524,2.5 2.57143,2.5 1.41428,0 3.24643,0.675 4.07143,1.5 0.825,0.825 2.625,1.5 4,1.5 2.57623,0 5.35714,2.03934 5.35714,3.92857 0,0.58929 0.72308,1.07143 1.60684,1.07143 0.88376,0 3.86754,1.8 6.63063,4 2.76308,2.2 5.64,4 6.39316,4 0.75315,0 1.36937,0.45 1.36937,1 0,1.32978 11.73452,1.29643 12.1782,-0.0346 0.2125,-0.6375 1.10811,-0.47663 2.33334,0.4191 1.9372,1.41623 1.99738,2.92507 2.33461,58.53461 0.19158,31.59207 -0.039,57.0809 -0.51643,57.0809 -0.47442,0 -19.19268,-18.35027 -41.59615,-40.77837 z m 6.65402,-90.75284 c -2.04175,-3.11612 -1.20892,-4.16405 2.10818,-2.65267 1.47012,0.66983 2.50423,1.97575 2.50423,3.16244 0,2.81693 -2.62259,2.52708 -4.61241,-0.50977 z"
         id="path3" />
      <path
         style="fill:#1d1721"
         d="m 171,331.93816 c -3.575,-3.76582 -21.9125,-22.30128 -40.75,-41.1899 L 96,256.4053 v -12.26167 c 0,-7.9198 0.354101,-12.04282 1,-11.64363 0.55,0.33992 1,1.56384 1,2.71982 0,1.96543 5.36627,7.78018 7.18011,7.78018 0.45094,0 0.81989,0.675 0.81989,1.5 0,0.98116 0.98216,1.5 2.83948,1.5 2.05837,0 3.15284,0.68773 3.97857,2.5 0.94014,2.06339 1.8414,2.5 5.16051,2.5 2.90795,0 4.02144,0.41533 4.02144,1.5 0,1.13333 1.22222,1.5 5,1.5 h 5 v 4 c 0,3.77778 0.16667,4 3,4 2,0 3,0.5 3,1.5 0,1.08333 1.11111,1.5 4,1.5 3.6,0 4,0.25 4,2.5 0,1.61994 0.56052,2.5 1.59227,2.5 0.87575,0 2.73644,0.9 4.13486,2 1.54651,1.21649 4.05678,2 6.40773,2 3.19847,0 3.86514,0.34496 3.86514,2 0,1.66667 0.66667,2 4,2 3.07106,0 4,0.38812 4,1.67126 0,2.34935 2.91209,5.2997 4.59396,4.65431 C 175.36728,284.02882 176,283.15917 176,282.39301 176,281.62686 176.38883,281 176.86408,281 c 0.47524,0 1.15024,2.08781 1.5,4.63957 0.89581,6.53565 0.79545,53.38329 -0.11408,53.25298 -0.4125,-0.0591 -3.675,-3.18857 -7.25,-6.95439 z"
         id="path2" />
    </g>
  </g>
</svg>
