<?xml version="1.0" encoding="UTF-8" standalone="no"?>
<!-- Created with Inkscape (http://www.inkscape.org/) -->

<svg
   version="1.1"
   id="svg1"
   width="89.599998"
   height="89.599998"
   viewBox="0 0 89.599998 89.599998"
   sodipodi:docname="koreader-icon2.svg"
   inkscape:version="1.4.3 (0d15f75, 2025-12-25)"
   xmlns:inkscape="http://www.inkscape.org/namespaces/inkscape"
   xmlns:sodipodi="http://sodipodi.sourceforge.net/DTD/sodipodi-0.dtd"
   xmlns="http://www.w3.org/2000/svg"
   xmlns:svg="http://www.w3.org/2000/svg">
  <defs
     id="defs1" />
  <sodipodi:namedview
     id="namedview1"
     pagecolor="#505050"
     bordercolor="#eeeeee"
     borderopacity="1"
     inkscape:showpageshadow="0"
     inkscape:pageopacity="0"
     inkscape:pagecheckerboard="0"
     inkscape:deskcolor="#505050"
     inkscape:zoom="9.6986609"
     inkscape:cx="38.04649"
     inkscape:cy="53.77031"
     inkscape:window-width="1916"
     inkscape:window-height="1052"
     inkscape:window-x="0"
     inkscape:window-y="24"
     inkscape:window-maximized="1"
     inkscape:current-layer="g1" />
  <g
     inkscape:groupmode="layer"
     inkscape:label="Image"
     id="g1">
    <g
       id="g112"
       transform="translate(-0.10310707,-0.41242809)">
      <path
         style="fill:#edfed3"
         d="M 17.946438,87.042294 C 13.870511,86.418202 10.789503,83.961773 9.22686,80.090338 L 8.4799999,78.239999 8.3896671,46.288163 C 8.3307357,25.443403 8.4133526,13.719545 8.6273319,12.562024 9.3800739,8.4900684 11.356667,5.7132231 14.660265,4.086574 L 16.785775,3.0399999 42.78451,2.9340543 c 32.30706,-0.1316523 33.467606,0.018694 36.634584,4.7459456 2.486595,3.7116631 2.340905,1.3616092 2.340905,37.7599991 v 32.48 l -0.993457,2.096466 c -1.211468,2.55653 -3.565935,4.959064 -6.108013,6.232708 l -1.85853,0.93117 -26.56,0.06369 c -14.608,0.03503 -27.340102,-0.05575 -28.293561,-0.201743 z m 31.733561,-6.294228 7.92,-0.210547 -0.0078,-0.98876 c -0.08825,-11.154085 -14.987273,-16.79698 -23.660503,-8.961238 -3.622566,3.272771 -5.858623,9.842291 -3.451674,10.140991 1.830357,0.227145 11.038396,0.236523 19.2,0.01955 z M 19.015445,72.185135 c 7.637951,-20.207258 34.583989,-23.254835 46.49348,-5.258378 0.448867,0.678283 0.868985,1.233242 0.933597,1.233242 0.06461,0 0.117477,-3.582973 0.117477,-7.962162 v -7.962162 l -4.08,-0.128663 C 56.723394,51.925477 57.140434,52.193845 45.682346,41.297619 32.314228,28.585024 31.745009,27.001587 38.013662,19.965081 c 1.237244,-1.388795 3.846315,-4.316603 5.797936,-6.506241 1.95162,-2.189637 3.548401,-4.100501 3.548401,-4.2463636 0,-0.1458625 -3.06,-0.2263408 -6.8,-0.1788406 l -6.8,0.086364 -0.24966,20.6254772 c -0.296129,24.464439 -0.07081,23.262154 -3.780971,20.174522 -2.482086,-2.065613 -3.091138,-2.065613 -5.889368,0 -3.921082,2.894486 -3.68,4.216439 -3.68,-20.178962 V 9.1999998 l -1.035025,0.2070051 c -1.383223,0.2766444 -3.69339,2.5787581 -4.098864,4.0845751 -0.666791,2.47627 -0.241152,62.330591 0.452477,63.628419 1.369979,2.563324 1.560517,2.543938 2.158578,-0.219629 0.297607,-1.375204 0.917832,-3.49706 1.378279,-4.715235 z m 55.212914,4.432077 0.81164,-1.577213 0.09112,-29.92 c 0.09832,-32.286323 0.129481,-31.617178 -1.542618,-33.130407 -0.62428,-0.564965 -0.628499,-0.347338 -0.628499,32.414639 0,18.140883 -0.09495,33.23085 -0.210992,33.53326 -0.474369,1.236184 0.705804,0.182915 1.479352,-1.320279 z M 66.558214,28.88 C 66.556343,12.858918 66.480504,11.878348 65.122783,10.320527 L 64.355359,9.4399998 63.395419,10.4 C 48.249985,25.54638 47.49662,26.886735 51.759999,31.101253 c 3.336214,3.297979 14.217838,13.057118 14.56,13.058075 0.132,3.69e-4 0.239197,-6.875329 0.238215,-15.279328 z"
         id="path142" />
      <path
         style="fill:#d3fecd"
         d="M 17.069998,86.710211 C 13.216828,85.937848 10.32501,83.193807 9.0676565,79.116804 8.4854936,77.229125 8.4241624,15.377617 9.0013281,12.225725 10.348554,4.8685506 13.040077,3.4743626 26.56,3.1304716 c 33.420112,-0.8500697 48.069077,0.09771 51.550875,3.335313 3.60507,3.3522293 3.55526,2.8504009 3.727514,37.5545914 0.190515,38.383271 0.293327,37.751028 -6.818581,41.931083 l -1.579809,0.92854 -27.52,0.0484 c -15.136,0.02662 -28.1185,-0.07156 -28.850001,-0.218192 z m 40.740391,-6.246136 c 0.104667,-0.272757 0.0065,-1.361958 -0.218108,-2.420446 C 54.39241,62.96515 33.350412,62.848893 29.572503,77.88882 c -0.843085,3.356341 -2.138127,3.071179 13.947496,3.071179 12.439426,0 14.1225,-0.05841 14.29039,-0.495924 z M 17.6,78.46723 c 0,-4.568605 3.58937,-11.476757 8.396818,-16.160637 11.923629,-11.617147 29.881936,-9.126983 39.986396,5.544659 0.517392,0.75125 0.544014,0.391144 0.56,-7.574939 l 0.01678,-8.363685 -4.431509,-0.121701 C 56.526582,51.637084 57.466917,52.249797 45.901104,41.217315 31.372616,27.358775 31.418437,27.667153 42.121615,15.78096 46.495211,10.923954 47.942617,9.1205265 47.6275,8.9207815 46.927485,8.4770602 34.116238,8.5717611 33.663999,9.0239998 c -0.290632,0.2906326 -0.384,5.3424762 -0.384,20.7771422 0,23.79074 0.138969,22.902671 -3.15559,20.165657 -2.930572,-2.434626 -3.556032,-2.450065 -6.471254,-0.159737 -3.269833,2.568927 -3.001098,4.266823 -3.095512,-19.557775 C 20.509723,18.157165 20.352262,9.3442621 20.181072,9.1730721 19.31087,8.3028702 16.024768,10.70335 14.997012,12.96 13.650726,15.916045 14.282602,75.78119 15.681203,77.781592 16.958703,79.608784 17.6,79.837937 17.6,78.46723 Z m 56.787763,-1.967131 0.737839,-1.4601 0.117198,-30.24 L 75.359999,14.56 74.416885,12.857481 c -0.912812,-1.647819 -2.464425,-3.0768356 -1.985408,-1.828536 0.114687,0.298869 0.208522,15.669253 0.208522,34.156409 0,36.800412 -0.101882,34.974988 1.747764,31.314745 z M 66.668693,36.268091 C 67.186269,16.15371 66.953072,11.860905 65.244006,10.041687 64.247081,8.9805086 64.736771,8.5883682 57.67833,16.100228 46.703621,27.77993 47.114931,26.825619 51.279999,30.945466 c 2.858191,2.827159 14.680134,13.488346 14.988694,13.517007 0.103782,0.0096 0.283782,-3.677833 0.4,-8.194382 z"
         id="path141" />
      <path
         style="fill:#effeaf"
         d="M 17.901404,86.729403 C 13.9952,86.036368 10.979048,83.632995 9.5372005,80.064521 l -0.7372006,-1.824522 -0.09461,-31.84 C 8.5713546,1.2918133 7.6138009,3.6123847 26.56,3.1304716 c 25.967577,-0.660508 45.79425,0.055551 49.160349,1.7754718 5.943648,3.0369304 5.923471,2.8917281 5.810337,41.8140556 l -0.09069,31.2 -0.9283,2.010248 c -1.072519,2.322558 -3.728962,4.988963 -6.165306,6.188428 l -1.546394,0.761324 -26.72,0.05409 c -14.696,0.02975 -27.376367,-0.06236 -28.178595,-0.204689 z m 40.018595,-7.015697 c 0,-6.953961 -6.497646,-13.134655 -13.824249,-13.149909 C 36.177823,66.547312 29.12,72.831539 29.12,79.898079 v 1.06192 h 14.399999 14.4 z M 17.872281,77.359999 c 4.010472,-23.431666 34.818027,-30.085791 47.409593,-10.24 1.5859,2.499566 1.615738,2.367949 1.523438,-6.72 l -0.08531,-8.4 -4.324425,-0.188295 c -2.603661,-0.113369 -4.640998,-0.355884 -5.12,-0.609461 -1.026328,-0.543323 -4.155575,-2.974427 -4.155575,-3.228455 0,-0.107053 -1.404,-1.458829 -3.12,-3.003947 C 31.402418,28.224234 31.290426,27.809313 42.121615,15.78096 46.495211,10.923954 47.942617,9.1205265 47.6275,8.9207815 46.927485,8.4770602 34.116238,8.5717611 33.663999,9.0239998 c -0.290564,0.2905641 -0.384,5.3041222 -0.384,20.6045492 0,24.451443 0.268929,23.064702 -3.826496,19.73145 C 27.501976,47.771658 26.501509,47.645864 24.927322,48.790897 19.984986,52.385859 20.48,54.491783 20.48,29.870774 20.48,7.2093518 20.594362,8.4373393 18.562292,9.2790505 c -1.340418,0.555219 -3.413247,2.9163465 -3.83616,4.3697105 -0.256336,0.880911 -0.330941,9.926552 -0.262205,31.791238 0.105546,33.57339 -0.02299,31.363029 1.949285,33.52 0.94981,1.038755 1.020743,0.960971 1.459069,-1.6 z m 55.551118,1.001369 c 2.044873,-2.430194 1.917846,-0.334755 2.028695,-33.4654 0.09249,-27.643443 0.05654,-30.231629 -0.433398,-31.2 -0.658394,-1.301339 -2.012699,-3.135956 -2.314982,-3.136004 -0.123044,-2e-5 -0.185099,15.080885 -0.137902,33.513121 0.05369,20.967399 -0.02992,33.845163 -0.223353,34.400036 -0.408119,1.170729 0.04086,1.124312 1.08094,-0.111753 z M 66.878214,29.2 C 66.876305,12.512284 66.820821,11.852313 65.276063,10.142943 L 64.351629,9.1199998 62.921257,10.56 c -8.803078,8.862335 -14.281258,15.181341 -14.281258,16.473234 0,1.677426 2.995943,4.694573 16.64,16.757773 0.616,0.544627 1.228,0.994453 1.36,0.999612 0.132,0.0052 0.239197,-7.01062 0.238215,-15.590619 z"
         id="path140" />
      <path
         style="fill:#d0feb0"
         d="M 17.901404,86.729403 C 10.293094,85.379544 8.8632737,82.361826 8.7240171,67.359999 8.2284235,13.970726 8.8790462,7.4103604 14.966727,4.4134394 l 2.139865,-1.0534395 26.726703,0.031423 c 31.214266,0.036699 31.313671,0.046451 34.453028,3.3800031 3.375073,3.583849 3.350927,3.286535 3.244363,39.948573 l -0.09069,31.2 -0.9283,2.010248 c -1.072519,2.322558 -3.728962,4.988963 -6.165306,6.188428 l -1.546394,0.761324 -26.72,0.05409 c -14.696,0.02975 -27.376367,-0.06236 -28.178595,-0.204689 z m 40.018595,-7.015697 c 0,-6.953961 -6.497646,-13.134655 -13.824249,-13.149909 C 36.177823,66.547312 29.12,72.831539 29.12,79.898079 v 1.06192 h 14.399999 14.4 z M 17.872281,77.359999 c 4.010472,-23.431666 34.818027,-30.085791 47.409593,-10.24 1.5859,2.499566 1.615738,2.367949 1.523438,-6.72 l -0.08531,-8.4 -4.324425,-0.188295 C 56.888133,51.571899 57.22037,51.740399 51.211451,46.139465 36.059856,32.016613 34.879999,30.649476 34.879999,27.215709 c 0,-2.702776 0.979616,-4.260997 6.595574,-10.491224 7.01358,-7.780719 6.975645,-7.734218 6.468247,-7.9289249 -0.241429,-0.092645 -3.603555,-0.1295462 -7.471391,-0.082003 l -7.03243,0.086443 -0.16,20.7087089 C 33.088897,54.24298 33.409495,52.579767 29.453503,49.359999 27.501976,47.771658 26.501509,47.645864 24.927322,48.790897 19.984072,52.386523 20.48,54.510949 20.48,29.739703 20.48,18.33164 20.358486,8.922671 20.209969,8.8308825 19.529037,8.4100432 17.585498,9.3891326 16.234268,10.833707 c -2.324122,2.484673 -2.247458,1.098007 -1.93979,35.086292 0.298335,32.95731 0.166741,30.905213 2.118734,33.04 0.94981,1.038755 1.020743,0.960971 1.459069,-1.6 z m 55.551118,1.001369 c 2.044873,-2.430194 1.917846,-0.334755 2.028695,-33.4654 0.09249,-27.643443 0.05654,-30.231629 -0.433398,-31.2 -0.658394,-1.301339 -2.012699,-3.135956 -2.314982,-3.136004 -0.123044,-2e-5 -0.185099,15.080885 -0.137902,33.513121 0.05369,20.967399 -0.02992,33.845163 -0.223353,34.400036 -0.408119,1.170729 0.04086,1.124312 1.08094,-0.111753 z M 66.81115,28.56 66.719999,12.32 65.915719,10.883558 c -1.16845,-2.086847 -1.661419,-2.0238327 -3.951385,0.50509 -1.080384,1.193121 -4.520335,4.896538 -7.644335,8.229815 -7.818949,8.34274 -8.180253,7.104213 5.68,19.470661 6.303937,5.624522 6.382004,5.691442 6.651151,5.701495 0.138133,0.0052 0.210133,-7.29862 0.16,-16.230619 z"
         id="path139" />
      <path
         style="fill:#eefe90"
         d="M 18.08,86.727279 C 8.6194094,85.201809 8.4741778,84.508395 8.8629165,42.719999 9.2078038,5.645525 8.930639,7.3849705 14.966718,4.4134394 l 2.139854,-1.0534395 26.406713,0.035181 C 85.46941,3.4510774 81.684918,-0.92496987 81.534928,47.359999 l -0.09493,30.56 -0.919733,1.991159 c -1.080465,2.339133 -3.432415,4.715397 -5.986723,6.048613 l -1.733544,0.90482 -26.56,0.06034 C 31.631999,86.958118 18.96,86.869175 18.08,86.727279 Z m 31.119999,-5.76611 8.72,-0.0012 -0.0038,-1.2 C 57.862268,62.719833 31.096112,62.251766 29.218083,79.258147 l -0.183111,1.658149 1.242514,0.151088 c 0.683382,0.0831 3.258513,0.09346 5.722513,0.02302 2.464,-0.07044 8.404,-0.128593 13.2,-0.129237 z m -31.445266,-2.80117 c 3.561263,-23.804241 34.322353,-31.077554 47.36826,-11.2 1.748693,2.664417 1.757006,2.633198 1.757006,-6.598256 v -8.438256 l -4.24,-0.146034 C 56.927318,51.580696 57.498518,51.949985 46.071122,41.065452 31.777815,27.451155 31.782782,27.477465 41.475573,16.724485 48.489153,8.943766 48.451218,8.990267 47.94382,8.7955601 47.702391,8.7029152 44.340265,8.6660139 40.472429,8.7135573 L 33.439999,8.7999999 33.21088,25.6 c -0.394061,28.894238 -0.07167,26.559689 -3.300703,23.90137 -2.637759,-2.171548 -3.814702,-2.089202 -6.801312,0.475858 -2.713776,2.330736 -2.619345,3.077635 -2.624496,-20.758343 -0.0024,-11.121613 -0.127868,-20.2974405 -0.27881,-20.3907281 -0.606942,-0.3751104 -2.491417,0.5205994 -3.803396,1.8077911 -2.53504,2.487147 -2.430205,0.819174 -2.175934,34.619801 0.23651,31.439632 0.240292,31.508824 1.820386,33.308451 1.273749,1.45072 1.436367,1.412239 1.708118,-0.404201 z m 55.668666,0.201369 c 2.057255,-2.444909 1.927382,-0.292104 2.028827,-33.63015 C 75.555388,10.828927 75.71534,13.345893 73.312643,11.063329 72.033285,9.8479372 72.133128,8.3636384 72.356349,25.28 c 0.317887,24.090407 0.310538,51.91047 -0.01401,53.042111 -0.375079,1.307824 0.0021,1.321521 1.081062,0.03926 z m -6.5434,-49.571646 c 0,-24.6139819 1.024452,-24.315718 -16.735668,-4.872502 -2.790775,3.055251 -2.699786,3.530912 1.455668,7.609742 4.434944,4.353167 14.532279,13.273037 15.025141,13.273037 0.140172,0 0.254859,-7.204625 0.254859,-16.010277 z"
         id="path138" />
      <path
         style="fill:#ccfe94"
         d="M 18.08,86.727279 C 8.7133839,85.216961 8.5387654,84.424415 8.8070872,44.639999 9.0601171,7.1229404 8.9572957,7.7993002 14.88,4.6923144 l 1.92,-1.007211 27.679999,-0.00255 c 20.903663,-0.00193 27.993356,0.093199 28.96,0.3885711 2.511512,0.7674293 4.726405,2.3769753 5.849677,4.2509149 2.269617,3.7863726 2.150323,1.7094016 2.150323,37.4379616 v 32.16 l -0.919733,1.991159 c -1.080465,2.339133 -3.432415,4.715397 -5.986723,6.048613 l -1.733544,0.90482 -26.56,0.06034 C 31.631999,86.958118 18.96,86.869175 18.08,86.727279 Z m 31.119999,-5.76611 8.72,-0.0012 -0.0038,-1.2 C 57.862268,62.719833 31.096112,62.251766 29.218083,79.258147 l -0.183111,1.658149 1.242514,0.151088 c 0.683382,0.0831 3.258513,0.09346 5.722513,0.02302 2.464,-0.07044 8.404,-0.128593 13.2,-0.129237 z m -31.445266,-2.80117 c 3.561263,-23.804241 34.322353,-31.077554 47.36826,-11.2 1.748693,2.664417 1.757006,2.633198 1.757006,-6.598256 v -8.438256 l -4.24,-0.146034 C 56.927318,51.580696 57.498518,51.949985 46.071122,41.065452 32.489884,28.129397 32.113725,27.005678 38.936786,19.752707 50.305198,7.6679898 50.196132,8.3199999 40.849225,8.3199999 c -9.035222,0 -8.026718,-1.514942 -7.838153,11.7742221 0.08417,5.932177 0.07112,15.162363 -0.02902,20.511523 -0.215478,11.511087 -0.144515,11.305592 -3.07188,8.895625 C 27.272413,47.329822 26.09547,47.412168 23.10886,49.977228 20.43979,52.269572 20.64,53.947527 20.64,29.285688 20.64,9.7039562 20.614483,8.8064059 20.054689,8.6973503 18.372436,8.369624 15.689188,10.387293 14.628184,12.777813 c -0.61663,1.389312 -0.624761,2.029345 -0.404485,31.839999 0.237337,32.11963 0.238531,32.141874 1.822916,33.946388 1.273749,1.45072 1.436367,1.412239 1.708118,-0.404201 z m 55.668666,0.201369 c 2.057255,-2.444909 1.927382,-0.292104 2.028827,-33.63015 C 75.555388,10.828927 75.71534,13.345893 73.312643,11.063329 72.033285,9.8479372 72.133128,8.3636384 72.356349,25.28 c 0.317887,24.090407 0.310538,51.91047 -0.01401,53.042111 -0.375079,1.307824 0.0021,1.321521 1.081062,0.03926 z m -6.5434,-49.571646 c 0,-24.6139819 1.024452,-24.315718 -16.735668,-4.872502 -2.790775,3.055251 -2.699786,3.530912 1.455668,7.609742 4.434944,4.353167 14.532279,13.273037 15.025141,13.273037 0.140172,0 0.254859,-7.204625 0.254859,-16.010277 z"
         id="path137" />
      <path
         style="fill:#b0feab"
         d="M 18.08,86.727279 C 13.567908,85.999728 10.324262,83.045418 9.1128419,78.559999 8.7258464,77.127104 8.923778,14.963308 9.3227334,12.64 9.976297,8.8339871 11.711042,6.3535922 14.88,4.6940403 l 1.92,-1.0054851 26.879999,-0.00428 c 32.50048,-0.00517 32.243539,-0.038793 35.428489,4.6358141 2.42515,3.5594357 2.331511,2.0428967 2.331511,37.7599077 v 31.84 l -0.919733,1.991159 c -1.080465,2.339133 -3.432415,4.715397 -5.986723,6.048613 l -1.733544,0.90482 -26.56,0.06034 C 31.631999,86.958118 18.96,86.869175 18.08,86.727279 Z m 31.119999,-5.76611 8.72,-0.0012 -0.0038,-1.2 C 57.862268,62.719833 31.096112,62.251766 29.218083,79.258147 l -0.183111,1.658149 1.242514,0.151088 c 0.683382,0.0831 3.258513,0.09346 5.722513,0.02302 2.464,-0.07044 8.404,-0.128593 13.2,-0.129237 z m -31.445266,-2.80117 c 3.561263,-23.804241 34.322353,-31.077554 47.36826,-11.2 1.749157,2.665123 1.757006,2.63546 1.757006,-6.64 v -8.48 h -3.156323 c -6.737999,0 -6.133278,0.379944 -18.318056,-11.509156 -13.391374,-13.066418 -13.361714,-12.826025 -3.005621,-24.36048 3.168,-3.528469 5.76,-6.657265 5.76,-6.9528804 0,-0.7365226 -14.231507,-0.998868 -14.833556,-0.2734437 -0.25874,0.3117625 -0.385154,6.2929391 -0.444075,21.0110551 -0.09493,23.712461 0.112955,22.298108 -2.899166,19.724773 -2.617064,-2.235828 -3.420751,-2.26296 -6.104369,-0.206079 -3.343287,2.562489 -3.06238,4.304833 -3.156512,-19.578499 C 20.643708,9.7496477 20.613632,8.8036352 20.054689,8.6960179 18.981907,8.4894671 17.895511,8.9693919 16.477911,10.27609 c -2.660577,2.452434 -2.510337,0.20942 -2.307297,34.446826 0.192648,32.485134 0.159377,31.886158 1.879992,33.84583 1.269485,1.445863 1.432516,1.406759 1.704127,-0.408747 z m 55.668666,0.201369 c 2.120616,-2.520208 2.069722,-1.674371 2.134898,-35.481369 L 75.613511,14.24 74.89652,12.96 c -1.244871,-2.222392 -3.924621,-4.4191445 -3.025274,-2.48 0.58007,1.250731 1.028969,65.896903 0.471091,67.842111 -0.375079,1.307824 0.0021,1.321521 1.081062,0.03926 z M 67.021107,29.335969 C 67.271682,12.755427 67.219972,11.990351 65.714217,9.9999998 64.475984,8.3632673 64.162854,8.5699603 58.200063,14.96 45.989941,28.045005 46.562974,26.604102 51.599999,31.556005 c 4.035709,3.967508 14.527335,13.243994 14.978843,13.243994 0.114709,0 0.313728,-6.958813 0.442265,-15.46403 z"
         id="path136" />
      <path
         style="fill:#edfd6f"
         d="M 16.771311,86.359678 C 13.324029,85.577207 10.484504,82.782224 9.3752753,79.079661 8.7352708,76.943349 8.687042,16.336341 9.322405,12.64 9.9767203,8.8334012 11.711225,6.3534963 14.88,4.6940403 l 1.92,-1.0054851 26.879999,-0.00428 c 32.501054,-0.00517 32.246518,-0.03848 35.426819,4.6358141 2.395995,3.5215477 2.295673,2.0484217 2.418943,35.5199077 0.141536,38.43131 0.155431,38.346458 -6.86654,41.933678 l -1.539222,0.786322 -27.52,0.04836 C 29.628888,86.636431 17.530803,86.532069 16.771311,86.359678 Z M 58.110699,80.471609 C 60.412323,71.301205 46.546149,63.32031 36.79304,68.201895 32.151763,70.524928 28.049952,76.968009 28.944163,80.53083 l 0.18803,0.749169 H 43.519999 57.907806 Z M 18.033152,77.725128 c 2.473985,-23.669815 35.533866,-30.292372 47.774733,-9.570236 1.007688,1.70588 1.08385,1.113626 0.997257,-7.754893 l -0.08514,-8.72 -4.521415,-0.171942 C 56.429697,51.288676 54.27546,49.666108 38.97488,34.015994 c -6.036391,-6.174289 -5.715497,-7.864956 3.425119,-18.045631 3.168,-3.528469 5.76,-6.657265 5.76,-6.9528804 0,-0.7365226 -14.231507,-0.998868 -14.833556,-0.2734437 -0.25874,0.3117625 -0.385154,6.2929391 -0.444075,21.0110551 -0.09493,23.712461 0.112955,22.298108 -2.899166,19.724773 -2.617064,-2.235828 -3.420751,-2.26296 -6.104369,-0.206079 -3.343287,2.562489 -3.06238,4.304833 -3.156512,-19.578499 C 20.643708,9.7496477 20.613632,8.8036352 20.054689,8.6960179 18.981907,8.4894671 17.895511,8.9693919 16.477911,10.27609 c -2.660417,2.452287 -2.50856,0.196356 -2.329645,34.608145 l 0.158451,30.475764 0.7311,1.691745 c 1.433995,3.318225 2.689396,3.600453 2.995335,0.673384 z m 55.3134,0.754871 c 2.253082,-2.337951 2.121379,-0.304802 2.196331,-33.90549 L 75.610549,14.24 74.895039,12.96 c -1.23113,-2.20241 -3.98456,-4.4715621 -3.009277,-2.48 0.391461,0.799377 0.524333,67.201146 0.136697,68.313121 -0.418939,1.201767 -0.05223,1.115049 1.324093,-0.313122 z M 67.019727,29.492631 C 67.269773,12.742409 67.21935,11.989529 65.714217,9.9999998 64.475984,8.3632673 64.162854,8.5699603 58.200063,14.96 46.096778,27.930513 46.647782,26.67343 51.119999,31.112742 c 2.99452,2.972487 15.15096,13.964657 15.473221,13.991289 0.106272,0.0088 0.2982,-7.016347 0.426507,-15.6114 z"
         id="path135" />
      <path
         style="fill:#b0fe93"
         d="M 16.771311,86.359678 C 11.077915,85.06738 8.8463925,80.993843 8.8172932,71.839999 8.76899,56.645163 9.3650666,14.329816 9.6511831,12.642337 10.339112,8.5850199 11.971381,6.4224616 15.64916,4.6957462 l 2.049159,-0.9620796 26.59084,-0.00987 c 31.975676,-0.011872 31.653402,-0.054416 34.817659,4.5962978 2.395995,3.5215476 2.295673,2.0484216 2.418943,35.5199076 0.141536,38.43131 0.155431,38.346458 -6.86654,41.933678 l -1.539222,0.786322 -27.52,0.04836 C 29.628888,86.636431 17.530803,86.532069 16.771311,86.359678 Z M 58.110699,80.471609 C 60.412323,71.301205 46.546149,63.32031 36.79304,68.201895 32.151763,70.524928 28.049952,76.968009 28.944163,80.53083 l 0.18803,0.749169 H 43.519999 57.907806 Z M 18.033152,77.725128 c 2.473985,-23.669815 35.533866,-30.292372 47.774733,-9.570236 1.007688,1.70588 1.08385,1.113626 0.997257,-7.754893 l -0.08514,-8.72 -4.521415,-0.171942 C 56.429697,51.288676 54.27546,49.666108 38.97488,34.015994 33.379034,28.292315 33.572146,25.887661 40.207051,18.672812 49.667429,8.3855205 49.568698,8.5342836 47.155336,8.2034955 44.841344,7.8863277 33.816426,7.9740517 33.279999,8.3139001 c -0.418645,0.2652295 -0.48,2.9697739 -0.48,21.1587619 0,24.036196 0.203909,22.587874 -2.816797,20.007205 -2.617064,-2.235828 -3.420751,-2.26296 -6.104369,-0.206079 -3.42863,2.627901 -3.169934,4.321443 -2.90054,-18.98825 0.128865,-11.150181 0.138722,-20.6538648 0.02191,-21.1192973 -0.618886,-2.4658404 -5.915685,0.7948028 -6.961497,4.2854103 -0.787508,2.628469 0.184226,61.69809 1.048007,63.706001 1.383628,3.216331 2.644207,3.459115 2.946443,0.567476 z m 55.3134,0.754871 c 2.253082,-2.337951 2.121379,-0.304802 2.196331,-33.90549 L 75.610549,14.24 74.895039,12.96 c -1.23113,-2.20241 -3.98456,-4.4715621 -3.009277,-2.48 0.391461,0.799377 0.524333,67.201146 0.136697,68.313121 -0.418939,1.201767 -0.05223,1.115049 1.324093,-0.313122 z M 67.019727,29.492631 C 67.269773,12.742409 67.21935,11.989529 65.714217,9.9999998 64.475984,8.3632673 64.162854,8.5699603 58.200063,14.96 46.096778,27.930513 46.647782,26.67343 51.119999,31.112742 c 2.99452,2.972487 15.15096,13.964657 15.473221,13.991289 0.106272,0.0088 0.2982,-7.016347 0.426507,-15.6114 z"
         id="path134" />
      <path
         style="fill:#eafd47"
         d="m 17.410268,86.390206 c -3.418904,-0.677841 -5.766089,-2.526639 -7.300313,-5.750207 l -0.9899552,-2.08 0.088912,-32 C 9.3203758,6.443398 9.1174071,7.7623945 15.651177,4.6948019 l 2.051178,-0.963024 26.748822,-0.00341 c 31.094721,-0.00396 31.286353,0.016961 34.061427,3.7187638 2.74846,3.6662993 2.715394,3.2525583 2.956987,37.0004093 0.270333,37.762578 0.247178,37.898048 -7.069592,41.362769 l -1.92,0.909181 -26.88,-0.03481 c -14.784,-0.01915 -27.469379,-0.15166 -28.189731,-0.294479 z m 40.70649,-5.942741 c 0.122968,-0.489941 -0.07736,-1.902275 -0.486817,-3.43211 -4.11172,-15.362446 -25.897871,-13.766062 -28.689572,2.102234 -0.4069,2.312858 -1.420147,2.16241 14.56349,2.16241 H 57.907806 Z M 18.139741,77.334248 c 1.74837,-10.351075 10.070977,-18.995855 20.701485,-21.502851 9.240919,-2.179289 21.103356,3.070148 26.60108,11.77167 1.437273,2.274842 1.454491,2.18384 1.362836,-7.203068 l -0.08514,-8.72 -4.32,-0.180713 C 56.562059,51.255075 56.978023,51.554166 41.566334,36.519264 33.079463,28.239882 32.951693,26.562347 40.207051,18.672812 50.911384,7.0328342 50.961121,7.9999999 39.658194,7.9999999 c -7.975732,0 -7.02829,-2.9735484 -6.809012,21.3700981 0.205049,22.763843 0.227087,22.493008 -1.704213,20.944124 -3.682004,-2.952933 -4.378388,-3.170011 -6.140786,-1.914223 -0.555754,0.396 -1.576594,1.129725 -2.268532,1.630499 C 20.637499,51.548985 20.721604,52.495866 20.9787,30.2503 21.107341,19.1195 21.117015,9.6316732 21.0002,9.1662407 20.395016,6.7549933 15.088276,9.9452073 14.076085,13.328761 c -0.695763,2.325797 0.02507,62.388864 0.765577,63.791238 1.794729,3.398866 2.749697,3.460902 3.298079,0.214249 z m 55.154014,1.322764 c 2.238294,-2.238294 2.105841,-0.347159 2.363222,-33.741582 L 75.889157,14.790861 75.190082,13.39543 C 74.37473,11.767898 72.712044,9.9199998 72.062989,9.9199998 c -0.321102,0 -0.372277,0.1617012 -0.177227,0.5600002 0.391461,0.799377 0.524333,67.201146 0.136697,68.313121 -0.406617,1.166419 0.01378,1.121411 1.271296,-0.136109 z M 67.130256,29.413383 c 0.09599,-16.4783 0.0191,-17.536515 -1.410605,-19.4133832 -1.361814,-1.7877389 -1.95444,-1.2709949 -15.259035,13.3052092 -3.696423,4.049715 -3.237238,4.923813 7.56972,14.409591 1.732686,1.520859 4.324686,3.802167 5.76,5.069572 3.529529,3.116628 3.23705,4.287535 3.33992,-13.370989 z"
         id="path133" />
      <path
         style="fill:#b1fe6d"
         d="m 17.410268,86.390206 c -3.418904,-0.677841 -5.766089,-2.526639 -7.300313,-5.750207 l -0.9899552,-2.08 0.017877,-21.92 C 9.1589765,30.768592 9.0388759,32.143176 11.41613,30.564768 12.8186,29.63358 13.262669,29.470711 13.477,29.80891 c 0.338959,0.534853 0.318762,-0.366939 0.561482,25.071089 0.223981,23.474206 0.108803,22.307466 2.414614,24.459762 1.060883,0.990251 1.260804,0.741488 1.730761,-2.153596 1.920707,-11.832154 13.408425,-21.799518 25.14993,-21.821436 8.472027,-0.01581 17.536419,5.001847 22.108519,12.238338 1.437273,2.274842 1.454491,2.18384 1.362836,-7.203068 l -0.08514,-8.72 -4.32,-0.180713 C 56.562059,51.255075 56.978023,51.554166 41.566334,36.519264 33.079463,28.239882 32.951693,26.562347 40.207051,18.672812 50.124815,7.888156 50.056302,8.0179158 45.839999,8.0043694 43.985356,7.9984106 44.104602,7.79402 47.182435,5.7034092 L 49.85685,3.8868185 60.688425,3.8309131 c 15.885608,-0.081991 18.965393,1.3322453 20.248238,9.2979859 0.465417,2.889978 0.837669,59.970993 0.410477,62.942435 -0.652307,4.53728 -3.044645,7.891025 -6.947141,9.738979 l -1.92,0.909181 -26.88,-0.03481 c -14.784,-0.01915 -27.469379,-0.15166 -28.189731,-0.294478 z m 40.70649,-5.942741 c 0.122968,-0.489941 -0.07736,-1.902275 -0.486817,-3.43211 -4.11172,-15.362446 -25.897871,-13.766062 -28.689572,2.102234 -0.4069,2.312858 -1.420147,2.16241 14.56349,2.16241 h 14.403947 z m 15.176997,-1.790453 c 2.238294,-2.238294 2.105841,-0.347159 2.363222,-33.741582 L 75.889157,14.790861 75.190082,13.39543 C 74.37473,11.767898 72.712044,9.9199998 72.062989,9.9199998 c -0.321102,0 -0.372277,0.1617012 -0.177227,0.5600002 0.391461,0.799377 0.524333,67.201146 0.136697,68.313121 -0.406617,1.166419 0.01378,1.121411 1.271296,-0.136109 z M 67.130256,29.413383 c 0.09599,-16.4783 0.0191,-17.536515 -1.410605,-19.4133832 -1.361814,-1.7877389 -1.95444,-1.2709949 -15.259035,13.3052092 -3.696423,4.049715 -3.237238,4.923813 7.56972,14.409591 1.732686,1.520859 4.324686,3.802167 5.76,5.069572 3.529529,3.116628 3.23705,4.287535 3.33992,-13.370989 z M 20.898894,50.356151 C 20.504812,49.329191 21.07232,24.984886 21.51109,24.094862 21.73599,23.638662 22.856,22.612166 24,21.81376 28.493805,18.677501 32.05168,16.32 32.29103,16.32 c 0.441519,0 0.666019,6.840416 0.667514,20.338838 0.0016,14.724707 -0.04475,15.073962 -1.813575,13.655384 -4.201164,-3.369294 -4.438891,-3.389301 -7.88696,-0.663759 -1.730673,1.368018 -2.066416,1.46845 -2.359115,0.705688 z"
         id="path132" />
      <path
         style="fill:#90fe8b"
         d="m 17.410268,86.390206 c -3.418904,-0.677841 -5.766089,-2.526639 -7.300313,-5.750207 l -0.9899552,-2.08 0.092677,-22.24 c 0.109996,-26.396071 -0.07495,-24.242457 2.2122832,-25.761094 2.421523,-1.6078 2.319932,-2.137706 2.362122,12.321094 0.09215,31.579224 0.284608,34.237227 2.638087,36.433526 1.074181,1.00244 1.370326,0.734478 1.620588,-1.466366 0.469867,-4.132076 3.103003,-9.790345 6.115064,-13.140482 1.411686,-1.570135 6.290186,-5.826678 6.678059,-5.826678 0.101801,0 1.1257,-0.430807 2.275332,-0.957349 11.792174,-5.400927 25.367944,-1.335759 32.328094,9.680417 1.437273,2.274842 1.454491,2.18384 1.362836,-7.203068 l -0.08514,-8.72 -4.32,-0.180713 C 56.831643,51.266353 57.40353,51.614549 48.517817,43.047045 32.223632,27.336376 32.247562,27.407472 40.289725,18.601379 50.186812,7.7641616 50.05391,8.0179081 45.839999,8.0043694 43.982788,7.9984024 44.10322,7.7950155 47.216339,5.6799999 l 2.70832,-1.84 10.15767,0.00556 c 16.474049,0.00901 19.637481,1.538368 20.859244,10.0843721 0.461578,3.228645 0.827093,59.211836 0.405723,62.141406 -0.652649,4.537532 -3.044892,7.891068 -6.947297,9.738979 l -1.92,0.909181 -26.88,-0.03481 c -14.784,-0.01915 -27.469379,-0.15166 -28.189731,-0.294479 z m 40.70649,-5.942741 c 0.122968,-0.489941 -0.07736,-1.902275 -0.486817,-3.43211 -4.11172,-15.362446 -25.897871,-13.766062 -28.689572,2.102234 -0.4069,2.312858 -1.420147,2.16241 14.56349,2.16241 h 14.403947 z m 15.176997,-1.790453 c 2.239303,-2.239303 2.10607,-0.328884 2.36404,-33.897824 l 0.232702,-30.280811 -0.79541,-1.559189 c -1.437162,-2.81717 -4.355649,-4.6730496 -3.40129,-2.162895 0.484494,1.274314 0.844957,66.555781 0.374945,67.904059 -0.451214,1.294354 -0.07165,1.293319 1.225013,-0.0033 z M 67.280028,30.213697 C 67.57293,12.283324 67.502429,11.473339 65.472153,9.4430626 64.310981,8.2818909 64.694885,7.9758343 56.745676,16.4 45.874949,27.920243 46.288528,26.625264 51.759999,32.010879 c 4.486561,4.416159 14.507402,13.115564 14.96,12.987242 0.202848,-0.05751 0.407874,-5.470063 0.560029,-14.784424 z M 20.98029,50.017484 C 20.613756,49.062313 21.145716,24.879315 21.551884,24.032703 21.754348,23.61069 22.856,22.612166 24,21.81376 28.493805,18.677501 32.05168,16.32 32.29103,16.32 c 0.815934,0 0.646331,33.825977 -0.171176,34.139684 -0.228303,0.08761 -1.104667,-0.420784 -1.947476,-1.129759 -2.782792,-2.340903 -3.69909,-2.36451 -6.545353,-0.168629 -2.001987,1.544526 -2.340566,1.654052 -2.646735,0.856188 z"
         id="path131" />
      <path
         style="fill:#d5fd44"
         d="M 17.994529,86.377637 C 13.164973,85.535354 10.104769,82.376956 9.2946922,77.398644 8.9665994,75.382355 9.1217394,35.962907 9.4691299,33.075857 9.6541014,31.538618 12.897633,28.89471 13.477,29.80891 c 0.15026,0.237099 0.290913,6.119089 0.312564,13.071089 0.02165,6.952 0.131855,17.32 0.2449,23.04 l 0.205536,10.4 0.89004,1.514114 c 1.300822,2.212928 2.78996,2.888735 2.78996,1.266154 0,-3.222965 2.729514,-9.775589 5.600466,-13.444789 11.348105,-14.503369 32.916876,-13.043651 42.313563,2.863672 1.264085,2.139925 1.380874,1.419922 1.291032,-7.959151 l -0.08506,-8.88 L 62.67357,51.49008 C 57.029838,51.244605 57.097024,51.284718 48.502347,43.029028 32.278501,27.445074 32.260936,27.392828 40.289725,18.601379 50.186812,7.7641616 50.05391,8.0179081 45.839999,8.0043694 43.98042,7.9983948 44.101917,7.795953 47.248175,5.6580191 L 49.98833,3.7960384 61.074164,3.9162899 c 13.768855,0.1493551 15.397804,0.5709266 17.994098,4.6568666 2.149254,3.3824065 2.051737,1.6146335 2.051737,37.1935225 v 32.166679 l -1.05176,2.136476 c -1.167283,2.371144 -3.09557,4.28782 -5.66824,5.634113 l -1.6,0.837289 -26.56,0.06517 c -15.034894,0.03689 -27.291371,-0.06238 -28.24547,-0.228774 z m 33.12547,-5.096798 7.12,-8.4e-4 -0.0038,-1.36 C 58.190983,63.72829 33.393041,61.247255 29.304517,77.025382 c -1.222912,4.719374 -1.479857,4.583529 8.295482,4.385771 3.52,-0.07121 9.604,-0.129852 13.52,-0.130314 z m 22.219797,-2.48084 c 2.534541,-2.645465 2.328966,0.218318 2.433777,-33.90385 l 0.09357,-30.46385 -0.783735,-1.53615 c -1.432294,-2.807348 -4.338315,-4.635128 -3.38566,-2.129455 0.414544,1.090333 0.589831,66.679421 0.182247,68.193305 -0.369195,1.371293 0.03517,1.326972 1.459797,-0.16 z M 67.248398,28.8 C 67.370594,11.10586 67.394402,11.365312 65.472153,9.4430626 64.310981,8.2818909 64.694885,7.9758343 56.745676,16.4 46.265935,27.505895 46.609998,26.770385 50.159999,30.478325 53.552367,34.02162 66.598583,45.531149 66.881851,45.230546 67.022071,45.081745 67.187017,37.687999 67.248398,28.8 Z M 20.98029,50.017484 C 20.613756,49.062313 21.145716,24.879315 21.551884,24.032703 21.754348,23.61069 22.856,22.612166 24,21.81376 28.493805,18.677501 32.05168,16.32 32.29103,16.32 c 0.815934,0 0.646331,33.825977 -0.171176,34.139684 -0.228303,0.08761 -1.104667,-0.420784 -1.947476,-1.129759 -2.782792,-2.340903 -3.69909,-2.36451 -6.545353,-0.168629 -2.001987,1.544526 -2.340566,1.654052 -2.646735,0.856188 z"
         id="path130" />
      <path
         style="fill:#c8fd3b"
         d="M 17.994529,86.377637 C 13.103847,85.524694 10.099845,82.377509 9.2688731,77.236083 8.9157191,75.051033 9.0654448,48.478107 9.4762005,40.440168 L 9.6581154,36.880337 11.469058,35.54777 13.28,34.215204 l 0.23424,3.132398 c 0.128831,1.722818 0.344831,11.196397 0.48,21.052397 l 0.24576,17.92 0.89004,1.514114 c 1.300822,2.212928 2.78996,2.888735 2.78996,1.266154 0,-3.222965 2.729514,-9.775589 5.600466,-13.444789 11.348105,-14.503369 32.916876,-13.043651 42.313563,2.863672 1.264085,2.139925 1.380874,1.419922 1.291032,-7.959151 l -0.08506,-8.88 L 62.67357,51.49008 C 57.028274,51.244537 57.093976,51.283799 48.502347,43.021709 31.696265,26.860239 31.957701,27.948898 42.216895,16.848133 c 3.947666,-4.271496 4.370296,-4.634695 5.2,-4.468754 0.938506,0.187701 1.254017,-0.380466 0.583581,-1.050902 -0.410233,-0.410234 1.368298,-2.1236325 4.159523,-4.0071947 1.144,-0.7719891 2.600145,-1.8010383 3.235878,-2.286776 l 1.155877,-0.8831595 7.644122,-0.075673 c 10.057132,-0.099561 12.401879,0.6095021 14.872386,4.4974832 2.149254,3.382406 2.051737,1.614633 2.051737,37.193522 v 32.166679 l -1.05176,2.136476 c -1.167283,2.371144 -3.09557,4.28782 -5.66824,5.634113 l -1.6,0.837289 -26.56,0.06517 c -15.034894,0.03689 -27.291371,-0.06238 -28.24547,-0.228774 z m 33.12547,-5.096798 7.12,-8.4e-4 -0.0038,-1.36 C 58.190983,63.72829 33.393041,61.247255 29.304517,77.025382 c -1.222912,4.719374 -1.479857,4.583529 8.295482,4.385771 3.52,-0.07121 9.604,-0.129852 13.52,-0.130314 z m 22.219797,-2.48084 c 2.534541,-2.645465 2.328966,0.218318 2.433777,-33.90385 l 0.09357,-30.46385 -0.783735,-1.53615 c -1.432294,-2.807348 -4.338315,-4.635128 -3.38566,-2.129455 0.414544,1.090333 0.589831,66.679421 0.182247,68.193305 -0.369195,1.371293 0.03517,1.326972 1.459797,-0.16 z M 67.248398,28.8 C 67.370594,11.10586 67.394402,11.365312 65.472153,9.4430626 64.310981,8.2818909 64.694885,7.9758343 56.745676,16.4 46.265935,27.505895 46.609998,26.770385 50.159999,30.478325 53.552367,34.02162 66.598583,45.531149 66.881851,45.230546 67.022071,45.081745 67.187017,37.687999 67.248398,28.8 Z M 42.239999,18.72 c 0,-0.264 -0.216,-0.48 -0.48,-0.48 -0.264,0 -0.48,0.216 -0.48,0.48 0,0.264 0.216,0.48 0.48,0.48 0.264,0 0.48,-0.216 0.48,-0.48 z M 20.921695,49.721308 c -0.22385,-0.891889 0.08643,-15.467749 0.405565,-19.05236 0.187654,-2.107742 0.205934,-2.141875 1.671234,-3.120694 0.814828,-0.544305 3.236514,-2.214453 5.381524,-3.711442 l 3.900019,-2.721798 0.194017,1.362493 c 0.264695,1.858826 0.341044,7.624298 0.245945,18.572535 -0.09146,10.529678 -0.04657,10.383781 -2.547621,8.279883 -2.782792,-2.340903 -3.69909,-2.36451 -6.545353,-0.168629 -2.110725,1.628416 -2.421055,1.692655 -2.70533,0.560012 z"
         id="path129" />
      <path
         style="fill:#b0fd4e"
         d="M 17.994529,86.377637 C 13.104528,85.524813 10.102144,82.37984 9.2674409,77.236083 8.9033196,74.99223 9.1517769,46.745593 9.5653132,43.371552 9.752844,41.841489 12.737512,38.870845 13.410801,39.544133 c 0.100676,0.100677 0.328431,8.416432 0.506123,18.479457 L 14.24,76.319999 l 0.89004,1.514114 c 1.300822,2.212928 2.78996,2.888735 2.78996,1.266154 0,-3.222965 2.729514,-9.775589 5.600466,-13.444789 11.348105,-14.503369 32.916876,-13.043651 42.313563,2.863672 1.264085,2.139925 1.380874,1.419922 1.291032,-7.959151 l -0.08506,-8.88 -4.366429,-0.189919 C 56.758637,51.232809 54.75662,49.730811 38.973093,33.708985 c -3.358436,-3.409142 -4.923249,-7.040378 -3.431276,-7.962468 0.187999,-0.11619 0.264518,-0.412688 0.170043,-0.658886 -0.09448,-0.246197 -0.06829,-0.448045 0.05819,-0.448551 0.126476,-5.07e-4 0.517956,-0.445079 0.869956,-0.987939 0.63797,-0.983887 3.968143,-3.491141 4.636988,-3.491141 0.193657,0 0.734038,-0.381935 1.200846,-0.848744 0.466809,-0.466808 5.501732,-4.077743 11.188717,-8.024299 l 10.339974,-7.1755568 3.916737,-0.054804 c 5.94815,-0.083227 9.01087,1.1579534 11.145001,4.5165599 2.149254,3.3824069 2.051737,1.6146339 2.051737,37.1935229 v 32.166679 l -1.05176,2.136476 c -1.167283,2.371144 -3.09557,4.28782 -5.66824,5.634113 l -1.6,0.837289 -26.56,0.06517 c -15.034894,0.03689 -27.291371,-0.06238 -28.24547,-0.228774 z m 33.12547,-5.096798 7.12,-8.4e-4 -0.0038,-1.36 C 58.190983,63.72829 33.393041,61.247255 29.304517,77.025382 c -1.222912,4.719374 -1.479857,4.583529 8.295482,4.385771 3.52,-0.07121 9.604,-0.129852 13.52,-0.130314 z m 22.219797,-2.48084 c 2.534541,-2.645465 2.328966,0.218318 2.433777,-33.90385 l 0.09357,-30.46385 -0.783735,-1.53615 c -1.432294,-2.807348 -4.338315,-4.635128 -3.38566,-2.129455 0.414544,1.090333 0.589831,66.679421 0.182247,68.193305 -0.369195,1.371293 0.03517,1.326972 1.459797,-0.16 z M 67.248398,28.8 C 67.370594,11.10586 67.394402,11.365312 65.472153,9.4430626 64.310981,8.2818909 64.694885,7.9758343 56.745676,16.4 46.265935,27.505895 46.609998,26.770385 50.159999,30.478325 53.552367,34.02162 66.598583,45.531149 66.881851,45.230546 67.022071,45.081745 67.187017,37.687999 67.248398,28.8 Z M 20.917063,49.702853 c -0.240392,-0.957797 0.08675,-13.029631 0.403901,-14.904352 0.237021,-1.401056 10.721126,-9.150456 10.943254,-8.088783 0.05732,0.273964 0.260682,0.401417 0.451917,0.283227 0.247361,-0.152878 0.286545,0.922449 0.135782,3.726323 -0.116555,2.167667 -0.211918,7.451124 -0.211918,11.741015 0,8.968405 0.0063,8.950754 -2.467621,6.869642 -2.782792,-2.340903 -3.69909,-2.36451 -6.545353,-0.168629 -2.116874,1.63316 -2.420746,1.693886 -2.709962,0.541557 z"
         id="path128" />
      <path
         style="fill:#b7fd36"
         d="M 17.994529,86.377637 C 13.107133,85.525267 10.110997,82.388813 9.2619468,77.236083 8.7777571,74.297625 9.2232085,42.788546 9.7612472,41.917981 9.8742455,41.735146 10.712191,41.082588 11.623349,40.467852 L 13.28,39.350151 l 0.204224,1.364924 c 0.112323,0.750708 0.234213,4.172924 0.270867,7.604924 0.03665,3.432 0.160753,11.136 0.275776,17.12 l 0.209133,10.88 0.89004,1.514114 c 1.300822,2.212928 2.78996,2.888735 2.78996,1.266154 0,-3.222965 2.729514,-9.775589 5.600466,-13.444789 11.348105,-14.503369 32.916876,-13.043651 42.313563,2.863672 1.264085,2.139925 1.380874,1.419922 1.291032,-7.959151 l -0.08506,-8.88 L 62.67357,51.49008 C 57.066967,51.24622 57.104233,51.267953 48.971296,43.499111 36.76798,31.842112 35.210549,29.846987 35.602146,26.372749 35.856873,24.112822 39.475493,20.16 41.289622,20.16 c 0.186707,0 0.721403,-0.381935 1.188211,-0.848744 0.466809,-0.466808 5.512448,-4.08518 11.212531,-8.040825 L 64.05415,4.0783489 68.267075,4.2364286 C 81.335658,4.7267953 81.347233,4.7653534 81.214928,47.367018 l -0.09493,30.567019 -1.05176,2.136136 c -1.167285,2.37077 -3.095891,4.287649 -5.66824,5.633774 l -1.6,0.837289 -26.56,0.06517 c -15.034894,0.03689 -27.291371,-0.06238 -28.24547,-0.228774 z m 33.12547,-5.096798 7.12,-8.4e-4 -0.0038,-1.36 C 58.190983,63.72829 33.393041,61.247255 29.304517,77.025382 c -1.222912,4.719374 -1.479857,4.583529 8.295482,4.385771 3.52,-0.07121 9.604,-0.129852 13.52,-0.130314 z m 22.219797,-2.48084 c 2.535042,-2.645988 2.328971,0.23833 2.433714,-34.063975 L 75.867021,14.11205 75.069242,12.537708 C 73.782431,9.9983096 70.99474,8.1891882 71.30103,10.092261 71.3566,10.437517 71.543897,11.584 71.717252,12.64 c 0.398374,2.426723 0.551621,64.875608 0.162747,66.319999 -0.369195,1.371293 0.03517,1.326972 1.459797,-0.16 z M 67.297286,29.054695 C 67.517516,11.451751 67.502575,11.265692 65.716767,9.3721843 64.25106,7.8180824 64.338355,7.7571478 57.56755,15.060648 c -1.865848,2.012643 -4.719369,5.079021 -6.34116,6.814173 -4.685968,5.013512 -4.674722,5.475081 0.244488,10.034466 6.761737,6.267134 15.118136,13.550551 15.368952,13.395538 0.140872,-0.08706 0.346727,-7.399622 0.457456,-16.25013 z M 21.123521,43.279999 c 0.005,-10.371002 -0.577951,-9.003845 5.695813,-13.357609 2.91231,-2.021037 5.369575,-3.600148 5.460588,-3.509135 0.09101,0.09101 0.198253,5.498007 0.238312,12.015543 0.08313,13.526012 0.192029,13.06087 -2.516035,10.747298 -2.729701,-2.332056 -3.56202,-2.3372 -6.519982,-0.04029 -1.008746,0.783309 -1.952914,1.424197 -2.098151,1.424197 -0.145236,0 -0.262482,-3.276 -0.260545,-7.28 z"
         id="path127" />
      <path
         style="fill:#90fe52"
         d="M 17.994529,86.377637 C 13.042037,85.513914 10.07674,82.358148 9.2453665,77.066493 8.8788399,74.733568 9.0555665,54.277435 9.4868276,49.11733 l 0.1874335,-2.24267 1.8545919,-1.336173 1.854592,-1.336172 0.202283,2.938842 c 0.111256,1.616363 0.303981,8.842842 0.428278,16.058842 l 0.225994,13.12 0.89004,1.514114 c 1.300822,2.212928 2.78996,2.888735 2.78996,1.266154 0,-3.222965 2.729514,-9.775589 5.600466,-13.444789 11.348105,-14.503369 32.916876,-13.043651 42.313563,2.863672 1.264085,2.139925 1.380874,1.419922 1.291032,-7.959151 l -0.08506,-8.88 L 62.67357,51.49008 C 57.06462,51.246118 57.107763,51.271325 48.931314,43.460919 39.475122,34.428061 34.969328,29.32699 35.881569,28.687124 c 0.06514,-0.04569 1.19843,-0.837409 2.51843,-1.75938 1.32,-0.92197 3.870774,-2.713883 5.668386,-3.982027 1.797612,-1.268145 4.461612,-3.120568 5.92,-4.116498 1.458388,-0.995929 4.127614,-2.829596 5.931614,-4.074815 1.804,-1.245219 3.28,-2.126427 3.28,-1.958239 0,0.315748 -3.611598,4.41539 -8.255887,9.371524 -4.368256,4.661567 -4.337341,5.233285 0.526766,9.741598 7.432748,6.889063 15.168902,13.577923 15.407168,13.321396 0.138277,-0.148876 0.303285,-7.694275 0.366683,-16.767554 l 0.11527,-16.49687 -0.989848,-1.893191 -0.989847,-1.8931903 2.721238,-1.8863906 c 4.390028,-3.0432127 8.915375,-1.5967625 11.61509,3.7125659 1.549357,3.047005 1.600873,4.331596 1.498296,37.360965 l -0.09493,30.567019 -1.05176,2.136136 c -1.167285,2.37077 -3.095891,4.287649 -5.66824,5.633774 l -1.6,0.837289 -26.56,0.06517 c -15.034894,0.03689 -27.291371,-0.06238 -28.24547,-0.228774 z m 33.12547,-5.096798 7.12,-8.4e-4 -0.0038,-1.36 C 58.190983,63.72829 33.393041,61.247255 29.304517,77.025382 c -1.222912,4.719374 -1.479857,4.583529 8.295482,4.385771 3.52,-0.07121 9.604,-0.129852 13.52,-0.130314 z m 22.219797,-2.48084 c 2.535042,-2.645988 2.328971,0.23833 2.433714,-34.063975 L 75.867021,14.11205 75.069242,12.537708 C 73.782431,9.9983096 70.99474,8.1891882 71.30103,10.092261 71.3566,10.437517 71.543897,11.584 71.717252,12.64 c 0.398374,2.426723 0.551621,64.875608 0.162747,66.319999 -0.369195,1.371293 0.03517,1.326972 1.459797,-0.16 z m -52.217015,-32.64 c 0.0015,-2.42 0.09264,-5.12 0.202474,-6 l 0.199692,-1.6 5.258074,-3.632785 c 2.89194,-1.998032 5.30482,-3.582032 5.361954,-3.52 0.05713,0.06203 0.208933,4.322764 0.337331,9.468293 0.271362,10.874756 0.324564,10.696695 -2.480107,8.300589 -2.729701,-2.332056 -3.56202,-2.3372 -6.519982,-0.04029 -2.453198,1.90495 -2.362594,2.019224 -2.359436,-2.975803 z"
         id="path126" />
      <path
         style="fill:#a7fd32"
         d="M 17.935516,86.369144 C 13.926956,85.674179 10.878348,83.02606 9.7629838,79.270221 9.2566739,77.565291 9.0348831,53.682463 9.4814657,48.955845 l 0.196916,-2.084154 1.8808093,-1.355061 c 1.034445,-0.745284 1.899005,-1.319414 1.921245,-1.275846 0.02224,0.04357 0.148548,7.063215 0.280685,15.599215 0.264406,17.080498 0.275453,17.174622 2.260638,19.261484 1.499458,1.576258 1.653744,1.471104 2.203021,-1.501484 1.299013,-7.030026 7.231086,-15.707021 12.622801,-18.463693 7.883926,-4.030889 15.396638,-4.640286 21.642347,-1.755529 1.314539,0.607157 2.95253,1.3389 3.639979,1.626096 2.681952,1.12044 7.587341,5.928853 9.704122,9.512277 1.264085,2.139925 1.380874,1.419922 1.291032,-7.959151 l -0.08506,-8.88 -4.16,-0.195167 c -6.011848,-0.282047 -4.97752,0.35248 -14.715884,-9.02772 C 34.191081,28.997986 34.538969,29.55498 38.434963,26.88 c 1.40985,-0.968 3.989514,-2.768 5.732586,-4 1.743072,-1.232 4.362448,-3.054851 5.820836,-4.050781 1.458388,-0.995929 4.127614,-2.829596 5.931614,-4.074815 1.804,-1.245219 3.28,-2.126427 3.28,-1.958239 0,0.315748 -3.611598,4.41539 -8.255887,9.371524 -4.719082,5.035949 -3.79315,7.160911 6.867898,15.76144 1.084606,0.874979 3.506586,2.941691 5.382176,4.592695 4.472362,3.936832 4.082586,5.269739 4.127623,-14.115122 l 0.03819,-16.437676 -0.989848,-1.894574 -0.989847,-1.8945743 2.721238,-1.8863906 c 5.55196,-3.8486761 11.404161,-0.269585 12.594785,7.7027229 0.259903,1.740283 0.378834,11.681141 0.397307,33.208853 l 0.02637,30.725064 -1.05176,2.138091 c -1.167276,2.372923 -3.094041,4.288636 -5.66824,5.635729 l -1.6,0.837289 -26.56,0.06517 C 30.678183,86.644598 18.95763,86.546348 17.935516,86.369144 Z m 33.184483,-5.088305 7.12,-8.4e-4 -0.0038,-1.36 C 58.190929,63.708974 33.397918,61.228432 29.304517,77.025382 c -1.222912,4.719374 -1.479857,4.583529 8.295482,4.385771 3.52,-0.07121 9.604,-0.129852 13.52,-0.130314 z m 22.219797,-2.48084 c 2.497023,-2.606304 2.290127,0.15038 2.550997,-33.989556 l 0.233435,-30.549556 -0.844964,-1.552476 c -1.436765,-2.639812 -4.32387,-4.5464928 -3.961387,-2.61615 0.593021,3.15803 1.112674,66.822828 0.562122,68.867738 -0.369195,1.371293 0.03517,1.326972 1.459797,-0.16 z m -52.02457,-28.47144 c -0.254707,-0.254707 -0.247725,-8.101054 0.009,-10.16856 l 0.198712,-1.6 5.098341,-3.52 c 2.804087,-1.936 5.233415,-3.568 5.398506,-3.626666 0.182527,-0.06486 0.300165,3.603446 0.300165,9.36 0,6.185697 -0.112472,9.466666 -0.32452,9.466666 -0.178487,0 -1.12009,-0.648 -2.092453,-1.44 -2.471772,-2.013286 -3.548295,-1.98915 -6.328673,0.141893 -1.135145,0.870042 -2.151752,1.494042 -2.259127,1.386667 z M 23.04,48.159999 c 0,-0.264 -0.135502,-0.48 -0.301115,-0.48 -0.403513,0 -0.69251,0.499709 -0.436852,0.755367 C 22.662411,48.795744 23.04,48.65485 23.04,48.159999 Z"
         id="path125" />
      <path
         style="fill:#97fd2d"
         d="M 17.935516,86.369144 C 9.9596196,84.98636 7.7604832,76.688009 9.4882798,54.493843 l 0.204444,-2.626156 1.8736382,-1.314282 c 1.030501,-0.722855 1.887457,-1.269085 1.904348,-1.213844 0.01689,0.05524 0.146806,5.932438 0.288701,13.060438 0.284318,14.28253 0.337959,14.678532 2.262348,16.701484 1.499458,1.576258 1.653744,1.471104 2.203021,-1.501484 1.299013,-7.030026 7.231086,-15.707021 12.622801,-18.463693 7.883926,-4.030889 15.396638,-4.640286 21.642347,-1.755529 1.314539,0.607157 2.95253,1.3389 3.639979,1.626096 2.681952,1.12044 7.587341,5.928853 9.704122,9.512277 1.264085,2.139925 1.380874,1.419922 1.291032,-7.959151 l -0.08506,-8.88 -4.16,-0.195167 c -6.100452,-0.286204 -5.124465,0.349734 -16.32,-10.633856 -7.172367,-7.036587 -7.639753,-7.564329 -7.071112,-7.984248 0.334889,-0.247301 0.514422,-0.602489 0.398962,-0.789306 -0.431358,-0.697952 0.275032,-1.444943 3.272602,-3.460705 1.693751,-1.138989 3.403548,-2.301264 3.799548,-2.582834 0.714972,-0.508371 0.719992,-0.502176 0.718891,0.887085 -0.0012,1.495134 4.865319,6.785402 10.13312,11.01549 1.084606,0.870948 3.495508,2.924719 5.357559,4.563935 1.862051,1.639217 3.510427,2.903215 3.663057,2.808884 0.327051,-0.202128 0.666963,-11.269561 0.750226,-24.427145 l 0.05922,-9.357868 1.212103,-0.802132 c 2.770289,-1.833291 2.693033,-2.345644 3.11192,20.637867 0.475058,26.065473 0.467903,45.465256 -0.01736,47.084937 -0.509174,1.69947 -0.14763,1.871576 1.204105,0.57319 2.697633,-2.591166 2.472657,0.219117 2.736753,-34.186234 0.265064,-34.532488 0.50132,-31.090158 -2.375223,-34.607642 L 72.109871,8.5068024 73.858354,7.3201056 C 75.669329,6.0909945 76.009383,6.0679931 77.466862,7.0760253 80.940287,9.4783419 81.06242,10.8297 81.093634,47.205063 l 0.02637,30.725064 -1.05176,2.138091 c -1.167276,2.372923 -3.094041,4.288636 -5.66824,5.635729 l -1.6,0.837289 -26.56,0.06517 C 30.678183,86.644598 18.95763,86.546348 17.935516,86.369144 Z m 33.184483,-5.088305 7.12,-8.4e-4 -0.0038,-1.36 C 58.190929,63.708974 33.397918,61.228432 29.304517,77.025382 c -1.222912,4.719374 -1.479857,4.583529 8.295482,4.385771 3.52,-0.07121 9.604,-0.129852 13.52,-0.130314 z M 21.230882,50.067391 c -0.166748,-0.434539 0.113513,-6.299059 0.305909,-6.401197 0.03477,-0.01846 1.575209,-1.103307 3.423209,-2.41078 8.174283,-5.783362 7.359999,-6.039808 7.359999,2.317919 0,7.500997 0.102681,7.278952 -2.416973,5.226666 -2.48107,-2.020859 -3.544575,-1.992002 -6.369023,0.17282 -1.724901,1.322064 -2.140103,1.519392 -2.303121,1.094572 z M 23.04,48.159999 c 0,-0.264 -0.216,-0.48 -0.48,-0.48 -0.264,0 -0.48,0.216 -0.48,0.48 0,0.264 0.216,0.48 0.48,0.48 0.264,0 0.48,-0.216 0.48,-0.48 z"
         id="path124" />
      <path
         style="fill:#6ffe51"
         d="M 17.935516,86.369144 C 10.109661,85.012373 8.1421288,78.848733 9.4869649,59.90258 l 0.206965,-2.915739 1.8730351,-1.313859 c 1.030169,-0.722623 1.880814,-1.268662 1.890321,-1.213421 0.0095,0.05524 0.144254,4.780438 0.299437,10.500438 0.311826,11.493878 0.426298,12.208569 2.265036,14.141484 1.499458,1.576258 1.653744,1.471104 2.203021,-1.501484 1.299013,-7.030026 7.231086,-15.707021 12.622801,-18.463693 7.883926,-4.030889 15.396638,-4.640286 21.642347,-1.755529 1.314539,0.607157 2.95253,1.3389 3.639979,1.626096 2.681952,1.12044 7.587341,5.928853 9.704122,9.512277 1.264085,2.139925 1.380874,1.419922 1.291032,-7.959151 l -0.08506,-8.88 -4.16,-0.195167 c -6.034444,-0.283107 -5.442879,0.08341 -14.755386,-9.141995 -7.929321,-7.855157 -7.593903,-6.843252 -3.27198,-9.87107 4.19272,-2.937303 3.355412,-3.100705 8.699609,1.697747 2.008324,1.803236 4.235199,3.744782 4.94861,4.314548 0.713412,0.569765 2.828549,2.386758 4.700305,4.037762 4.286214,3.780702 3.905527,4.795108 4.270752,-11.380132 0.340025,-15.059135 0.227943,-14.278969 2.28496,-15.904769 1.331599,-1.052454 1.453593,-1.090452 1.665118,-0.518645 0.695079,1.878978 1.188046,61.519421 0.526742,63.726658 -0.713468,2.381342 1.507442,1.057033 3.026938,-1.804937 0.925534,-1.743243 1.560347,-61.396682 0.677376,-63.653102 -0.538423,-1.375935 -0.541874,-1.370526 2.168428,-3.3992574 l 0.861472,-0.6448344 0.803632,1.3712938 c 1.529668,2.61018 1.588023,3.946062 1.611515,36.890964 l 0.02191,30.725064 -1.05176,2.138091 c -1.167276,2.372923 -3.094041,4.288636 -5.66824,5.635729 l -1.6,0.837289 -26.56,0.06517 C 30.678183,86.644598 18.95763,86.546348 17.935516,86.369144 Z m 33.184483,-5.088305 7.12,-8.4e-4 -0.0038,-1.36 C 58.190929,63.708974 33.397918,61.228432 29.304517,77.025382 c -1.222912,4.719374 -1.479857,4.583529 8.295482,4.385771 3.52,-0.07121 9.604,-0.129852 13.52,-0.130314 z M 21.44,49.639181 c 0,-0.390384 0.204102,-0.679182 0.48,-0.679182 0.264,0 0.48,0.126368 0.48,0.280818 0,0.15445 -0.216,0.460082 -0.48,0.679182 -0.401025,0.332821 -0.48,0.286618 -0.48,-0.280818 z m 8.490402,-0.852078 c -1.995542,-1.787927 -3.354245,-2.106656 -5.041249,-1.182593 -3.487726,1.910416 -0.942885,-0.618629 4.047974,-4.022848 3.517956,-2.399565 3.382872,-2.500081 3.382872,2.517223 0,4.775919 -0.02637,4.80558 -2.389597,2.688218 z"
         id="path123" />
      <path
         style="fill:#87fd28"
         d="M 21.92,86.422961 C 10.264125,85.867421 7.9884806,81.01334 9.4869649,59.90258 l 0.206965,-2.915739 1.8730351,-1.313859 c 1.154411,-0.809774 1.886483,-1.152551 1.908086,-0.893421 0.01928,0.231241 0.127278,5.172438 0.24,10.980438 l 0.204949,10.56 0.866885,1.474603 C 16.321958,80.405819 18.24,81.055147 18.24,78.96361 c 0,-7.321951 7.328492,-17.390935 15.124496,-20.780307 8.566801,-3.724483 13.110615,-3.48875 23.122087,1.199574 2.190842,1.02596 6.247201,4.840674 8.372564,7.873795 2.434482,3.474264 2.361615,3.689629 2.265759,-6.696673 l -0.08491,-9.2 -4.524747,-0.172049 C 56.722861,50.9677 56.127405,50.562414 45.169568,39.381904 c -4.520609,-4.612471 -4.491844,-3.985313 -0.316935,-6.910137 4.248897,-2.976659 3.099456,-3.334562 10.42258,3.245292 10.631658,9.552585 11.301625,10.107329 11.753616,9.73221 0.332175,-0.27568 0.446808,-3.260545 0.544553,-14.179228 0.134379,-15.010886 0.04322,-14.34152 2.183487,-16.033118 1.427014,-1.127866 1.438882,-1.13079 1.730068,-0.42629 0.366858,0.887583 0.455674,63.466909 0.0915,64.469366 -0.831929,2.290027 2.272344,-0.196125 3.379559,-2.706624 l 0.817402,-1.853376 0.218364,-30.24 c 0.200364,-27.747566 0.17463,-30.342896 -0.312227,-31.488422 l -0.53059,-1.248422 0.904527,-0.755341 c 0.49749,-0.415437 1.292189,-1.0455154 1.765999,-1.4001744 l 0.861472,-0.6448344 0.803632,1.3712938 c 1.409955,2.405907 1.481278,4.078248 1.559478,36.5659 l 0.07395,30.72 -0.987701,2.08 c -1.185322,2.496172 -3.315213,4.682892 -5.771822,5.925823 l -1.800973,0.911209 -22.919752,0.06735 C 37.033888,86.621428 24.56,86.548788 21.92,86.422961 Z M 58.18845,80.159999 C 59.609029,63.39354 33.261811,61.073188 28.975081,77.58723 c -1.126539,4.339836 -2.268499,4.033908 14.692133,3.935983 l 14.412785,-0.08321 z M 21.44,49.639181 c 0,-0.390384 0.204102,-0.679182 0.48,-0.679182 0.264,0 0.48,0.126368 0.48,0.280818 0,0.15445 -0.216,0.460082 -0.48,0.679182 -0.401025,0.332821 -0.48,0.286618 -0.48,-0.280818 z m 8.490402,-0.852078 c -1.995542,-1.787927 -3.354245,-2.106656 -5.041249,-1.182593 -3.487726,1.910416 -0.942885,-0.618629 4.047974,-4.022848 3.517956,-2.399565 3.382872,-2.500081 3.382872,2.517223 0,4.775919 -0.02637,4.80558 -2.389597,2.688218 z"
         id="path122" />
      <path
         style="fill:#50fe4d"
         d="M 21.92,86.422961 C 10.729361,85.889595 8.0166168,81.094858 9.5597472,64.576391 L 9.7599998,62.432782 11.6,61.146345 c 1.73952,-1.216187 1.841654,-1.247663 1.870297,-0.576392 0.01666,0.390525 0.124663,4.094046 0.24,8.230046 0.207048,7.424809 0.220676,7.538666 1.076588,8.994603 1.535073,2.611217 3.453115,3.260545 3.453115,1.169008 0,-7.321951 7.328492,-17.390935 15.124496,-20.780307 8.566801,-3.724483 13.110615,-3.48875 23.122087,1.199574 2.190842,1.02596 6.247201,4.840674 8.372564,7.873795 2.434482,3.474264 2.361615,3.689629 2.265759,-6.696673 l -0.08491,-9.2 -4.524747,-0.172049 c -5.457365,-0.207511 -5.318018,-0.13454 -11.282016,-5.907951 -6.713376,-6.498841 -6.868315,-6.702442 -5.755357,-7.562963 1.198046,-0.926311 6.31637,-4.437037 6.468801,-4.437037 0.233863,0 6.682829,5.424875 10.769986,9.059719 5.120147,4.553517 4.802892,4.927152 4.804988,-5.658901 9.11e-4,-4.59845 0.09537,-9.776118 0.209913,-11.505929 l 0.208258,-3.145112 1.62358,-1.093383 1.623581,-1.093383 0.30582,0.718495 c 0.37832,0.888828 0.461145,57.68482 0.08563,58.718494 -0.833146,2.293376 2.275028,-0.198926 3.375455,-2.706624 l 0.813299,-1.853376 0.204389,-26.4 c 0.112415,-14.52 0.291566,-27.696649 0.398115,-29.281444 l 0.193726,-2.881444 1.79829,-1.334195 1.79829,-1.334194 0.277393,0.855639 c 0.393521,1.21384 0.880993,32.111664 0.773315,49.015638 l -0.09071,14.24 -0.987701,2.08 c -1.185322,2.496172 -3.315213,4.682892 -5.771822,5.925823 l -1.800973,0.911209 -22.919752,0.06735 C 37.033888,86.621428 24.56,86.548788 21.92,86.422961 Z M 58.18845,80.159999 C 59.609029,63.39354 33.261811,61.073188 28.975081,77.58723 c -1.126539,4.339836 -2.268499,4.033908 14.692133,3.935983 l 14.412785,-0.08321 z M 53.759999,35.538885 c 0,-0.377555 -0.624113,-0.781439 -0.853333,-0.552219 -0.22922,0.22922 0.174663,0.853333 0.552219,0.853333 0.165613,0 0.301114,-0.135501 0.301114,-0.301114 z M 31.086515,49.489512 c -0.879677,-0.936373 -0.864547,-1.299256 0.07998,-1.91813 0.723903,-0.47432 0.777,-0.46303 0.95563,0.203196 0.537101,2.003184 0.02769,2.846758 -1.035605,1.714934 z"
         id="path121" />
      <path
         style="fill:#73fd25"
         d="M 17.808156,86.071246 C 10.781284,84.860877 8.6516705,79.893758 9.4259096,66.520458 l 0.2338667,-4.039541 1.8901117,-1.304283 c 1.778101,-1.226989 1.891907,-1.262573 1.920409,-0.600459 0.01666,0.387103 0.124663,4.087824 0.24,8.223824 0.208789,7.487229 0.213602,7.526634 1.104582,9.042372 1.908154,3.246159 3.116828,3.188447 3.651875,-0.174367 3.749071,-23.563225 33.272053,-29.615633 46.769236,-9.588005 2.253874,3.344384 2.284009,3.244283 2.284009,-7.58699 0,-10.117377 0.496882,-9.183224 -4.971847,-9.347214 -5.22448,-0.156666 -5.734648,-0.420247 -11.311011,-5.84388 -6.741962,-6.557307 -6.870068,-6.726022 -5.759262,-7.584879 1.198046,-0.926311 6.31637,-4.437037 6.468801,-4.437037 0.233849,0 6.682728,5.424784 10.76927,9.059088 5.054045,4.494738 4.608343,5.198952 4.838751,-7.645285 0.107087,-5.969591 0.215087,-11.245977 0.24,-11.725301 0.03487,-0.670938 0.430424,-1.130857 1.718791,-1.998495 l 1.673494,-1.126996 0.303161,0.718495 c 0.59564,1.411677 0.654111,56.69163 0.06153,58.172635 -0.637614,1.593554 -0.638039,1.585859 0.08757,1.585859 0.329584,0 1.187591,-0.638281 1.90668,-1.418401 2.562985,-2.78051 2.37381,-0.350522 2.585239,-33.207928 0.185703,-28.859414 0.199455,-29.354333 0.828836,-29.828794 0.352,-0.265356 1.239049,-0.919155 1.97122,-1.452886 l 1.331219,-0.97042 0.359642,2.159215 c 0.25309,1.519499 0.332722,11.08071 0.26878,32.271687 l -0.09086,30.112473 -1.12,2.195107 c -1.309458,2.566429 -4.053814,5.013559 -6.4058,5.712024 -1.673916,0.4971 -52.664039,0.661811 -55.466043,0.17917 z M 58.500911,80.391449 C 59.067291,74.506375 53.503689,67.61507 47.104248,66.275076 38.031811,64.375377 28.48,71.404406 28.48,79.980373 c 0,1.717457 -0.830143,1.633067 15.176491,1.542784 l 14.743508,-0.08316 z M 53.759999,35.538885 c 0,-0.377555 -0.624113,-0.781439 -0.853333,-0.552219 -0.22922,0.22922 0.174663,0.853333 0.552219,0.853333 0.165613,0 0.301114,-0.135501 0.301114,-0.301114 z M 31.086515,49.489512 c -0.879677,-0.936373 -0.864547,-1.299256 0.07998,-1.91813 0.723903,-0.47432 0.777,-0.46303 0.95563,0.203196 0.537101,2.003184 0.02769,2.846758 -1.035605,1.714934 z"
         id="path120" />
      <path
         style="fill:#65fd1d"
         d="M 17.808156,86.071246 C 11.340185,84.957147 9.2469236,81.060294 9.5254037,70.651922 l 0.074596,-2.788076 1.8661293,-1.267264 1.866128,-1.267264 0.31032,5.518783 c 0.336713,5.988167 0.891636,7.746395 2.849832,9.029455 1.208904,0.792104 1.559121,0.400165 1.974345,-2.209552 3.728437,-23.433537 33.346339,-29.505404 46.769236,-9.588005 2.253874,3.344384 2.284009,3.244283 2.284009,-7.58699 0,-10.117377 0.496882,-9.183224 -4.971847,-9.347214 -5.241448,-0.157175 -5.844372,-0.469736 -10.828771,-5.613733 -4.29724,-4.434835 -4.279758,-3.847386 -0.199382,-6.699844 4.245111,-2.967619 3.335033,-3.277536 11.692443,3.981735 4.569065,3.968703 4.26701,4.811362 4.583452,-12.7867 l 0.04411,-2.452746 1.615039,-1.185547 c 0.888272,-0.652052 1.716272,-1.084461 1.84,-0.960909 0.788281,0.787154 1.00209,51.542658 0.224961,53.40259 -0.864944,2.070102 0.150398,2.105664 2.025925,0.07096 2.527654,-2.74218 2.35293,-0.704535 2.622302,-30.581599 0.1325,-14.696 0.256853,-26.750634 0.276341,-26.788076 0.196483,-0.377506 3.978313,-2.655742 4.140094,-2.494059 0.118436,0.118363 0.215338,13.429457 0.215338,29.580208 v 29.365002 l -1.12,2.196042 c -1.309381,2.567371 -4.053014,5.014257 -6.4058,5.71296 -1.673916,0.4971 -52.664039,0.661811 -55.466043,0.17917 z M 58.500911,80.391449 C 59.067291,74.506375 53.503689,67.61507 47.104248,66.275076 38.031811,64.375377 28.48,71.404406 28.48,79.980373 c 0,1.717457 -0.830143,1.633067 15.176491,1.542784 l 14.743508,-0.08316 z"
         id="path119" />
      <path
         style="fill:#51fd29"
         d="M 17.808156,86.071246 C 12.384186,85.136975 9.4550173,81.219272 9.6662354,75.181595 L 9.7599998,72.501337 11.52,71.270191 l 1.76,-1.231145 0.08287,1.220476 c 0.188953,2.782934 0.805981,5.463078 1.552349,6.742849 1.399329,2.399376 3.324784,3.03575 3.324784,1.098859 0,-10.335046 12.3598,-22.328996 24.011445,-23.300706 8.531308,-0.711484 17.435479,4.045562 22.984545,12.279475 2.253267,3.343483 2.284009,3.241698 2.284009,-7.562172 0,-10.107778 0.352159,-9.315295 -4.144,-9.325462 -4.160471,-0.0094 -5.411785,-0.28688 -7.426364,-1.646754 -1.758509,-1.187023 -5.271565,-5.319743 -4.856129,-5.712696 0.146571,-0.138639 1.768226,-1.285151 3.603678,-2.547803 3.944053,-2.713212 3.260279,-2.829728 8.321905,1.418064 4.597481,3.858275 4.301019,4.071344 4.539574,-3.262627 0.240281,-7.387022 0.230412,-7.347919 2.175612,-8.620117 l 1.558926,-1.019568 0.234141,0.859568 c 0.538535,1.977043 0.554217,46.749402 0.01685,48.092426 -0.629331,1.572851 -0.629677,1.567141 0.09506,1.567141 0.329584,0 1.187591,-0.638281 1.90668,-1.418401 2.521027,-2.734991 2.359874,-0.970381 2.57857,-28.235015 0.107528,-13.405378 0.267505,-24.430823 0.355505,-24.500989 0.088,-0.07016 1.046309,-0.721895 2.129575,-1.448287 l 1.969576,-1.320713 0.211108,3.581703 c 0.116109,1.969936 0.1658,14.252364 0.110424,27.294283 l -0.100683,23.712581 -1.12,2.194999 c -1.309467,2.56632 -4.053907,5.013479 -6.4058,5.711916 -1.673916,0.4971 -52.664039,0.661811 -55.466043,0.17917 z M 58.500911,80.391449 C 59.067291,74.506375 53.503689,67.61507 47.104248,66.275076 38.031811,64.375377 28.48,71.404406 28.48,79.980373 c 0,1.717457 -0.830143,1.633067 15.176491,1.542784 l 14.743508,-0.08316 z M 25.640817,65.039999 c 0.398039,-0.507538 0.38672,-0.518856 -0.120817,-0.120818 -0.308,0.24155 -0.56,0.49355 -0.56,0.56 0,0.263371 0.262779,0.09386 0.680817,-0.439182 z"
         id="path118" />
      <path
         style="fill:#56fd19"
         d="M 18.1986,86.081331 C 12.763548,85.137572 9.8700967,81.515017 9.7972733,75.563002 L 9.7599998,72.516555 11.52,71.278864 l 1.76,-1.23769 0.179663,2.993741 C 13.804296,78.777583 18.56,84.011637 18.56,78.648268 c 0,-14.151278 21.763936,-27.913235 33.400608,-21.120157 0.549665,0.320875 1.863391,0.921611 2.919391,1.334967 3.699444,1.448097 7.274002,4.628528 10.359105,9.216921 1.400763,2.083318 1.761382,2.341484 2.086658,1.493828 0.311957,-0.812947 0.223689,-17.997854 -0.09345,-18.193857 -0.158228,-0.09779 -2.30676,-0.301465 -4.774516,-0.452612 l -4.486828,-0.274811 -2.025485,-1.452074 c -1.687305,-1.209632 -4.657912,-4.207451 -4.996537,-5.042308 -0.169426,-0.417708 7.028579,-5.143097 7.57003,-4.969618 0.286562,0.09181 1.169023,0.792214 1.961023,1.556443 7.111897,6.862529 7.34623,6.787873 7.36053,-2.344991 0.01027,-6.557747 -0.09199,-6.161833 1.961016,-7.592268 l 1.481547,-1.032268 0.191899,0.9595 c 0.542757,2.713781 0.631467,46.612642 0.0969,47.94867 -0.65997,1.649428 -0.660508,1.636366 0.06736,1.636366 0.329584,0 1.187591,-0.638281 1.90668,-1.418401 2.467611,-2.677042 2.325493,-1.256827 2.627945,-26.261599 0.14902,-12.32 0.28401,-23.335999 0.299978,-24.479999 l 0.02903,-2.08 2.032136,-1.327077 2.032137,-1.327076 0.220939,10.927076 c 0.121517,6.009892 0.173907,18.285856 0.116424,27.279921 l -0.104515,16.352844 -1.12,2.194736 C 78.370621,82.746261 75.62591,85.193693 73.274764,85.891908 71.622823,86.382482 20.93683,86.556806 18.1986,86.081331 Z M 58.500911,80.391449 C 58.649047,78.852214 58.024066,76.221168 56.996742,74.059202 50.753487,60.920492 30.177664,64.453129 28.57806,78.938369 28.255977,81.855 26.874341,81.617122 43.591185,81.5232 L 58.399999,81.44 Z M 26.185385,65.167264 c 0.08141,-0.422747 -0.0499,-0.554064 -0.47265,-0.472651 -0.321963,0.062 -0.636117,0.376159 -0.698121,0.698121 -0.08141,0.422747 0.0499,0.554064 0.472651,0.47265 0.321962,-0.062 0.636116,-0.376158 0.69812,-0.69812 z M 61.759999,42.719999 c 0,-0.264 -0.216,-0.48 -0.48,-0.48 -0.264,0 -0.48,0.216 -0.48,0.48 0,0.264 0.216,0.48 0.48,0.48 0.264,0 0.48,-0.216 0.48,-0.48 z"
         id="path117" />
      <path
         style="fill:#47fd14"
         d="m 18.128156,86.071254 c -6.043617,-1.041037 -10.3050578,-7.40742 -6.718988,-10.037838 1.920024,-1.408357 1.852486,-1.41056 2.297554,0.07495 1.183626,3.95059 4.853278,5.923177 4.853278,2.608834 0,-4.077587 4.127646,-11.837197 6.296677,-11.837197 0.231813,0 0.961894,-0.487938 1.622401,-1.084307 0.660507,-0.596369 2.928921,-2.274819 5.040921,-3.729888 2.112,-1.45507 4.851827,-3.345159 6.088504,-4.200197 3.483782,-2.408685 9.632583,-2.52519 14.391496,-0.272684 1.056,0.49983 2.568,1.158466 3.36,1.463635 3.199762,1.232915 6.934792,4.644441 9.879105,9.023441 1.400763,2.083318 1.761382,2.341484 2.086658,1.493828 0.311957,-0.812947 0.223689,-17.997854 -0.09345,-18.193857 -0.158228,-0.09779 -2.297162,-0.300878 -4.753188,-0.451305 -4.810209,-0.294618 -5.855773,-0.690344 -8.046093,-3.04529 -0.95089,-1.022361 -0.896405,-1.0949 2.650887,-3.529311 2.511856,-1.723819 2.766064,-1.829796 3.243625,-1.352235 0.570549,0.57055 1.752456,0.704201 1.752456,0.19817 0,-0.666286 0.866791,-0.271188 2.457129,1.12 2.88069,2.519958 3.288641,2.085259 3.303401,-3.52 0.01045,-3.969664 -0.03339,-3.849135 1.907139,-5.242997 l 1.427669,-1.025482 0.267238,0.722413 c 0.589488,1.593538 0.709302,41.98016 0.128845,43.430865 -0.659455,1.648139 -0.659991,1.635201 0.06782,1.635201 0.329584,0 1.187591,-0.638281 1.90668,-1.418401 2.468728,-2.678254 2.329361,-1.293828 2.604637,-25.873473 0.135585,-12.10653 0.301175,-22.061523 0.367978,-22.122206 0.0668,-0.06068 0.98546,-0.712382 2.04146,-1.448218 l 1.92,-1.337885 0.242537,4.420092 c 0.133396,2.43105 0.205396,13.65079 0.16,24.932754 l -0.08254,20.512663 -1.12,2.194917 c -1.309363,2.56602 -4.053934,5.013405 -6.405235,5.711666 -1.673434,0.496956 -52.346058,0.661753 -55.146608,0.179346 z M 58.500911,80.391449 C 58.649047,78.852214 58.024066,76.221168 56.996742,74.059202 50.753487,60.920492 30.177664,64.453129 28.57806,78.938369 28.255977,81.855 26.874341,81.617122 43.591185,81.5232 L 58.399999,81.44 Z"
         id="path116" />
      <path
         style="fill:#2ffe2a"
         d="m 18.88,86.199279 c -3.189479,-0.507862 -5.930752,-2.054053 -6.993225,-3.944467 -0.841155,-1.496634 -0.800946,-1.60535 1.069798,-2.892456 l 1.40392,-0.965922 1.219753,1.120254 c 1.426037,1.309709 2.577613,1.476159 2.790291,0.403311 0.0785,-0.396 0.31283,-1.600719 0.520729,-2.677152 0.2079,-1.076433 0.470415,-2.095627 0.583367,-2.264875 0.112951,-0.169247 6.181367,-4.449287 13.485366,-9.511199 l 13.28,-9.203477 1.894067,0.210359 c 1.041737,0.115697 2.553737,0.536584 3.36,0.935304 0.806263,0.39872 2.329933,1.05811 3.385933,1.465311 3.678973,1.418638 7.267427,4.607556 10.359105,9.205729 1.400763,2.083318 1.761382,2.341484 2.086658,1.493828 0.290817,-0.757855 0.234396,-17.991237 -0.0595,-18.172872 -0.139553,-0.08625 -1.543553,-0.24414 -3.12,-0.350869 -5.799188,-0.39262 -7.506267,-0.816438 -7.506267,-1.863591 0,-0.211182 6.916464,-5.026496 7.219795,-5.026496 0.114459,0 0.785108,0.456995 1.490333,1.015543 1.782291,1.4116 2.299441,1.038441 2.42404,-1.74911 l 0.09417,-2.106755 1.617177,-1.161827 c 0.889448,-0.639004 1.703705,-1.075298 1.809461,-0.969542 0.773312,0.773312 0.983641,37.826709 0.225025,39.642333 -0.864944,2.070102 0.150398,2.105664 2.025925,0.07096 2.442474,-2.649771 2.321963,-1.559862 2.620664,-23.701599 0.147207,-10.912 0.277946,-19.855135 0.29053,-19.873634 0.293536,-0.431504 3.966654,-2.689304 4.122214,-2.533852 0.121367,0.121282 0.220667,10.33856 0.220667,22.705062 v 22.48455 l -1.12,2.196517 c -1.309231,2.567631 -4.052565,5.014598 -6.405235,5.713266 -1.371108,0.407175 -51.972245,0.69311 -54.394764,0.307371 z m 39.620911,-5.80783 C 58.953197,75.691883 55.340567,69.931334 50.408292,67.487295 40.557881,62.606225 28.48,69.450098 28.48,79.912856 c 0,1.796056 -0.896271,1.700957 15.176491,1.610301 l 14.743508,-0.08316 z"
         id="path115" />
      <path
         style="fill:#3afe11"
         d="M 22.52866,86.112691 C 13.436672,85.752218 8.6132137,82.350666 12.956573,79.362356 l 1.40392,-0.965922 1.219753,1.120254 c 1.426037,1.309709 2.577613,1.476159 2.790291,0.403311 0.0785,-0.396 0.31283,-1.600719 0.520729,-2.677152 0.2079,-1.076433 0.470415,-2.095627 0.583367,-2.264875 0.632349,-0.947515 26.784361,-18.656564 27.532765,-18.644037 5.580389,0.09341 13.733295,5.368364 17.907268,11.586064 2.598216,3.870396 2.595789,3.875936 2.663857,-6.08 0.06796,-9.939725 0.04895,-10.373578 -0.4689,-10.702627 -0.214293,-0.136165 -1.901624,-0.253213 -3.749624,-0.260107 -4.351387,-0.01623 -6.72,-0.619093 -6.72,-1.710378 0,-0.197999 6.934286,-5.006888 7.219795,-5.006888 0.114459,0 0.785108,0.456995 1.490333,1.015543 1.782291,1.4116 2.299441,1.038441 2.42404,-1.74911 l 0.09417,-2.106755 1.617177,-1.161827 c 0.889448,-0.639004 1.711072,-1.068015 1.825832,-0.953357 0.489388,0.488955 0.408523,38.629538 -0.08451,39.861761 -1.266445,3.165159 2.62496,0.906555 4.180257,-2.426255 l 0.74666,-1.6 0.0044,-15.84 c 0.0024,-8.712 0.09779,-17.670529 0.211893,-19.907843 l 0.20747,-4.067843 1.890566,-1.326156 c 2.529291,-1.774197 2.3319,-3.572835 2.3319,21.248388 v 22.133454 l -0.737201,1.824522 c -0.975543,2.414403 -3.082827,4.699827 -5.542105,6.010608 l -1.999362,1.06565 -22.260666,0.07442 C 38.017299,86.296126 25.537897,86.231999 22.52866,86.112691 Z M 58.053827,81.725762 C 58.774321,81.449283 58.721093,78.334615 57.95374,75.869105 54.613984,65.138448 40.049392,62.169042 32.301901,70.639248 c -2.659134,2.907188 -4.75595,8.558529 -3.884835,10.470416 l 0.369213,0.810335 h 14.380688 c 7.909378,0 14.608465,-0.08741 14.88686,-0.194237 z m 2.421354,-2.925763 c -0.0052,-0.601059 -0.726636,-2.838121 -1.005122,-3.116607 -0.136912,-0.136911 -0.126992,2.534453 0.01276,3.436607 0.07856,0.507131 0.996929,0.21099 0.992362,-0.32 z m 5.764818,-6.604549 c 0,-0.738792 -1.256081,-2.098833 -1.269354,-1.374414 -0.01354,0.738739 0.556942,1.818963 0.960613,1.818963 0.169807,0 0.308741,-0.200047 0.308741,-0.444549 z"
         id="path114" />
      <path
         style="fill:#28fe0b"
         d="m 22.72,86.104527 c -5.439624,-0.232927 -7.497473,-0.717676 -8.571444,-2.019101 -0.456729,-0.553457 2.712686,-3.125427 3.851436,-3.125427 0.308004,0 0.562273,-0.18 0.565043,-0.4 0.0043,-0.338505 11.542757,-8.62277 11.744977,-8.432513 0.03851,0.03623 -0.278494,0.922366 -0.704446,1.969192 -1.093169,2.686587 -1.651178,5.99752 -1.183708,7.023503 l 0.364421,0.799818 h 14.380688 c 16.638102,0 15.393032,0.181646 15.393032,-2.245727 0,-8.819135 -9.361323,-15.86074 -18.32,-13.780338 -1.685845,0.39149 -1.701888,0.406231 3.36,-3.087281 2.508,-1.730921 5.030983,-3.495808 5.606628,-3.921971 1.033507,-0.765127 1.058977,-0.767547 2.031578,-0.193017 0.670631,0.396151 1.334459,0.525107 2.080169,0.404095 2.892906,-0.469454 7.931016,3.364313 11.596292,8.824239 2.576261,3.837691 2.544219,3.918433 2.666798,-6.72 0.128359,-11.139989 0.418008,-10.272875 -3.470153,-10.388473 l -3.078508,-0.09153 3.070255,-2.16 c 1.68864,-1.188 3.150942,-2.16 3.24956,-2.16 0.09862,0 1.004622,-0.648449 2.013343,-1.440999 1.779184,-1.397901 1.840262,-1.419435 2.04214,-0.72 0.47456,1.644179 0.294932,33.707711 -0.195414,34.881274 -1.317149,3.152381 2.664629,0.797836 4.1944,-2.480275 0.744317,-1.594981 0.746797,-1.644174 0.790497,-15.68 0.02411,-7.744 0.133517,-15.64582 0.243126,-17.559601 l 0.199289,-3.479601 1.965122,-1.405051 1.965122,-1.405051 0.224728,5.844652 c 1.186706,30.863464 0.0035,38.813743 -6.274278,42.159782 l -1.999362,1.06565 -22.260666,0.07492 C 38.017299,86.296905 25.624,86.228878 22.72,86.104527 Z m 37.755181,-7.304528 c -0.0052,-0.601059 -0.726636,-2.838121 -1.005122,-3.116607 -0.136912,-0.136911 -0.126992,2.534453 0.01276,3.436607 0.07856,0.507131 0.996929,0.21099 0.992362,-0.32 z m 5.764818,-6.604549 c 0,-0.738792 -1.256081,-2.098833 -1.269354,-1.374414 -0.01354,0.738739 0.556942,1.818963 0.960613,1.818963 0.169807,0 0.308741,-0.200047 0.308741,-0.444549 z"
         id="path113" />
      <path
         style="fill:#06fe02"
         d="m 22.256,85.808254 c 1.298199,-1.160457 5.887913,-4.104899 6.108093,-3.918529 0.151748,0.128447 6.968603,0.151805 15.148566,0.05191 l 14.87266,-0.181633 0.310532,-0.884033 c 1.156893,-3.293488 -2.685519,-10.492034 -7.09528,-13.292613 -0.747685,-0.474845 -1.359685,-0.942603 -1.36,-1.039463 -4.82e-4,-0.148483 6.059347,-4.497027 7.276739,-5.221799 0.965802,-0.574989 5.225389,3.399069 7.619131,7.108405 2.39074,3.704684 2.702088,2.981329 2.707927,-6.291329 0.0052,-8.223563 -0.05021,-7.946409 1.852814,-9.271848 l 1.502817,-1.046701 0.208102,0.72969 c 0.494264,1.733088 0.292047,25.083307 -0.228004,26.327966 -0.974319,2.331872 0.02714,2.56593 2.207549,0.51594 2.660307,-2.50118 2.772353,-3.02386 2.772353,-12.932699 0,-4.817868 0.09311,-10.91103 0.20692,-13.54036 l 0.20692,-4.780601 1.904535,-1.372155 c 2.462,-1.77379 2.232085,-2.981301 2.41141,12.664724 0.233892,20.407054 -0.955772,24.395511 -7.847487,26.309415 -1.471195,0.408567 -51.24189,0.472968 -50.786297,0.06572 z m 38.35052,-6.6364 c 0.295349,-0.769668 -0.730181,-3.971855 -1.272023,-3.971855 -0.429887,0 -0.402633,2.636218 0.04218,4.08 0.175091,0.568314 0.99803,0.495949 1.229843,-0.108145 z m 5.803238,-7.091855 c -0.36819,-1.475295 -1.769759,-2.666481 -1.769759,-1.504109 0,0.852523 0.952641,2.384109 1.482908,2.384109 0.392424,0 0.457018,-0.19816 0.286851,-0.88 z m -10.409759,-2.32 c 0,-0.176 -0.144,-0.32 -0.32,-0.32 -0.176,0 -0.32,0.144 -0.32,0.32 0,0.176 0.144,0.32 0.32,0.32 0.176,0 0.32,-0.144 0.32,-0.32 z"
         id="path112" />
    </g>
  </g>
</svg>
