<?xml version="1.0" encoding="UTF-8"?>
<svg version="1.1" xmlns="http://www.w3.org/2000/svg" width="296" height="296">
<path d="M0 0 C13.86 0 27.72 0 42 0 C42 0.99 42 1.98 42 3 C43.0725 3.12375 44.145 3.2475 45.25 3.375 C48.37863615 3.89643936 50.33480424 4.40088254 53 6 C53 6.66 53 7.32 53 8 C53.598125 8.226875 54.19625 8.45375 54.8125 8.6875 C59.29706827 11.37824096 60.46469752 16.01322376 61.73583984 20.87060547 C61.9261377 21.63518066 62.11643555 22.39975586 62.3125 23.1875 C62.52342285 24.01137207 62.7343457 24.83524414 62.95166016 25.68408203 C64.96782416 33.65903272 66.80323505 41.67657311 68.63256836 49.69604492 C70.48508311 57.81285377 72.41001354 65.90972606 74.375 74 C79.7041775 95.98192916 84.92850386 117.98423149 89.77929688 140.07714844 C91.61047929 148.36709485 93.56192741 156.62438871 95.5625 164.875 C96.00166748 166.68641479 96.00166748 166.68641479 96.44970703 168.53442383 C97.55979348 173.10271284 98.6728744 177.67022439 99.79589844 182.23535156 C100.51423096 185.15583089 101.2262508 188.07778926 101.9375 191 C102.14898682 191.84804199 102.36047363 192.69608398 102.57836914 193.56982422 C103.52122466 197.45915338 104.26857685 200.9632086 104 205 C91.64218233 205.34865316 78.1659692 204.90156107 68.18359375 196.46484375 C67 195 67 195 67 193 C66.34 193 65.68 193 65 193 C59.61124183 174.77422083 54.99695956 156.49428424 51.3828125 137.83374023 C50.36661979 132.64084972 49.12355232 127.57968836 47.6484375 122.49609375 C46.67913783 118.76487394 46.1420019 114.98294322 45.5546875 111.17602539 C45.0483508 108.27684664 44.3994603 105.49229004 43.6484375 102.6484375 C41.8884602 95.73066006 40.47191882 88.75484147 39.06695557 81.75900269 C36.89273729 70.95321891 34.67252481 60.16256032 32.125 49.4375 C31.92213379 48.57648682 31.71926758 47.71547363 31.51025391 46.82836914 C30.86869108 43.11068678 30.86869108 43.11068678 29 40 C27.30858344 40.08963062 25.62040398 40.24577676 23.9375 40.4375 C22.55884766 40.59025391 22.55884766 40.59025391 21.15234375 40.74609375 C20.44207031 40.82988281 19.73179688 40.91367188 19 41 C22.4673913 21.29891304 22.4673913 21.29891304 28 13 C27.34 13 26.68 13 26 13 C26 13.66 26 14.32 26 15 C25.34 15 24.68 15 24 15 C23.814375 16.299375 23.814375 16.299375 23.625 17.625 C23 21 23 21 22.10546875 23.6796875 C20.80542888 27.58440089 19.73185531 31.52055294 18.6875 35.5 C18.3637439 36.73363281 18.3637439 36.73363281 18.03344727 37.9921875 C14.61222805 51.19628454 11.70455946 64.5204554 8.9375 77.875 C7.48217151 84.89677897 5.83625101 91.84449195 4.0625 98.79296875 C2.84398461 103.57884829 1.70233303 108.38237347 0.5625 113.1875 C0.35246338 114.06929932 0.14242676 114.95109863 -0.07397461 115.85961914 C-1.14998652 120.38460791 -2.21227047 124.91228298 -3.25390625 129.4453125 C-10.26710052 159.79007284 -10.26710052 159.79007284 -15 164 C-15.33 164.99 -15.66 165.98 -16 167 C-16.66 167 -17.32 167 -18 167 C-18 167.66 -18 168.32 -18 169 C-19.98 169.33 -21.96 169.66 -24 170 C-24 170.66 -24 171.32 -24 172 C-35.88 172 -47.76 172 -60 172 C-59.67 170.35 -59.34 168.7 -59 167 C-58.38125 166.9175 -57.7625 166.835 -57.125 166.75 C-54.87900069 166.22123344 -54.87900069 166.22123344 -54.0625 164.3125 C-53.711875 163.549375 -53.36125 162.78625 -53 162 C-52.2059375 161.1028125 -51.411875 160.205625 -50.59375 159.28125 C-44.69259622 152.29731571 -43.11498599 141.87486813 -41.09375 133.09765625 C-40.92407211 132.36863098 -40.75439423 131.63960571 -40.57957458 130.88848877 C-38.85597212 123.44803035 -37.20634669 115.99123066 -35.56509399 108.53225708 C-32.68338027 95.44652261 -29.73265266 82.38299155 -26.57226562 69.36132812 C-25.76880296 66.0460163 -24.97440213 62.7285772 -24.18286133 59.41040039 C-23.7708695 57.6850934 -23.35666075 55.96031421 -22.94018555 54.23608398 C-21.75798786 49.31216436 -20.64607027 44.38002321 -19.59765625 39.42578125 C-13.01450865 8.72794229 -13.01450865 8.72794229 -5.47265625 3.12109375 C-3 2 -3 2 0 2 C0 1.34 0 0.68 0 0 Z M31 6 C31.33 6.99 31.66 7.98 32 9 C32.66 8.67 33.32 8.34 34 8 C34 7.34 34 6.68 34 6 C33.01 6 32.02 6 31 6 Z M29 9 C28.67 10.32 28.34 11.64 28 13 C28.99 11.68 29.98 10.36 31 9 C30.34 9 29.68 9 29 9 Z " fill="#FAFAFB" transform="translate(60,34)"/>
<path d="M0 0 C2.98042511 0.08792709 5.95821312 0.19492576 8.9375 0.3125 C9.76830078 0.33505859 10.59910156 0.35761719 11.45507812 0.38085938 C17.40730322 0.63562387 22.45578827 1.83008856 28 4 C28 4.66 28 5.32 28 6 C28.886875 6.04125 29.77375 6.0825 30.6875 6.125 C34.91168795 7.24082323 36.64760916 9.50192883 39 13 C43.29183571 22.63046062 45.3338233 33.2053314 47.47314453 43.48242188 C48.43472343 48.07732529 49.43946905 52.66290359 50.4375 57.25 C50.64979248 58.230896 50.86208496 59.21179199 51.08081055 60.22241211 C52.26085355 65.6622096 53.47287207 71.09293944 54.72485352 76.51660156 C57.29430082 87.64838242 59.66163404 98.81792531 62 110 C64.71385648 122.97602077 67.48993905 135.93069027 70.50048828 148.84179688 C70.98835139 150.94967072 71.4633345 153.06001108 71.93359375 155.171875 C72.20300781 156.37328125 72.47242188 157.5746875 72.75 158.8125 C72.97171875 159.80894531 73.1934375 160.80539063 73.421875 161.83203125 C73.79630574 163.96331783 73.79630574 163.96331783 75 165 C78.55896985 165.15817644 81.57744416 164.9354491 85 164 C83.92204275 172.92934736 81.49638004 180.72612356 78 189 C77.34 189 76.68 189 76 189 C75.87625 189.5775 75.7525 190.155 75.625 190.75 C74.99274387 193.02612206 74.08136532 194.90760206 73 197 C73.94700919 195.82006945 74.88206299 194.63054211 75.8125 193.4375 C76.33457031 192.77621094 76.85664063 192.11492187 77.39453125 191.43359375 C80.85348687 186.19045664 82.50198593 180.56242851 83.9375 174.5 C85.17298801 169.32271693 86.48866551 164.18305305 87.88671875 159.046875 C90.14659888 150.67138571 92.02368551 142.22348143 93.875 133.75 C94.2232742 132.16886628 94.57191245 130.58781271 94.92089844 129.00683594 C95.78842036 125.07413 96.65273755 121.1407296 97.51574707 117.20703125 C100.8327532 102.08944344 104.15131891 86.99214264 108 72 C108.3440063 70.61106213 108.68640304 69.2217248 109.02734375 67.83203125 C109.99643478 63.88224425 110.99170536 59.93997484 112 56 C112.36738281 54.54207031 112.36738281 54.54207031 112.7421875 53.0546875 C114.8345599 45.36698217 118.02175891 38.36140068 125 34 C129.68219711 32.66764961 134.41387174 32.87301995 139.23828125 32.90234375 C140.11904831 32.9037587 140.99981537 32.90517365 141.90727234 32.90663147 C144.70905003 32.91221063 147.51074662 32.92475929 150.3125 32.9375 C152.21679572 32.94251769 154.12109269 32.94708013 156.02539062 32.95117188 C160.68362481 32.96217323 165.34179867 32.97942351 170 33 C170 33.66 170 34.32 170 35 C168.3970947 35.81498562 166.79262722 36.62689927 165.1875 37.4375 C164.29417969 37.88996094 163.40085937 38.34242187 162.48046875 38.80859375 C160 40 160 40 157 41 C155.87483915 42.83284443 155.87483915 42.83284443 155 45 C154.33333333 46.33333333 153.66666667 47.66666667 153 49 C152.34 49 151.68 49 151 49 C150.8453125 50.4540625 150.8453125 50.4540625 150.6875 51.9375 C150.28941433 54.72962866 149.63884518 57.22260829 148.6875 59.875 C146.78739911 65.24769907 145.59367903 70.76882993 144.3581543 76.32373047 C143.10018968 81.89981032 143.10018968 81.89981032 142 83 C141.63106613 84.63821735 141.31429638 86.28823299 141.01953125 87.94140625 C140.8282666 88.98699707 140.63700195 90.03258789 140.43994141 91.10986328 C140.23288574 92.2492334 140.02583008 93.38860352 139.8125 94.5625 C137.99187189 104.31386419 135.86372358 113.91290297 133.37670898 123.51367188 C130.82455961 133.45917795 128.66242606 143.48049507 126.53564453 153.52392578 C124.6285374 162.43843779 122.41955475 171.2136653 120 180 C119.41639212 182.14575868 118.83300932 184.29157861 118.25 186.4375 C117.83378471 187.95845693 117.41731117 189.47934339 117 191 C116.34 191 115.68 191 115 191 C114.505 193.97 114.505 193.97 114 197 C113.34 197 112.68 197 112 197 C112 197.66 112 198.32 112 199 C111.34 199 110.68 199 110 199 C110 199.99 110 200.98 110 202 C105.13512979 204.5539464 100.45257491 204.25565129 95.10546875 204.1953125 C93.68443596 204.19106766 93.68443596 204.19106766 92.23469543 204.18673706 C89.21883334 204.17557187 86.20327184 204.15047389 83.1875 204.125 C81.13867617 204.11496547 79.08984768 204.10584045 77.04101562 204.09765625 C72.02722852 204.07564449 67.01366517 204.04113971 62 204 C62 203.34 62 202.68 62 202 C59.36 201.67 56.72 201.34 54 201 C54 200.34 54 199.68 54 199 C53.278125 198.835 52.55625 198.67 51.8125 198.5 C46.41720702 195.62251041 44.65104173 190.93847152 42.78515625 185.3828125 C39.44966346 174.11667467 37.00588712 162.58838042 34.40625 151.13671875 C33.02038098 145.04760306 31.52217708 138.9949293 29.98828125 132.94140625 C26.52886217 119.23341433 23.39983268 105.44129686 20.2331543 91.66357422 C18.47006025 84.00331266 16.66181722 76.35492172 14.82861328 68.71118164 C13.07145836 61.35902456 11.40094278 53.98832558 9.73852539 46.61425781 C8.46539205 40.98673486 7.11339723 35.38684113 5.68359375 29.796875 C4.58196333 25.28963284 3.64656198 20.74799587 2.6953125 16.20703125 C2.12872544 13.59372799 1.503037 11.01971933 0.8125 8.4375 C0.09883871 5.41816378 -0.06811074 3.06498325 0 0 Z M67 199 C67 199.66 67 200.32 67 201 C67.99 201 68.98 201 70 201 C70 200.34 70 199.68 70 199 C69.01 199 68.02 199 67 199 Z " fill="#F9FAFB" transform="translate(124,36)"/>
</svg>
