<svg xmlns="http://www.w3.org/2000/svg"  viewBox="0 0 64 64" width="256px" height="256px"><path fill="#85cbf8" d="M62.327,23.048C59.792,24.358,55.949,26,51,26c-6.25,0-8.25-2-12-2c-1.769,0-3,0.375-3,0.375V19.5	c0,0,1.451,0.5,3.5,0.5c0.97,0,1.74-0.201,2.256-0.395c0.295-0.111,0.327-0.521,0.052-0.674c-0.868-0.486-2.308-1.599-2.838-3.809	c-0.45-1.877-1.095-3.622-6.845-5.622c-3.32-1.155-4.841-2.718-5.381-3.404c-0.116-0.148-0.348-0.115-0.411,0.062	C26.187,6.564,26,7,26,7.75c0,3.125,2,3.375,2,10.875c0.02,0.496,0.018,1.958,0.013,3.195c-0.004,0.834-0.838,1.393-1.616,1.093	C25.229,22.463,23.386,22,20.75,22c-2.625,0-5.5,1-8.25,1c-5.152,0-8.428-1.712-10.342-2.896C1.568,19.739,0.84,20.28,1.02,20.95	c0.97,3.598,4.344,11.351,16.411,16.877c1.49,0.682,4.697,2.041,6.547,2.829c0.826,0.352,1.231,1.295,0.898,2.129	c-1.094,2.735-3.383,6.301-4.655,7.964c-0.148,0.193-0.227,0.426-0.227,0.663c0,1.473,1.757,2.587,1.757,2.587	s0.02,0.013,0.035,0.024c-0.011,0.117-0.035,0.231-0.035,0.351c0,2.002,1.623,3.625,3.625,3.625c1.147,0,2.157-0.543,2.821-1.375	c0.453,0.001,3.142-0.055,3.309-1.528C32,48,32.814,44.838,33.258,43.544c0.311-0.906,1.119-1.544,2.072-1.647	c1.091-0.118,2.8-0.368,4.92-0.897c6.208-1.55,15.125-4.875,20.082-11.847c1.818-2.557,2.453-4.515,2.675-5.593	C63.086,23.172,62.679,22.866,62.327,23.048z"/><path fill="#7bbeeb" d="M49,31c-3.66,8.23-9.21,10.06-10.14,10.32c-0.04,0.01-0.08,0.02-0.12,0.03h-0.01	c-1.42,0.3-2.58,0.46-3.4,0.55C34.38,42,33.86,42,33.86,42c1.09-1.99,3.14-4.24,3.14-9c0-4.42-1-5-1-8.62c0,0,1.23-0.38,3-0.38	c3.53,0,5.51,1.77,10.96,1.98L50,26C50,26,50.12,28.49,49,31z"/><path fill="#7bbeeb" d="M33.26,43.54c-0.14,0.4-0.31,0.97-0.5,1.78c-0.42,1.83-0.91,4.86-1.25,9.78	c-0.17,1.47-2.86,1.53-3.31,1.53C27.53,57.46,26.52,58,25.38,58c-2.01,0-3.63-1.62-3.63-3.62c0-0.13,0.02-0.24,0.04-0.36	C21.77,54.01,21.75,54,21.75,54s-1.76-1.11-1.76-2.59c0-0.23,0.08-0.47,0.23-0.66c1.25-1.63,3.48-5.11,4.6-7.82	c0.02-0.05,0.04-0.09,0.06-0.14c0.24-0.6,0.01-1.84,0.01-1.84S26.62,43.88,29,45c3.88-0.88,4.86-3,4.86-3S33.4,43.13,33.26,43.54z"/><path fill="#7bbeeb" d="M28,23c0,0-2,3-3,6c0,0-0.99,1.5-0.99,6c0,2.59,0.62,4.53,0.88,5.98c-0.4-0.13-0.74-0.25-0.91-0.32	c-1.09-0.47-2.65-1.13-4.05-1.74C17.94,36.86,14,31.91,14,25c0,0-0.03-2,0-2v-0.08c2.28-0.25,4.59-0.92,6.75-0.92	c2.64,0,4.48,0.46,5.65,0.91C27.16,23.2,28,23,28,23z"/><path fill="#ace3ff" d="M39.21,15.903c-0.092-0.244-0.173-0.504-0.24-0.781c-0.45-1.877-1.095-3.622-6.845-5.622	c-3.32-1.155-4.841-2.718-5.381-3.404c-0.116-0.148-0.348-0.115-0.411,0.062C26.187,6.564,26,7,26,7.75	c0,0.908,0.173,1.576,0.412,2.25c1.352,4.157,6.397,4.177,8.628,5.792C35.632,15.927,36,16,36,16h3.254L39.21,15.903z"/><path fill="#ced9ed" d="M39.254,16H36v3.5c0,0,1.45,0.5,3.5,0.5c0.97,0,1.74-0.2,2.26-0.39c0.29-0.12,0.32-0.53,0.05-0.68	C41.065,18.51,39.906,17.63,39.254,16z"/><path fill="#8d6c9f" d="M34.239,43.734l-1.963-0.381c0.208-1.072,0.791-2.013,1.409-3.009C34.77,38.595,36,36.611,36,33	c0-2.211-0.262-3.409-0.514-4.567C35.247,27.338,35,26.206,35,24.375h2c0,1.615,0.204,2.549,0.44,3.631	C37.702,29.209,38,30.573,38,33c0,4.181-1.512,6.619-2.616,8.399C34.844,42.271,34.377,43.022,34.239,43.734z"/><path fill="#8d6c9f" d="M25,43c-0.552,0-1-0.447-1-1c0-0.497-0.154-1.188-0.333-1.987c-0.295-1.322-0.662-2.968-0.662-5.013	c0-4.667,1.042-6.373,1.161-6.552c0.305-0.461,0.924-0.588,1.386-0.281c0.455,0.301,0.583,0.911,0.292,1.37	c-0.035,0.06-0.838,1.506-0.838,5.464c0,1.825,0.34,3.351,0.614,4.577C25.824,40.492,26,41.283,26,42C26,42.553,25.552,43,25,43z"/><path fill="#8d6c9f" d="M35.93,27.957c-4.105-1.251-5.262-4.781-5.565-6.195c-3.148-1.648-3.497-6.065-3.511-6.262	l1.995-0.143c0.002,0.038,0.316,3.838,2.77,4.781c0.352,0.135,0.598,0.457,0.636,0.832c0.018,0.155,0.478,3.922,4.259,5.074	L35.93,27.957z"/><path fill="#8d6c9f" d="M36,18c-0.419,0-0.809-0.265-0.948-0.684c-0.28-0.839-1.611-1.304-3.153-1.842	c-2.404-0.839-5.396-1.884-6.454-5.205c-0.167-0.526,0.124-1.089,0.65-1.256c0.522-0.167,1.088,0.124,1.256,0.65	c0.753,2.369,3.018,3.159,5.207,3.923c1.955,0.683,3.801,1.327,4.391,3.098c0.175,0.524-0.108,1.09-0.632,1.265	C36.211,17.984,36.104,18,36,18z"/><path fill="#8d6c9f" d="M37,19.5h-2V16c0-0.552,0.447-1,1-1h3v2h-2V19.5z"/><path fill="#8d6c9f" d="M15.125,29C2.974,29,1.023,23.923,0.086,21.483c-0.198-0.516,0.06-1.094,0.575-1.292	c0.514-0.198,1.094,0.059,1.292,0.575C2.791,22.945,4.348,27,15.125,27c0.552,0,1,0.448,1,1S15.677,29,15.125,29z"/><path fill="#8d6c9f" d="M17,34c-8.801,0-11.585-3.383-13.249-5.404c-0.351-0.426-0.31-1.081,0.116-1.432	s1.036-0.314,1.388,0.112l0.04,0.049C6.827,29.187,9.143,32,17,32c0.552,0,1,0.448,1,1C18,33.553,17.552,34,17,34z"/><path fill="#8d6c9f" d="M48,32c-0.553,0-1-0.448-1-1s0.447-1,1-1c10.543,0,12.979-3.37,13.923-6.306	c0.17-0.525,0.735-0.813,1.258-0.646c0.526,0.169,0.815,0.732,0.646,1.258C62.765,27.609,59.969,32,48,32z"/><path fill="#8d6c9f" d="M45,37c-0.553,0-1-0.447-1-1s0.447-1,1-1c8.126,0,10.938-2.311,13.121-4.678	c0.375-0.405,1.008-0.431,1.413-0.057c0.406,0.375,0.432,1.007,0.058,1.413C57.216,34.253,53.934,37,45,37z"/><path fill="#8d6c9f" d="M25.376,58.999c-2.505,0-4.551-2.002-4.623-4.49c-0.64-0.513-1.759-1.624-1.759-3.097	c0-0.455,0.154-0.906,0.433-1.271c1.245-1.627,3.47-5.101,4.521-7.728c0.129-0.322-0.033-0.698-0.361-0.838l-0.625-0.266	c-1.942-0.826-4.602-1.958-5.947-2.574C4.871,33.175,1.176,25.369,0.055,21.21c-0.189-0.705,0.065-1.44,0.648-1.874	c0.583-0.434,1.361-0.467,1.981-0.083C4.59,20.433,7.68,22,12.5,22c1.302,0,2.696-0.25,4.043-0.493C17.93,21.258,19.364,21,20.75,21	c2.863,0,4.847,0.533,6.007,0.98c0.079,0.03,0.143,0.007,0.18-0.018c0.05-0.034,0.076-0.084,0.076-0.147	c0.002-0.639,0.01-2.589-0.012-3.149c-0.001-4.409-0.693-6.172-1.25-7.588C25.365,10.094,25,9.165,25,7.75	c0-0.86,0.205-1.418,0.354-1.825l0.038-0.105c0.149-0.42,0.518-0.729,0.961-0.801c0.441-0.078,0.896,0.103,1.177,0.459	c0.444,0.564,1.814,1.996,4.923,3.077c6.023,2.095,6.955,4.107,7.489,6.333c0.446,1.86,1.667,2.785,2.354,3.17	c0.468,0.259,0.736,0.757,0.696,1.297c-0.039,0.533-0.387,0.998-0.886,1.185C41.551,20.75,40.646,21,39.5,21	c-0.986,0-1.847-0.108-2.5-0.229v2.376C37.54,23.067,38.224,23,39,23c1.78,0,3.193,0.413,4.689,0.851C45.532,24.389,47.621,25,51,25	c4.814,0,8.509-1.621,10.868-2.84c0,0,0,0,0,0c0.509-0.263,1.108-0.212,1.564,0.134c0.456,0.345,0.668,0.907,0.554,1.466	c-0.261,1.271-0.966,3.338-2.84,5.973c-5.059,7.116-14.024,10.583-20.654,12.238c-2.187,0.545-3.955,0.802-5.055,0.921	c-0.566,0.061-1.051,0.444-1.234,0.978c-0.428,1.247-1.218,4.374-1.7,11.296c-0.226,1.998-2.611,2.383-3.847,2.447	C27.788,58.499,26.617,58.999,25.376,58.999z M2.153,21.269c1.213,3.932,4.845,10.681,15.695,15.649	c1.321,0.604,4.075,1.776,5.897,2.553l0.625,0.266c1.319,0.562,1.963,2.096,1.435,3.42c-1.185,2.961-3.566,6.602-4.789,8.2	c-0.021,0.822,0.998,1.625,1.271,1.798c0.026,0.017,0.087,0.06,0.112,0.078c0.271,0.211,0.416,0.545,0.383,0.888l-0.019,0.156	c-0.012,1.545,1.166,2.723,2.613,2.723c0.79,0,1.533-0.364,2.039-0.998c0.189-0.238,0.478-0.377,0.782-0.377	c0.008-0.003,0.012,0,0.017,0c1.254,0,2.265-0.344,2.298-0.641c0.469-6.748,1.238-10.126,1.8-11.764	c0.435-1.264,1.577-2.173,2.911-2.316c1.036-0.112,2.708-0.355,4.785-0.874c6.303-1.573,14.804-4.838,19.509-11.456	c1.208-1.698,1.854-3.104,2.2-4.105C59.179,25.678,55.565,27,51,27c-3.665,0-5.899-0.653-7.871-1.229C41.715,25.357,40.494,25,39,25	c-1.58,0-2.7,0.329-2.711,0.333c-0.305,0.09-0.633,0.033-0.885-0.156C35.15,24.988,35,24.691,35,24.375V19.5	c0-0.323,0.156-0.626,0.419-0.814c0.264-0.188,0.6-0.237,0.907-0.131C36.337,18.558,37.662,19,39.5,19	c0.228,0,0.441-0.013,0.641-0.035c-0.839-0.742-1.731-1.893-2.144-3.609c-0.354-1.478-0.721-3.005-6.201-4.911	C29.475,9.637,27.957,8.634,27,7.797c0.008,1.01,0.262,1.658,0.613,2.549C28.198,11.836,29,13.878,29,18.625	c0.016,0.372,0.021,1.401,0.013,3.199c-0.004,0.719-0.358,1.387-0.949,1.79c-0.594,0.405-1.351,0.493-2.027,0.232	C25.036,23.46,23.306,23,20.75,23c-1.208,0-2.493,0.231-3.853,0.476C15.463,23.733,13.98,24,12.5,24	C7.588,24,4.293,22.523,2.153,21.269z M41.317,19.803c0.001,0.001,0.003,0.002,0.005,0.003	C41.32,19.805,41.318,19.804,41.317,19.803z M27.275,6.493l-0.004,0.011C27.272,6.5,27.274,6.497,27.275,6.493z"/><path fill="#8d6c9f" d="M37,18h-2c-1.103,0-2-0.897-2-2v-2h2c1.103,0,2,0.897,2,2V18z"/><path fill="#8d6c9f" d="M38.508,49.008c-0.478,0-0.9-0.343-0.984-0.829l-0.341-1.971c-0.094-0.545,0.271-1.062,0.814-1.156	c0.552-0.093,1.062,0.271,1.156,0.814l0.341,1.971c0.094,0.545-0.271,1.062-0.814,1.156C38.621,49.003,38.564,49.008,38.508,49.008z M43.338,47.906c-0.438,0-0.841-0.29-0.963-0.733l-0.533-1.929c-0.147-0.532,0.165-1.083,0.697-1.23	c0.528-0.144,1.084,0.164,1.23,0.697l0.533,1.929c0.147,0.532-0.165,1.083-0.697,1.23C43.517,47.895,43.427,47.906,43.338,47.906z M48.044,46.395c-0.406,0-0.788-0.249-0.938-0.652l-0.694-1.875c-0.192-0.519,0.072-1.094,0.59-1.285	c0.522-0.195,1.094,0.072,1.285,0.59l0.694,1.875c0.192,0.519-0.072,1.094-0.59,1.285C48.276,46.375,48.159,46.395,48.044,46.395z M52.601,44.45c-0.371,0-0.727-0.206-0.9-0.562l-0.876-1.798c-0.241-0.497-0.035-1.096,0.461-1.338	c0.5-0.24,1.096-0.035,1.338,0.461l0.876,1.798c0.241,0.497,0.035,1.096-0.461,1.338C52.896,44.418,52.747,44.45,52.601,44.45z M56.941,42.02c-0.329,0-0.65-0.162-0.842-0.459l-1.082-1.682c-0.299-0.465-0.165-1.083,0.3-1.382	c0.463-0.297,1.083-0.164,1.382,0.3l1.082,1.682c0.299,0.465,0.165,1.083-0.3,1.382C57.314,41.968,57.127,42.02,56.941,42.02z M60.948,39.038c-0.279,0-0.558-0.117-0.756-0.345l-1.311-1.511c-0.361-0.417-0.316-1.049,0.101-1.411	c0.417-0.361,1.048-0.316,1.411,0.101l1.311,1.511c0.361,0.417,0.316,1.049-0.101,1.411C61.414,38.958,61.181,39.038,60.948,39.038z"/><path fill="#8d6c9f" d="M17.035,45.738c-0.136,0-0.274-0.027-0.406-0.086c-0.504-0.225-0.731-0.816-0.507-1.32l0.813-1.827	c0.225-0.506,0.815-0.732,1.32-0.508c0.504,0.225,0.731,0.816,0.507,1.32l-0.813,1.827C17.783,45.518,17.417,45.738,17.035,45.738z M12.454,43.629c-0.155,0-0.312-0.036-0.459-0.112c-0.49-0.254-0.682-0.857-0.427-1.348l0.921-1.775	c0.253-0.491,0.858-0.683,1.348-0.428c0.49,0.254,0.682,0.857,0.427,1.348l-0.921,1.775C13.165,43.433,12.816,43.629,12.454,43.629z M8.069,41.039c-0.191,0-0.385-0.055-0.556-0.17c-0.458-0.308-0.581-0.929-0.273-1.387l1.114-1.661	c0.308-0.46,0.929-0.582,1.388-0.273c0.458,0.308,0.581,0.929,0.273,1.387L8.9,40.596C8.708,40.884,8.391,41.039,8.069,41.039z M4.014,37.927c-0.235,0-0.47-0.082-0.66-0.25c-0.415-0.364-0.455-0.996-0.09-1.411l1.322-1.501c0.365-0.415,0.997-0.454,1.411-0.09	c0.415,0.365,0.455,0.997,0.09,1.412l-1.322,1.501C4.567,37.812,4.291,37.927,4.014,37.927z"/></svg>